{"glyphs":{"0":{"ha":1072,"x_min":71,"x_max":1001,"o":"m 535 -14 q 288 45 392 -14 q 127 222 184 103 q 71 514 71 340 q 127 806 71 688 q 288 983 184 924 q 535 1042 392 1042 q 784 983 679 1042 q 945 806 888 924 q 1001 514 1001 688 q 945 222 1001 340 q 784 45 888 103 q 535 -14 679 -14 m 537 218 q 673 285 626 218 q 719 513 719 352 q 673 742 719 675 q 537 810 626 810 q 400 743 447 810 q 353 515 353 676 q 374 339 353 404 q 436 246 396 274 q 537 218 476 218 z "},"1":{"ha":717,"x_min":33,"x_max":612,"o":"m 416 1032 l 612 1032 l 612 0 l 321 0 l 321 694 l 33 487 l 33 756 l 416 1032 z "},"2":{"ha":869,"x_min":24,"x_max":829,"o":"m 829 226 l 829 0 l 37 0 l 37 148 l 369 497 q 465 615 438 569 q 492 702 492 660 q 447 791 492 763 q 297 819 403 819 q 152 806 226 819 q 24 774 79 793 l 24 1000 q 163 1029 79 1017 q 318 1042 247 1042 q 666 966 555 1042 q 776 735 776 891 q 739 575 776 651 q 611 409 701 499 l 428 226 l 829 226 z "},"3":{"ha":875,"x_min":38,"x_max":826,"o":"m 616 531 q 771 451 716 510 q 826 292 826 392 q 712 67 826 147 q 360 -14 599 -14 q 38 25 192 -14 l 38 228 q 190 199 110 210 q 344 188 269 188 q 507 219 456 188 q 558 309 558 250 q 512 395 558 367 q 354 424 466 424 l 154 424 l 154 626 l 315 626 q 467 653 422 626 q 512 731 512 679 q 329 840 512 840 q 192 828 264 840 q 59 797 119 817 l 59 1001 q 199 1030 117 1019 q 356 1042 281 1042 q 680 967 572 1042 q 788 753 788 892 q 742 614 788 672 q 616 531 696 555 z "},"4":{"ha":1013,"x_min":26,"x_max":990,"o":"m 990 411 l 990 190 l 848 190 l 848 0 l 588 0 l 588 190 l 26 190 l 26 343 l 405 1028 l 683 1028 l 344 411 l 588 411 l 613 681 l 848 681 l 848 411 l 990 411 z "},"5":{"ha":884,"x_min":56,"x_max":844,"o":"m 372 637 q 646 587 542 626 q 797 481 750 548 q 844 316 844 414 q 728 71 844 156 q 377 -14 613 -14 q 56 30 213 -14 l 56 233 q 206 204 126 215 q 360 193 286 193 q 523 223 472 193 q 574 311 574 253 q 549 376 574 351 q 457 417 524 401 q 265 439 390 433 l 90 447 l 130 1028 l 799 1028 l 799 821 l 385 821 l 372 637 z "},"6":{"ha":999,"x_min":77,"x_max":954,"o":"m 586 630 q 856 551 758 630 q 954 313 954 473 q 906 141 954 215 q 765 27 858 67 q 542 -14 672 -14 q 296 41 401 -14 q 134 205 192 96 q 77 475 77 315 q 141 783 77 656 q 330 976 204 910 q 640 1042 456 1042 q 777 1033 715 1042 q 895 1003 839 1024 l 895 795 q 781 825 843 815 q 660 835 719 835 q 437 769 512 835 q 356 581 362 703 q 464 617 403 603 q 586 630 525 630 m 542 181 q 654 214 614 181 q 694 306 694 246 q 651 403 694 371 q 527 435 608 435 q 357 397 438 435 q 410 231 363 280 q 542 181 456 181 z "},"7":{"ha":828,"x_min":9,"x_max":788,"o":"m 9 1028 l 788 1028 l 788 880 l 435 0 l 140 0 l 481 802 l 9 802 l 9 1028 z "},"8":{"ha":1072,"x_min":62,"x_max":1007,"o":"m 812 552 q 962 444 917 507 q 1007 294 1007 381 q 957 138 1007 208 q 802 27 908 68 q 538 -14 697 -14 q 176 58 291 -14 q 62 251 62 129 q 112 396 62 333 q 257 493 163 458 q 131 602 170 539 q 92 744 92 665 q 143 899 92 833 q 298 1004 193 966 q 559 1042 402 1042 q 787 1011 693 1042 q 929 923 881 981 q 977 784 977 865 q 812 552 977 625 m 550 853 q 408 827 452 853 q 363 757 363 800 q 383 699 363 722 q 457 654 402 676 q 622 609 513 633 q 702 673 677 639 q 727 749 727 708 q 683 826 727 799 q 550 853 640 853 m 539 174 q 692 200 644 174 q 740 276 740 226 q 718 335 740 311 q 640 380 697 360 q 480 421 584 401 q 439 430 452 426 q 357 367 383 403 q 331 292 331 331 q 539 174 331 174 z "},"9":{"ha":999,"x_min":44,"x_max":922,"o":"m 457 1042 q 702 987 598 1042 q 864 823 807 932 q 922 553 922 713 q 858 245 922 372 q 668 52 794 118 q 359 -14 542 -14 q 222 -5 283 -14 q 103 24 160 3 l 103 233 q 217 203 156 213 q 338 193 279 193 q 562 259 487 193 q 642 447 637 324 q 535 411 596 424 q 413 398 474 398 q 142 476 240 398 q 44 715 44 555 q 92 887 44 813 q 233 1001 140 960 q 457 1042 326 1042 m 304 722 q 347 625 304 657 q 472 593 390 593 q 642 631 561 593 q 589 797 635 748 q 457 847 542 847 q 344 814 385 847 q 304 722 304 782 z "},"\u0000":{"ha":0,"x_min":0,"x_max":0,"o":""},"\r":{"ha":402,"x_min":0,"x_max":0,"o":""}," ":{"ha":402,"x_min":0,"x_max":0,"o":""},"A":{"ha":1191,"x_min":15,"x_max":1177,"o":"m 892 0 l 806 251 l 382 251 l 296 0 l 15 0 l 386 1028 l 805 1028 l 1177 0 l 892 0 m 456 466 l 733 466 l 594 869 l 456 466 z "},"Á":{"ha":1191,"x_min":15,"x_max":1177,"o":"m 892 0 l 806 251 l 382 251 l 296 0 l 15 0 l 386 1028 l 805 1028 l 1177 0 l 892 0 m 456 466 l 733 466 l 594 869 l 456 466 m 463 1104 l 607 1319 l 906 1319 l 721 1104 l 463 1104 z "},"Ă":{"ha":1191,"x_min":15,"x_max":1177,"o":"m 892 0 l 806 251 l 382 251 l 296 0 l 15 0 l 386 1028 l 805 1028 l 1177 0 l 892 0 m 456 466 l 733 466 l 594 869 l 456 466 m 594 1106 q 369 1164 448 1106 q 274 1317 290 1222 l 444 1317 q 491 1257 454 1279 q 594 1235 528 1235 q 745 1317 722 1235 l 915 1317 q 820 1164 899 1222 q 594 1106 741 1106 z "},"Ắ":{"ha":1191,"x_min":15,"x_max":1177,"o":"m 892 0 l 806 251 l 382 251 l 296 0 l 15 0 l 386 1028 l 805 1028 l 1177 0 l 892 0 m 456 466 l 733 466 l 594 869 l 456 466 m 513 1271 l 599 1437 l 795 1437 l 676 1271 l 513 1271 m 594 1106 q 393 1155 464 1106 q 306 1290 323 1204 l 447 1290 q 469 1248 454 1265 q 514 1222 484 1231 q 594 1213 544 1213 q 675 1222 644 1213 q 721 1248 706 1231 q 748 1290 737 1265 l 883 1290 q 796 1155 866 1204 q 594 1106 726 1106 z "},"Ặ":{"ha":1191,"x_min":15,"x_max":1177,"o":"m 892 0 l 806 251 l 382 251 l 296 0 l 15 0 l 386 1028 l 805 1028 l 1177 0 l 892 0 m 456 466 l 733 466 l 594 869 l 456 466 m 596 -307 q 470 -277 511 -307 q 430 -194 430 -247 q 470 -110 430 -141 q 596 -80 511 -80 q 721 -110 681 -80 q 762 -194 762 -141 q 721 -277 762 -247 q 596 -307 681 -307 m 594 1106 q 369 1164 448 1106 q 274 1317 290 1222 l 444 1317 q 491 1257 454 1279 q 594 1235 528 1235 q 745 1317 722 1235 l 915 1317 q 820 1164 899 1222 q 594 1106 741 1106 z "},"Ằ":{"ha":1191,"x_min":15,"x_max":1177,"o":"m 892 0 l 806 251 l 382 251 l 296 0 l 15 0 l 386 1028 l 805 1028 l 1177 0 l 892 0 m 456 466 l 733 466 l 594 869 l 456 466 m 513 1271 l 394 1437 l 590 1437 l 676 1271 l 513 1271 m 594 1106 q 393 1155 463 1106 q 306 1290 323 1204 l 441 1290 q 468 1248 452 1265 q 514 1222 483 1231 q 594 1213 544 1213 q 675 1222 645 1213 q 720 1248 705 1231 q 742 1290 735 1265 l 883 1290 q 795 1155 866 1204 q 594 1106 725 1106 z "},"Ẳ":{"ha":1191,"x_min":15,"x_max":1177,"o":"m 892 0 l 806 251 l 382 251 l 296 0 l 15 0 l 386 1028 l 805 1028 l 1177 0 l 892 0 m 456 466 l 733 466 l 594 869 l 456 466 m 526 1271 q 548 1310 528 1296 q 606 1339 569 1324 q 642 1355 631 1348 q 654 1372 654 1363 q 572 1392 654 1392 q 428 1377 503 1392 l 428 1459 q 508 1470 463 1466 q 593 1474 553 1474 q 794 1388 794 1474 q 782 1352 794 1367 q 753 1328 769 1338 q 710 1306 737 1318 q 675 1288 687 1295 q 662 1271 663 1280 l 526 1271 m 594 1106 q 393 1155 463 1106 q 306 1290 323 1204 l 447 1290 q 469 1248 454 1265 q 514 1222 484 1231 q 594 1213 544 1213 q 675 1222 644 1213 q 721 1248 706 1231 q 748 1290 737 1265 l 883 1290 q 795 1155 866 1204 q 594 1106 725 1106 z "},"Ẵ":{"ha":1191,"x_min":15,"x_max":1177,"o":"m 892 0 l 806 251 l 382 251 l 296 0 l 15 0 l 386 1028 l 805 1028 l 1177 0 l 892 0 m 456 466 l 733 466 l 594 869 l 456 466 m 712 1323 q 649 1329 680 1323 q 579 1345 619 1335 q 519 1359 542 1354 q 474 1363 497 1363 q 399 1353 435 1363 q 306 1317 362 1343 l 306 1425 q 393 1460 354 1451 q 477 1469 431 1469 q 539 1464 509 1469 q 610 1447 568 1458 q 668 1433 644 1438 q 715 1428 692 1428 q 790 1438 753 1428 q 883 1474 827 1448 l 883 1366 q 797 1332 835 1340 q 712 1323 758 1323 m 594 1106 q 393 1155 463 1106 q 306 1290 323 1204 l 447 1290 q 469 1248 454 1265 q 514 1222 484 1231 q 594 1213 544 1213 q 675 1222 645 1213 q 720 1248 705 1231 q 742 1290 735 1265 l 883 1290 q 795 1155 866 1204 q 594 1106 725 1106 z "},"Â":{"ha":1191,"x_min":15,"x_max":1177,"o":"m 892 0 l 806 251 l 382 251 l 296 0 l 15 0 l 386 1028 l 805 1028 l 1177 0 l 892 0 m 456 466 l 733 466 l 594 869 l 456 466 m 938 1104 l 713 1104 l 594 1219 l 476 1104 l 251 1104 l 476 1319 l 713 1319 l 938 1104 z "},"Ấ":{"ha":1191,"x_min":15,"x_max":1177,"o":"m 892 0 l 806 251 l 382 251 l 296 0 l 15 0 l 386 1028 l 805 1028 l 1177 0 l 892 0 m 456 466 l 733 466 l 594 869 l 456 466 m 876 1433 l 1073 1433 l 953 1266 l 791 1266 l 876 1433 m 476 1293 l 713 1293 l 938 1104 l 713 1104 l 594 1206 l 476 1104 l 251 1104 l 476 1293 z "},"Ậ":{"ha":1191,"x_min":15,"x_max":1177,"o":"m 892 0 l 806 251 l 382 251 l 296 0 l 15 0 l 386 1028 l 805 1028 l 1177 0 l 892 0 m 456 466 l 733 466 l 594 869 l 456 466 m 596 -307 q 470 -277 511 -307 q 430 -194 430 -247 q 470 -110 430 -141 q 596 -80 511 -80 q 721 -110 681 -80 q 762 -194 762 -141 q 721 -277 762 -247 q 596 -307 681 -307 m 938 1104 l 713 1104 l 594 1219 l 476 1104 l 251 1104 l 476 1319 l 713 1319 l 938 1104 z "},"Ầ":{"ha":1191,"x_min":15,"x_max":1177,"o":"m 892 0 l 806 251 l 382 251 l 296 0 l 15 0 l 386 1028 l 805 1028 l 1177 0 l 892 0 m 456 466 l 733 466 l 594 869 l 456 466 m 978 1266 l 817 1266 l 697 1433 l 894 1433 l 978 1266 m 476 1293 l 713 1293 l 938 1104 l 713 1104 l 594 1206 l 476 1104 l 251 1104 l 476 1293 z "},"Ẩ":{"ha":1191,"x_min":15,"x_max":1177,"o":"m 892 0 l 806 251 l 382 251 l 296 0 l 15 0 l 386 1028 l 805 1028 l 1177 0 l 892 0 m 456 466 l 733 466 l 594 869 l 456 466 m 856 1469 q 1057 1382 1057 1469 q 1035 1335 1057 1353 q 974 1301 1013 1318 q 938 1282 949 1289 q 925 1266 926 1275 l 790 1266 q 811 1305 791 1291 q 869 1334 832 1319 q 906 1350 894 1343 q 917 1367 917 1358 q 835 1386 917 1386 q 692 1372 767 1386 l 692 1453 q 771 1465 726 1460 q 856 1469 816 1469 m 476 1293 l 713 1293 l 938 1104 l 713 1104 l 594 1206 l 476 1104 l 251 1104 l 476 1293 z "},"Ẫ":{"ha":1191,"x_min":15,"x_max":1177,"o":"m 892 0 l 806 251 l 382 251 l 296 0 l 15 0 l 386 1028 l 805 1028 l 1177 0 l 892 0 m 456 466 l 733 466 l 594 869 l 456 466 m 749 1428 q 839 1438 797 1428 q 938 1474 881 1448 l 938 1366 q 846 1332 890 1340 q 747 1323 803 1323 q 667 1328 704 1323 q 576 1344 631 1333 q 501 1359 531 1354 q 440 1363 471 1363 q 350 1353 392 1363 q 251 1317 308 1343 l 251 1425 q 344 1460 300 1451 q 442 1469 388 1469 q 519 1464 484 1469 q 613 1447 555 1459 q 686 1433 656 1438 q 749 1428 717 1428 m 476 1293 l 713 1293 l 938 1104 l 713 1104 l 594 1206 l 476 1104 l 251 1104 l 476 1293 z "},"Ȁ":{"ha":1191,"x_min":15,"x_max":1177,"o":"m 892 0 l 806 251 l 382 251 l 296 0 l 15 0 l 386 1028 l 805 1028 l 1177 0 l 892 0 m 456 466 l 733 466 l 594 869 l 456 466 m 338 1104 l 209 1319 l 424 1319 l 538 1104 l 338 1104 m 651 1104 l 524 1319 l 738 1319 l 851 1104 l 651 1104 z "},"Ä":{"ha":1191,"x_min":15,"x_max":1177,"o":"m 892 0 l 806 251 l 382 251 l 296 0 l 15 0 l 386 1028 l 805 1028 l 1177 0 l 892 0 m 456 466 l 733 466 l 594 869 l 456 466 m 392 1102 q 285 1132 320 1102 q 251 1215 251 1161 q 285 1300 251 1270 q 392 1329 320 1329 q 500 1300 465 1329 q 535 1215 535 1270 q 500 1132 535 1161 q 392 1102 465 1102 m 797 1102 q 689 1132 724 1102 q 654 1215 654 1161 q 689 1300 654 1270 q 797 1329 724 1329 q 903 1300 869 1329 q 938 1215 938 1270 q 903 1132 938 1161 q 797 1102 869 1102 z "},"Ạ":{"ha":1191,"x_min":15,"x_max":1177,"o":"m 892 0 l 806 251 l 382 251 l 296 0 l 15 0 l 386 1028 l 805 1028 l 1177 0 l 892 0 m 456 466 l 733 466 l 594 869 l 456 466 m 596 -307 q 470 -277 511 -307 q 430 -194 430 -247 q 470 -110 430 -141 q 596 -80 511 -80 q 721 -110 681 -80 q 762 -194 762 -141 q 721 -277 762 -247 q 596 -307 681 -307 z "},"À":{"ha":1191,"x_min":15,"x_max":1177,"o":"m 892 0 l 806 251 l 382 251 l 296 0 l 15 0 l 386 1028 l 805 1028 l 1177 0 l 892 0 m 456 466 l 733 466 l 594 869 l 456 466 m 466 1104 l 281 1319 l 580 1319 l 723 1104 l 466 1104 z "},"Ả":{"ha":1191,"x_min":15,"x_max":1177,"o":"m 892 0 l 806 251 l 382 251 l 296 0 l 15 0 l 386 1028 l 805 1028 l 1177 0 l 892 0 m 456 466 l 733 466 l 594 869 l 456 466 m 526 1104 q 549 1149 528 1132 q 607 1181 570 1165 q 643 1200 632 1192 q 654 1218 654 1208 q 634 1235 654 1229 q 572 1240 614 1240 q 428 1225 502 1240 l 428 1319 q 507 1332 463 1327 q 593 1336 552 1336 q 744 1311 695 1336 q 794 1238 794 1285 q 772 1184 794 1204 q 710 1144 749 1164 q 674 1123 685 1131 q 662 1104 663 1115 l 526 1104 z "},"Ȃ":{"ha":1191,"x_min":15,"x_max":1177,"o":"m 892 0 l 806 251 l 382 251 l 296 0 l 15 0 l 386 1028 l 805 1028 l 1177 0 l 892 0 m 456 466 l 733 466 l 594 869 l 456 466 m 274 1107 q 369 1260 290 1202 q 594 1318 447 1318 q 820 1260 741 1318 q 915 1107 899 1202 l 745 1107 q 698 1166 735 1144 q 594 1188 661 1188 q 444 1107 467 1188 l 274 1107 z "},"Ā":{"ha":1191,"x_min":15,"x_max":1177,"o":"m 892 0 l 806 251 l 382 251 l 296 0 l 15 0 l 386 1028 l 805 1028 l 1177 0 l 892 0 m 456 466 l 733 466 l 594 869 l 456 466 m 300 1135 l 300 1290 l 889 1290 l 889 1135 l 300 1135 z "},"Ą":{"ha":1191,"x_min":15,"x_max":1211,"o":"m 1113 -210 q 1211 -191 1155 -210 l 1211 -292 q 1071 -314 1142 -314 q 907 -273 963 -314 q 851 -162 851 -233 q 965 0 851 -60 l 892 0 l 806 251 l 382 251 l 296 0 l 15 0 l 386 1028 l 805 1028 l 1177 0 q 1047 -65 1085 -32 q 1009 -140 1009 -99 q 1035 -191 1009 -173 q 1113 -210 1060 -210 m 456 466 l 733 466 l 594 869 l 456 466 z "},"Å":{"ha":1191,"x_min":15,"x_max":1177,"o":"m 892 0 l 806 251 l 382 251 l 296 0 l 15 0 l 386 1028 l 805 1028 l 1177 0 l 892 0 m 456 466 l 733 466 l 594 869 l 456 466 m 594 1094 q 515 1114 551 1094 q 460 1167 480 1133 q 440 1244 440 1201 q 460 1321 440 1287 q 515 1374 480 1355 q 594 1393 551 1393 q 674 1374 638 1393 q 729 1321 709 1355 q 749 1244 749 1287 q 729 1167 749 1201 q 674 1114 709 1133 q 594 1094 638 1094 m 594 1182 q 637 1199 621 1182 q 653 1244 653 1215 q 637 1289 653 1272 q 594 1306 621 1306 q 552 1289 568 1306 q 535 1244 535 1272 q 552 1199 535 1215 q 594 1182 568 1182 z "},"Ǻ":{"ha":1191,"x_min":15,"x_max":1177,"o":"m 892 0 l 806 251 l 382 251 l 296 0 l 15 0 l 386 1028 l 805 1028 l 1177 0 l 892 0 m 456 466 l 733 466 l 594 869 l 456 466 m 731 1317 q 749 1244 749 1285 q 729 1167 749 1201 q 674 1114 709 1133 q 594 1094 638 1094 q 515 1114 551 1094 q 460 1167 480 1133 q 440 1244 440 1201 q 460 1321 440 1287 q 515 1374 480 1355 q 594 1393 551 1393 q 619 1392 603 1393 l 689 1478 l 873 1478 l 731 1317 m 594 1182 q 637 1199 621 1182 q 653 1244 653 1215 q 637 1289 653 1272 q 594 1306 621 1306 q 552 1289 568 1306 q 535 1244 535 1272 q 552 1199 535 1215 q 594 1182 568 1182 z "},"Ã":{"ha":1191,"x_min":15,"x_max":1177,"o":"m 892 0 l 806 251 l 382 251 l 296 0 l 15 0 l 386 1028 l 805 1028 l 1177 0 l 892 0 m 456 466 l 733 466 l 594 869 l 456 466 m 728 1113 q 659 1119 691 1113 q 583 1139 626 1126 q 513 1157 540 1151 q 453 1163 485 1163 q 371 1152 407 1163 q 297 1117 335 1141 l 297 1263 q 368 1301 330 1289 q 460 1314 407 1314 q 529 1307 497 1314 q 606 1287 560 1301 q 675 1269 647 1275 q 735 1263 704 1263 q 818 1273 782 1263 q 892 1308 854 1284 l 892 1163 q 820 1124 859 1136 q 728 1113 782 1113 z "},"Æ":{"ha":1613,"x_min":15,"x_max":1551,"o":"m 1038 215 l 1551 215 l 1551 0 l 765 0 l 744 251 l 383 251 l 296 0 l 15 0 l 387 1028 l 1544 1028 l 1544 813 l 980 813 l 997 633 l 1472 633 l 1472 417 l 1018 417 l 1038 215 m 457 466 l 725 466 l 696 813 l 576 813 l 457 466 z "},"Ǽ":{"ha":1613,"x_min":15,"x_max":1551,"o":"m 1038 215 l 1551 215 l 1551 0 l 765 0 l 744 251 l 383 251 l 296 0 l 15 0 l 387 1028 l 1544 1028 l 1544 813 l 980 813 l 997 633 l 1472 633 l 1472 417 l 1018 417 l 1038 215 m 457 466 l 725 466 l 696 813 l 576 813 l 457 466 m 697 1104 l 841 1319 l 1140 1319 l 955 1104 l 697 1104 z "},"B":{"ha":1040,"x_min":99,"x_max":998,"o":"m 808 530 q 947 452 896 512 q 998 296 998 393 q 944 128 998 197 q 766 24 891 60 q 430 -13 640 -13 q 265 -7 359 -13 q 99 9 170 -1 l 99 997 q 288 1028 182 1016 q 485 1041 393 1041 q 855 967 739 1041 q 971 747 971 892 q 927 609 971 667 q 808 530 883 551 m 517 844 q 382 831 450 844 l 382 625 l 534 625 q 662 652 623 625 q 701 735 701 679 q 683 797 701 773 q 625 832 665 820 q 517 844 585 844 m 509 184 q 646 198 597 184 q 716 237 696 211 q 736 304 736 263 q 719 373 736 347 q 664 412 702 399 q 559 424 625 424 l 382 424 l 382 190 q 509 184 434 184 z "},"C":{"ha":1012,"x_min":64,"x_max":964,"o":"m 706 -14 q 226 118 389 -14 q 64 511 64 250 q 138 796 64 677 q 357 978 212 915 q 713 1042 503 1042 q 964 1017 847 1042 l 964 786 q 738 808 857 808 q 457 735 546 808 q 367 514 367 662 q 455 292 367 365 q 724 219 542 219 q 964 247 842 219 l 964 17 q 706 -14 840 -14 z "},"Ć":{"ha":1012,"x_min":64,"x_max":964,"o":"m 706 -14 q 226 118 389 -14 q 64 511 64 250 q 138 796 64 677 q 357 978 212 915 q 713 1042 503 1042 q 964 1017 847 1042 l 964 786 q 738 808 857 808 q 457 735 546 808 q 367 514 367 662 q 455 292 367 365 q 724 219 542 219 q 964 247 842 219 l 964 17 q 706 -14 840 -14 m 468 1104 l 612 1319 l 911 1319 l 726 1104 l 468 1104 z "},"Č":{"ha":1012,"x_min":64,"x_max":964,"o":"m 706 -14 q 226 118 389 -14 q 64 511 64 250 q 138 796 64 677 q 357 978 212 915 q 713 1042 503 1042 q 964 1017 847 1042 l 964 786 q 738 808 857 808 q 457 735 546 808 q 367 514 367 662 q 455 292 367 365 q 724 219 542 219 q 964 247 842 219 l 964 17 q 706 -14 840 -14 m 717 1319 l 943 1319 l 717 1104 l 481 1104 l 256 1319 l 481 1319 l 599 1205 l 717 1319 z "},"Ç":{"ha":1012,"x_min":64,"x_max":964,"o":"m 738 808 q 457 735 546 808 q 367 514 367 662 q 455 292 367 365 q 724 219 542 219 q 964 247 842 219 l 964 17 q 706 -14 840 -14 q 648 -12 685 -14 l 648 -54 q 751 -95 717 -63 q 785 -180 785 -128 q 731 -278 785 -243 q 575 -314 678 -314 q 419 -290 494 -314 l 419 -193 q 562 -215 486 -215 q 625 -205 604 -215 q 646 -172 646 -195 q 625 -136 646 -147 q 563 -126 605 -126 l 522 -126 l 522 -1 q 180 163 296 34 q 64 511 64 291 q 138 796 64 677 q 357 978 212 915 q 713 1042 503 1042 q 964 1017 847 1042 l 964 786 q 738 808 857 808 z "},"Ḉ":{"ha":1012,"x_min":64,"x_max":964,"o":"m 911 1319 l 726 1104 l 468 1104 l 612 1319 l 911 1319 m 738 808 q 457 735 546 808 q 367 514 367 662 q 455 292 367 365 q 724 219 542 219 q 964 247 842 219 l 964 17 q 706 -14 840 -14 q 648 -12 685 -14 l 648 -54 q 751 -95 717 -63 q 785 -180 785 -128 q 731 -278 785 -243 q 575 -314 678 -314 q 419 -290 494 -314 l 419 -193 q 562 -215 486 -215 q 625 -205 604 -215 q 646 -172 646 -195 q 625 -136 646 -147 q 563 -126 605 -126 l 522 -126 l 522 -1 q 180 163 296 34 q 64 511 64 291 q 138 796 64 677 q 357 978 212 915 q 713 1042 503 1042 q 964 1017 847 1042 l 964 786 q 738 808 857 808 z "},"Ĉ":{"ha":1012,"x_min":64,"x_max":964,"o":"m 706 -14 q 226 118 389 -14 q 64 511 64 250 q 138 796 64 677 q 357 978 212 915 q 713 1042 503 1042 q 964 1017 847 1042 l 964 786 q 738 808 857 808 q 457 735 546 808 q 367 514 367 662 q 455 292 367 365 q 724 219 542 219 q 964 247 842 219 l 964 17 q 706 -14 840 -14 m 943 1104 l 717 1104 l 599 1219 l 481 1104 l 256 1104 l 481 1319 l 717 1319 l 943 1104 z "},"Ċ":{"ha":1012,"x_min":64,"x_max":964,"o":"m 706 -14 q 226 118 389 -14 q 64 511 64 250 q 138 796 64 677 q 357 978 212 915 q 713 1042 503 1042 q 964 1017 847 1042 l 964 786 q 738 808 857 808 q 457 735 546 808 q 367 514 367 662 q 455 292 367 365 q 724 219 542 219 q 964 247 842 219 l 964 17 q 706 -14 840 -14 m 599 1102 q 474 1132 515 1102 q 433 1215 433 1163 q 474 1299 433 1269 q 599 1329 515 1329 q 725 1299 684 1329 q 765 1215 765 1269 q 725 1132 765 1163 q 599 1102 684 1102 z "},"D":{"ha":1224,"x_min":99,"x_max":1160,"o":"m 436 -9 q 266 -5 356 -9 q 99 10 176 0 l 99 997 q 290 1026 179 1015 q 501 1038 401 1038 q 994 909 829 1038 q 1160 514 1160 780 q 1081 214 1160 328 q 842 45 1001 99 q 436 -9 683 -9 m 514 218 q 713 249 636 218 q 827 345 790 280 q 864 516 864 411 q 778 740 864 669 q 515 812 693 812 q 389 801 457 812 l 389 222 q 514 218 434 218 z "},"Ǳ":{"ha":2190,"x_min":99,"x_max":2133,"o":"m 436 -9 q 266 -5 356 -9 q 99 10 176 0 l 99 997 q 290 1026 179 1015 q 501 1038 401 1038 q 994 909 829 1038 q 1160 514 1160 780 q 1081 214 1160 328 q 842 45 1001 99 q 436 -9 683 -9 m 514 218 q 713 249 636 218 q 827 345 790 280 q 864 516 864 411 q 778 740 864 669 q 515 812 693 812 q 389 801 457 812 l 389 222 q 514 218 434 218 m 1616 226 l 2133 226 l 2133 0 l 1240 0 l 1240 156 l 1751 802 l 1248 802 l 1248 1028 l 2126 1028 l 2126 872 l 1616 226 z "},"Ǆ":{"ha":2190,"x_min":99,"x_max":2133,"o":"m 436 -9 q 266 -5 356 -9 q 99 10 176 0 l 99 997 q 290 1026 179 1015 q 501 1038 401 1038 q 994 909 829 1038 q 1160 514 1160 780 q 1081 214 1160 328 q 842 45 1001 99 q 436 -9 683 -9 m 514 218 q 713 249 636 218 q 827 345 790 280 q 864 516 864 411 q 778 740 864 669 q 515 812 693 812 q 389 801 457 812 l 389 222 q 514 218 434 218 m 1616 226 l 2133 226 l 2133 0 l 1240 0 l 1240 156 l 1751 802 l 1248 802 l 1248 1028 l 2126 1028 l 2126 872 l 1616 226 m 1806 1319 l 2031 1319 l 1806 1104 l 1569 1104 l 1344 1319 l 1569 1319 l 1688 1205 l 1806 1319 z "},"Ð":{"ha":1224,"x_min":6,"x_max":1160,"o":"m 501 1038 q 994 909 829 1038 q 1160 514 1160 780 q 1081 214 1160 328 q 842 45 1001 99 q 436 -9 683 -9 q 266 -5 356 -9 q 99 10 176 0 l 99 443 l 6 443 l 6 616 l 99 616 l 99 997 q 290 1026 179 1015 q 501 1038 401 1038 m 514 218 q 713 249 636 218 q 827 345 790 280 q 864 516 864 411 q 778 740 864 669 q 515 812 693 812 q 389 801 457 812 l 389 616 l 594 616 l 594 443 l 389 443 l 389 222 q 514 218 434 218 z "},"Ď":{"ha":1224,"x_min":99,"x_max":1160,"o":"m 436 -9 q 266 -5 356 -9 q 99 10 176 0 l 99 997 q 290 1026 179 1015 q 501 1038 401 1038 q 994 909 829 1038 q 1160 514 1160 780 q 1081 214 1160 328 q 842 45 1001 99 q 436 -9 683 -9 m 514 218 q 713 249 636 218 q 827 345 790 280 q 864 516 864 411 q 778 740 864 669 q 515 812 693 812 q 389 801 457 812 l 389 222 q 514 218 434 218 m 649 1319 l 874 1319 l 649 1104 l 413 1104 l 187 1319 l 413 1319 l 531 1205 l 649 1319 z "},"Đ":{"ha":1224,"x_min":6,"x_max":1160,"o":"m 501 1038 q 994 909 829 1038 q 1160 514 1160 780 q 1081 214 1160 328 q 842 45 1001 99 q 436 -9 683 -9 q 266 -5 356 -9 q 99 10 176 0 l 99 443 l 6 443 l 6 616 l 99 616 l 99 997 q 290 1026 179 1015 q 501 1038 401 1038 m 514 218 q 713 249 636 218 q 827 345 790 280 q 864 516 864 411 q 778 740 864 669 q 515 812 693 812 q 389 801 457 812 l 389 616 l 594 616 l 594 443 l 389 443 l 389 222 q 514 218 434 218 z "},"Ḍ":{"ha":1224,"x_min":99,"x_max":1160,"o":"m 436 -9 q 266 -5 356 -9 q 99 10 176 0 l 99 997 q 290 1026 179 1015 q 501 1038 401 1038 q 994 909 829 1038 q 1160 514 1160 780 q 1081 214 1160 328 q 842 45 1001 99 q 436 -9 683 -9 m 514 218 q 713 249 636 218 q 827 345 790 280 q 864 516 864 411 q 778 740 864 669 q 515 812 693 812 q 389 801 457 812 l 389 222 q 514 218 434 218 m 543 -307 q 418 -277 458 -307 q 377 -194 377 -247 q 418 -110 377 -141 q 543 -80 458 -80 q 668 -110 628 -80 q 709 -194 709 -141 q 668 -277 709 -247 q 543 -307 628 -307 z "},"Ḏ":{"ha":1224,"x_min":99,"x_max":1160,"o":"m 436 -9 q 266 -5 356 -9 q 99 10 176 0 l 99 997 q 290 1026 179 1015 q 501 1038 401 1038 q 994 909 829 1038 q 1160 514 1160 780 q 1081 214 1160 328 q 842 45 1001 99 q 436 -9 683 -9 m 514 218 q 713 249 636 218 q 827 345 790 280 q 864 516 864 411 q 778 740 864 669 q 515 812 693 812 q 389 801 457 812 l 389 222 q 514 218 434 218 m 249 -265 l 249 -110 l 838 -110 l 838 -265 l 249 -265 z "},"ǲ":{"ha":2081,"x_min":99,"x_max":2033,"o":"m 436 -9 q 266 -5 356 -9 q 99 10 176 0 l 99 997 q 290 1026 179 1015 q 501 1038 401 1038 q 994 909 829 1038 q 1160 514 1160 780 q 1081 214 1160 328 q 842 45 1001 99 q 436 -9 683 -9 m 514 218 q 713 249 636 218 q 827 345 790 280 q 864 516 864 411 q 778 740 864 669 q 515 812 693 812 q 389 801 457 812 l 389 222 q 514 218 434 218 m 1665 221 l 2033 221 l 2033 0 l 1285 0 l 1285 183 l 1647 541 l 1292 541 l 1292 762 l 2026 762 l 2026 579 l 1665 221 z "},"ǅ":{"ha":2081,"x_min":99,"x_max":2033,"o":"m 436 -9 q 266 -5 356 -9 q 99 10 176 0 l 99 997 q 290 1026 179 1015 q 501 1038 401 1038 q 994 909 829 1038 q 1160 514 1160 780 q 1081 214 1160 328 q 842 45 1001 99 q 436 -9 683 -9 m 514 218 q 713 249 636 218 q 827 345 790 280 q 864 516 864 411 q 778 740 864 669 q 515 812 693 812 q 389 801 457 812 l 389 222 q 514 218 434 218 m 1665 221 l 2033 221 l 2033 0 l 1285 0 l 1285 183 l 1647 541 l 1292 541 l 1292 762 l 2026 762 l 2026 579 l 1665 221 m 1778 1097 l 2003 1097 l 1778 882 l 1542 882 l 1316 1097 l 1542 1097 l 1660 983 l 1778 1097 z "},"E":{"ha":1019,"x_min":99,"x_max":958,"o":"m 385 215 l 958 215 l 958 0 l 99 0 l 99 1028 l 951 1028 l 951 813 l 385 813 l 385 633 l 877 633 l 877 417 l 385 417 l 385 215 z "},"É":{"ha":1019,"x_min":99,"x_max":958,"o":"m 385 215 l 958 215 l 958 0 l 99 0 l 99 1028 l 951 1028 l 951 813 l 385 813 l 385 633 l 877 633 l 877 417 l 385 417 l 385 215 m 408 1104 l 552 1319 l 851 1319 l 666 1104 l 408 1104 z "},"Ĕ":{"ha":1019,"x_min":99,"x_max":958,"o":"m 385 215 l 958 215 l 958 0 l 99 0 l 99 1028 l 951 1028 l 951 813 l 385 813 l 385 633 l 877 633 l 877 417 l 385 417 l 385 215 m 540 1106 q 314 1164 393 1106 q 219 1317 235 1222 l 389 1317 q 436 1257 399 1279 q 540 1235 473 1235 q 690 1317 667 1235 l 860 1317 q 765 1164 844 1222 q 540 1106 686 1106 z "},"Ě":{"ha":1019,"x_min":99,"x_max":958,"o":"m 385 215 l 958 215 l 958 0 l 99 0 l 99 1028 l 951 1028 l 951 813 l 385 813 l 385 633 l 877 633 l 877 417 l 385 417 l 385 215 m 658 1319 l 883 1319 l 658 1104 l 422 1104 l 196 1319 l 422 1319 l 540 1205 l 658 1319 z "},"Ḝ":{"ha":1019,"x_min":99,"x_max":958,"o":"m 540 1106 q 314 1164 393 1106 q 219 1317 235 1222 l 389 1317 q 436 1257 399 1279 q 540 1235 473 1235 q 690 1317 667 1235 l 860 1317 q 765 1164 844 1222 q 540 1106 686 1106 m 587 0 l 587 -54 q 690 -95 656 -63 q 724 -180 724 -128 q 670 -278 724 -243 q 514 -314 617 -314 q 358 -290 433 -314 l 358 -193 q 501 -215 425 -215 q 564 -205 543 -215 q 585 -172 585 -195 q 564 -136 585 -147 q 502 -126 544 -126 l 461 -126 l 461 0 l 99 0 l 99 1028 l 951 1028 l 951 813 l 385 813 l 385 633 l 877 633 l 877 417 l 385 417 l 385 215 l 958 215 l 958 0 l 587 0 z "},"Ê":{"ha":1019,"x_min":99,"x_max":958,"o":"m 385 215 l 958 215 l 958 0 l 99 0 l 99 1028 l 951 1028 l 951 813 l 385 813 l 385 633 l 877 633 l 877 417 l 385 417 l 385 215 m 883 1104 l 658 1104 l 540 1219 l 422 1104 l 196 1104 l 422 1319 l 658 1319 l 883 1104 z "},"Ế":{"ha":1019,"x_min":99,"x_max":1018,"o":"m 385 215 l 958 215 l 958 0 l 99 0 l 99 1028 l 951 1028 l 951 813 l 385 813 l 385 633 l 877 633 l 877 417 l 385 417 l 385 215 m 821 1433 l 1018 1433 l 898 1266 l 736 1266 l 821 1433 m 422 1293 l 658 1293 l 883 1104 l 658 1104 l 540 1206 l 422 1104 l 196 1104 l 422 1293 z "},"Ệ":{"ha":1019,"x_min":99,"x_max":958,"o":"m 385 215 l 958 215 l 958 0 l 99 0 l 99 1028 l 951 1028 l 951 813 l 385 813 l 385 633 l 877 633 l 877 417 l 385 417 l 385 215 m 540 -307 q 415 -277 456 -307 q 374 -194 374 -247 q 415 -110 374 -141 q 540 -80 456 -80 q 666 -110 625 -80 q 706 -194 706 -141 q 666 -277 706 -247 q 540 -307 625 -307 m 883 1104 l 658 1104 l 540 1219 l 422 1104 l 196 1104 l 422 1319 l 658 1319 l 883 1104 z "},"Ề":{"ha":1019,"x_min":99,"x_max":958,"o":"m 385 215 l 958 215 l 958 0 l 99 0 l 99 1028 l 951 1028 l 951 813 l 385 813 l 385 633 l 877 633 l 877 417 l 385 417 l 385 215 m 924 1266 l 762 1266 l 642 1433 l 839 1433 l 924 1266 m 422 1293 l 658 1293 l 883 1104 l 658 1104 l 540 1206 l 422 1104 l 196 1104 l 422 1293 z "},"Ể":{"ha":1019,"x_min":99,"x_max":1002,"o":"m 385 215 l 958 215 l 958 0 l 99 0 l 99 1028 l 951 1028 l 951 813 l 385 813 l 385 633 l 877 633 l 877 417 l 385 417 l 385 215 m 801 1469 q 1002 1382 1002 1469 q 980 1335 1002 1353 q 919 1301 958 1318 q 883 1282 894 1289 q 870 1266 872 1275 l 735 1266 q 757 1305 736 1291 q 815 1334 777 1319 q 851 1350 839 1343 q 863 1367 863 1358 q 781 1386 863 1386 q 637 1372 712 1386 l 637 1453 q 716 1465 671 1460 q 801 1469 761 1469 m 422 1293 l 658 1293 l 883 1104 l 658 1104 l 540 1206 l 422 1104 l 196 1104 l 422 1293 z "},"Ễ":{"ha":1019,"x_min":99,"x_max":958,"o":"m 385 215 l 958 215 l 958 0 l 99 0 l 99 1028 l 951 1028 l 951 813 l 385 813 l 385 633 l 877 633 l 877 417 l 385 417 l 385 215 m 694 1428 q 784 1438 742 1428 q 883 1474 826 1448 l 883 1366 q 791 1332 835 1340 q 692 1323 748 1323 q 613 1328 649 1323 q 522 1344 576 1333 q 446 1359 476 1354 q 385 1363 416 1363 q 295 1353 338 1363 q 196 1317 253 1343 l 196 1425 q 289 1460 245 1451 q 388 1469 333 1469 q 465 1464 429 1469 q 558 1447 500 1459 q 632 1433 601 1438 q 694 1428 663 1428 m 422 1293 l 658 1293 l 883 1104 l 658 1104 l 540 1206 l 422 1104 l 196 1104 l 422 1293 z "},"Ȅ":{"ha":1019,"x_min":99,"x_max":958,"o":"m 385 215 l 958 215 l 958 0 l 99 0 l 99 1028 l 951 1028 l 951 813 l 385 813 l 385 633 l 877 633 l 877 417 l 385 417 l 385 215 m 283 1104 l 154 1319 l 369 1319 l 483 1104 l 283 1104 m 597 1104 l 469 1319 l 683 1319 l 797 1104 l 597 1104 z "},"Ë":{"ha":1019,"x_min":99,"x_max":958,"o":"m 385 215 l 958 215 l 958 0 l 99 0 l 99 1028 l 951 1028 l 951 813 l 385 813 l 385 633 l 877 633 l 877 417 l 385 417 l 385 215 m 338 1102 q 231 1132 265 1102 q 196 1215 196 1161 q 231 1300 196 1270 q 338 1329 265 1329 q 445 1300 410 1329 q 480 1215 480 1270 q 445 1132 480 1161 q 338 1102 410 1102 m 742 1102 q 634 1132 669 1102 q 599 1215 599 1161 q 634 1300 599 1270 q 742 1329 669 1329 q 849 1300 814 1329 q 883 1215 883 1270 q 849 1132 883 1161 q 742 1102 814 1102 z "},"Ė":{"ha":1019,"x_min":99,"x_max":958,"o":"m 385 215 l 958 215 l 958 0 l 99 0 l 99 1028 l 951 1028 l 951 813 l 385 813 l 385 633 l 877 633 l 877 417 l 385 417 l 385 215 m 540 1102 q 414 1132 455 1102 q 374 1215 374 1163 q 414 1299 374 1269 q 540 1329 455 1329 q 665 1299 624 1329 q 706 1215 706 1269 q 665 1132 706 1163 q 540 1102 624 1102 z "},"Ẹ":{"ha":1019,"x_min":99,"x_max":958,"o":"m 385 215 l 958 215 l 958 0 l 99 0 l 99 1028 l 951 1028 l 951 813 l 385 813 l 385 633 l 877 633 l 877 417 l 385 417 l 385 215 m 540 -307 q 415 -277 456 -307 q 374 -194 374 -247 q 415 -110 374 -141 q 540 -80 456 -80 q 666 -110 625 -80 q 706 -194 706 -141 q 666 -277 706 -247 q 540 -307 625 -307 z "},"È":{"ha":1019,"x_min":99,"x_max":958,"o":"m 385 215 l 958 215 l 958 0 l 99 0 l 99 1028 l 951 1028 l 951 813 l 385 813 l 385 633 l 877 633 l 877 417 l 385 417 l 385 215 m 411 1104 l 226 1319 l 525 1319 l 668 1104 l 411 1104 z "},"Ẻ":{"ha":1019,"x_min":99,"x_max":958,"o":"m 385 215 l 958 215 l 958 0 l 99 0 l 99 1028 l 951 1028 l 951 813 l 385 813 l 385 633 l 877 633 l 877 417 l 385 417 l 385 215 m 472 1104 q 494 1149 473 1132 q 552 1181 515 1165 q 588 1200 577 1192 q 599 1218 599 1208 q 579 1235 599 1229 q 517 1240 559 1240 q 374 1225 447 1240 l 374 1319 q 452 1332 408 1327 q 538 1336 497 1336 q 690 1311 640 1336 q 739 1238 739 1285 q 717 1184 739 1204 q 655 1144 694 1164 q 619 1123 631 1131 q 607 1104 608 1115 l 472 1104 z "},"Ȇ":{"ha":1019,"x_min":99,"x_max":958,"o":"m 385 215 l 958 215 l 958 0 l 99 0 l 99 1028 l 951 1028 l 951 813 l 385 813 l 385 633 l 877 633 l 877 417 l 385 417 l 385 215 m 219 1107 q 314 1260 235 1202 q 540 1318 392 1318 q 765 1260 686 1318 q 860 1107 844 1202 l 690 1107 q 643 1166 680 1144 q 540 1188 606 1188 q 389 1107 412 1188 l 219 1107 z "},"Ē":{"ha":1019,"x_min":99,"x_max":958,"o":"m 385 215 l 958 215 l 958 0 l 99 0 l 99 1028 l 951 1028 l 951 813 l 385 813 l 385 633 l 877 633 l 877 417 l 385 417 l 385 215 m 245 1135 l 245 1290 l 834 1290 l 834 1135 l 245 1135 z "},"Ḗ":{"ha":1019,"x_min":99,"x_max":958,"o":"m 385 215 l 958 215 l 958 0 l 99 0 l 99 1028 l 951 1028 l 951 813 l 385 813 l 385 633 l 877 633 l 877 417 l 385 417 l 385 215 m 393 1369 l 536 1531 l 872 1531 l 686 1369 l 393 1369 m 245 1135 l 245 1290 l 834 1290 l 834 1135 l 245 1135 z "},"Ḕ":{"ha":1019,"x_min":99,"x_max":958,"o":"m 385 215 l 958 215 l 958 0 l 99 0 l 99 1028 l 951 1028 l 951 813 l 385 813 l 385 633 l 877 633 l 877 417 l 385 417 l 385 215 m 393 1369 l 208 1531 l 543 1531 l 686 1369 l 393 1369 m 245 1135 l 245 1290 l 834 1290 l 834 1135 l 245 1135 z "},"Ę":{"ha":1019,"x_min":99,"x_max":958,"o":"m 890 0 q 760 -65 798 -32 q 722 -140 722 -99 q 747 -191 722 -173 q 826 -210 773 -210 q 924 -191 867 -210 l 924 -292 q 783 -314 855 -314 q 619 -273 675 -314 q 564 -162 564 -233 q 677 0 564 -60 l 99 0 l 99 1028 l 951 1028 l 951 813 l 385 813 l 385 633 l 877 633 l 877 417 l 385 417 l 385 215 l 958 215 l 958 0 l 890 0 z "},"Ẽ":{"ha":1019,"x_min":99,"x_max":958,"o":"m 385 215 l 958 215 l 958 0 l 99 0 l 99 1028 l 951 1028 l 951 813 l 385 813 l 385 633 l 877 633 l 877 417 l 385 417 l 385 215 m 674 1113 q 604 1119 636 1113 q 528 1139 572 1126 q 458 1157 485 1151 q 399 1163 430 1163 q 316 1152 352 1163 q 242 1117 280 1141 l 242 1263 q 314 1301 275 1289 q 406 1314 352 1314 q 474 1307 442 1314 q 551 1287 506 1301 q 620 1269 592 1275 q 681 1263 649 1263 q 763 1273 727 1263 q 838 1308 799 1284 l 838 1163 q 766 1124 804 1136 q 674 1113 727 1113 z "},"F":{"ha":1001,"x_min":99,"x_max":949,"o":"m 949 807 l 389 807 l 389 606 l 873 606 l 873 385 l 389 385 l 389 0 l 99 0 l 99 1028 l 949 1028 l 949 807 z "},"G":{"ha":1147,"x_min":63,"x_max":1045,"o":"m 1045 500 l 1045 14 q 744 -13 881 -13 q 233 119 401 -13 q 64 509 64 251 q 141 796 63 676 q 373 978 218 915 q 753 1042 527 1042 q 881 1035 815 1042 q 1007 1017 947 1029 l 1007 786 q 775 808 899 808 q 540 774 631 808 q 407 674 449 741 q 365 505 365 608 q 454 292 365 365 q 727 218 543 218 q 775 219 759 218 l 775 500 l 1045 500 z "},"Ǵ":{"ha":1147,"x_min":64,"x_max":1045,"o":"m 1045 500 l 1045 14 q 744 -13 881 -13 q 233 119 401 -13 q 64 509 64 251 q 141 796 63 676 q 373 978 218 915 q 753 1042 527 1042 q 881 1035 815 1042 q 1007 1017 947 1029 l 1007 786 q 775 808 899 808 q 540 774 631 808 q 407 674 449 741 q 365 505 365 608 q 454 292 365 365 q 727 218 543 218 q 775 219 759 218 l 775 500 l 1045 500 m 508 1104 l 651 1319 l 951 1319 l 765 1104 l 508 1104 z "},"Ğ":{"ha":1147,"x_min":64,"x_max":1045,"o":"m 1045 500 l 1045 14 q 744 -13 881 -13 q 233 119 401 -13 q 64 509 64 251 q 141 796 63 676 q 373 978 218 915 q 753 1042 527 1042 q 881 1035 815 1042 q 1007 1017 947 1029 l 1007 786 q 775 808 899 808 q 540 774 631 808 q 407 674 449 741 q 365 505 365 608 q 454 292 365 365 q 727 218 543 218 q 775 219 759 218 l 775 500 l 1045 500 m 639 1106 q 414 1164 492 1106 q 319 1317 335 1222 l 488 1317 q 535 1257 499 1279 q 639 1235 572 1235 q 790 1317 767 1235 l 959 1317 q 864 1164 943 1222 q 639 1106 785 1106 z "},"Ǧ":{"ha":1147,"x_min":64,"x_max":1045,"o":"m 1045 500 l 1045 14 q 744 -13 881 -13 q 233 119 401 -13 q 64 509 64 251 q 141 796 63 676 q 373 978 218 915 q 753 1042 527 1042 q 881 1035 815 1042 q 1007 1017 947 1029 l 1007 786 q 775 808 899 808 q 540 774 631 808 q 407 674 449 741 q 365 505 365 608 q 454 292 365 365 q 727 218 543 218 q 775 219 759 218 l 775 500 l 1045 500 m 757 1319 l 983 1319 l 757 1104 l 521 1104 l 295 1319 l 521 1319 l 639 1205 l 757 1319 z "},"Ĝ":{"ha":1147,"x_min":64,"x_max":1045,"o":"m 1045 500 l 1045 14 q 744 -13 881 -13 q 233 119 401 -13 q 64 509 64 251 q 141 796 63 676 q 373 978 218 915 q 753 1042 527 1042 q 881 1035 815 1042 q 1007 1017 947 1029 l 1007 786 q 775 808 899 808 q 540 774 631 808 q 407 674 449 741 q 365 505 365 608 q 454 292 365 365 q 727 218 543 218 q 775 219 759 218 l 775 500 l 1045 500 m 983 1104 l 757 1104 l 639 1219 l 521 1104 l 295 1104 l 521 1319 l 757 1319 l 983 1104 z "},"Ģ":{"ha":1147,"x_min":64,"x_max":1045,"o":"m 1045 500 l 1045 14 q 744 -13 881 -13 q 233 119 401 -13 q 64 509 64 251 q 141 796 63 676 q 373 978 218 915 q 753 1042 527 1042 q 881 1035 815 1042 q 1007 1017 947 1029 l 1007 786 q 775 808 899 808 q 540 774 631 808 q 407 674 449 741 q 365 505 365 608 q 454 292 365 365 q 727 218 543 218 q 775 219 759 218 l 775 500 l 1045 500 m 638 -80 q 793 -194 793 -80 q 776 -279 793 -235 q 731 -354 759 -323 l 560 -354 q 588 -298 578 -322 q 601 -252 597 -274 q 512 -226 540 -247 q 485 -167 485 -204 q 638 -80 485 -80 z "},"Ġ":{"ha":1147,"x_min":64,"x_max":1045,"o":"m 1045 500 l 1045 14 q 744 -13 881 -13 q 233 119 401 -13 q 64 509 64 251 q 141 796 63 676 q 373 978 218 915 q 753 1042 527 1042 q 881 1035 815 1042 q 1007 1017 947 1029 l 1007 786 q 775 808 899 808 q 540 774 631 808 q 407 674 449 741 q 365 505 365 608 q 454 292 365 365 q 727 218 543 218 q 775 219 759 218 l 775 500 l 1045 500 m 639 1102 q 514 1132 554 1102 q 473 1215 473 1163 q 514 1299 473 1269 q 639 1329 554 1329 q 764 1299 724 1329 q 805 1215 805 1269 q 764 1132 805 1163 q 639 1102 724 1102 z "},"Ḡ":{"ha":1147,"x_min":64,"x_max":1045,"o":"m 1045 500 l 1045 14 q 744 -13 881 -13 q 233 119 401 -13 q 64 509 64 251 q 141 796 63 676 q 373 978 218 915 q 753 1042 527 1042 q 881 1035 815 1042 q 1007 1017 947 1029 l 1007 786 q 775 808 899 808 q 540 774 631 808 q 407 674 449 741 q 365 505 365 608 q 454 292 365 365 q 727 218 543 218 q 775 219 759 218 l 775 500 l 1045 500 m 344 1135 l 344 1290 l 933 1290 l 933 1135 l 344 1135 z "},"H":{"ha":1224,"x_min":99,"x_max":1126,"o":"m 99 0 l 99 1028 l 389 1028 l 389 648 l 835 648 l 835 1028 l 1126 1028 l 1126 0 l 835 0 l 835 402 l 389 402 l 389 0 l 99 0 z "},"Ħ":{"ha":1224,"x_min":6,"x_max":1219,"o":"m 1219 926 l 1219 754 l 1126 754 l 1126 0 l 835 0 l 835 402 l 389 402 l 389 0 l 99 0 l 99 754 l 6 754 l 6 926 l 99 926 l 99 1028 l 389 1028 l 389 926 l 835 926 l 835 1028 l 1126 1028 l 1126 926 l 1219 926 m 835 648 l 835 754 l 389 754 l 389 648 l 835 648 z "},"Ḫ":{"ha":1224,"x_min":99,"x_max":1126,"o":"m 99 0 l 99 1028 l 389 1028 l 389 648 l 835 648 l 835 1028 l 1126 1028 l 1126 0 l 835 0 l 835 402 l 389 402 l 389 0 l 99 0 m 613 -309 q 386 -250 465 -309 q 292 -97 307 -192 l 462 -97 q 508 -157 472 -135 q 613 -179 545 -179 q 717 -157 681 -179 q 763 -97 753 -135 l 933 -97 q 839 -251 918 -192 q 613 -309 760 -309 z "},"Ĥ":{"ha":1224,"x_min":99,"x_max":1126,"o":"m 99 0 l 99 1028 l 389 1028 l 389 648 l 835 648 l 835 1028 l 1126 1028 l 1126 0 l 835 0 l 835 402 l 389 402 l 389 0 l 99 0 m 956 1104 l 731 1104 l 613 1219 l 494 1104 l 269 1104 l 494 1319 l 731 1319 l 956 1104 z "},"Ḥ":{"ha":1224,"x_min":99,"x_max":1126,"o":"m 99 0 l 99 1028 l 389 1028 l 389 648 l 835 648 l 835 1028 l 1126 1028 l 1126 0 l 835 0 l 835 402 l 389 402 l 389 0 l 99 0 m 613 -307 q 487 -277 528 -307 q 447 -194 447 -247 q 487 -110 447 -141 q 613 -80 528 -80 q 738 -110 697 -80 q 778 -194 778 -141 q 738 -277 778 -247 q 613 -307 697 -307 z "},"I":{"ha":488,"x_min":99,"x_max":389,"o":"m 99 0 l 99 1028 l 389 1028 l 389 0 l 99 0 z "},"Í":{"ha":488,"x_min":99,"x_max":556,"o":"m 99 0 l 99 1028 l 389 1028 l 389 0 l 99 0 m 113 1104 l 256 1319 l 556 1319 l 370 1104 l 113 1104 z "},"Ĭ":{"ha":488,"x_min":-76,"x_max":564,"o":"m 99 0 l 99 1028 l 389 1028 l 389 0 l 99 0 m 244 1106 q 18 1164 97 1106 q -76 1317 -60 1222 l 93 1317 q 140 1257 103 1279 q 244 1235 177 1235 q 394 1317 372 1235 l 564 1317 q 469 1164 548 1222 q 244 1106 390 1106 z "},"Î":{"ha":488,"x_min":-100,"x_max":588,"o":"m 99 0 l 99 1028 l 389 1028 l 389 0 l 99 0 m 588 1104 l 362 1104 l 244 1219 l 126 1104 l -100 1104 l 126 1319 l 362 1319 l 588 1104 z "},"Ȉ":{"ha":488,"x_min":-142,"x_max":501,"o":"m 99 0 l 99 1028 l 389 1028 l 389 0 l 99 0 m -13 1104 l -142 1319 l 73 1319 l 187 1104 l -13 1104 m 301 1104 l 173 1319 l 388 1319 l 501 1104 l 301 1104 z "},"Ï":{"ha":488,"x_min":-100,"x_max":588,"o":"m 99 0 l 99 1028 l 389 1028 l 389 0 l 99 0 m 42 1102 q -65 1132 -31 1102 q -100 1215 -100 1161 q -65 1300 -100 1270 q 42 1329 -31 1329 q 149 1300 114 1329 q 184 1215 184 1270 q 149 1132 184 1161 q 42 1102 114 1102 m 446 1102 q 339 1132 374 1102 q 303 1215 303 1161 q 339 1300 303 1270 q 446 1329 374 1329 q 553 1300 518 1329 q 588 1215 588 1270 q 553 1132 588 1161 q 446 1102 518 1102 z "},"Ḯ":{"ha":488,"x_min":-100,"x_max":588,"o":"m 99 0 l 99 1028 l 389 1028 l 389 0 l 99 0 m 97 1369 l 240 1531 l 576 1531 l 390 1369 l 97 1369 m 42 1102 q -65 1132 -31 1102 q -100 1215 -100 1161 q -65 1300 -100 1270 q 42 1329 -31 1329 q 149 1300 114 1329 q 184 1215 184 1270 q 149 1132 184 1161 q 42 1102 114 1102 m 446 1102 q 339 1132 374 1102 q 303 1215 303 1161 q 339 1300 303 1270 q 446 1329 374 1329 q 553 1300 518 1329 q 588 1215 588 1270 q 553 1132 588 1161 q 446 1102 518 1102 z "},"İ":{"ha":488,"x_min":78,"x_max":410,"o":"m 99 0 l 99 1028 l 389 1028 l 389 0 l 99 0 m 244 1102 q 118 1132 159 1102 q 78 1215 78 1163 q 118 1299 78 1269 q 244 1329 159 1329 q 369 1299 328 1329 q 410 1215 410 1269 q 369 1132 410 1163 q 244 1102 328 1102 z "},"Ị":{"ha":488,"x_min":77,"x_max":409,"o":"m 99 0 l 99 1028 l 389 1028 l 389 0 l 99 0 m 243 -307 q 118 -277 158 -307 q 77 -194 77 -247 q 118 -110 77 -141 q 243 -80 158 -80 q 368 -110 328 -80 q 409 -194 409 -141 q 368 -277 409 -247 q 243 -307 328 -307 z "},"Ì":{"ha":488,"x_min":-70,"x_max":389,"o":"m 99 0 l 99 1028 l 389 1028 l 389 0 l 99 0 m 115 1104 l -70 1319 l 229 1319 l 372 1104 l 115 1104 z "},"Ỉ":{"ha":488,"x_min":78,"x_max":443,"o":"m 99 0 l 99 1028 l 389 1028 l 389 0 l 99 0 m 176 1104 q 198 1149 177 1132 q 256 1181 219 1165 q 292 1200 281 1192 q 303 1218 303 1208 q 283 1235 303 1229 q 222 1240 263 1240 q 78 1225 151 1240 l 78 1319 q 157 1332 112 1327 q 242 1336 201 1336 q 394 1311 344 1336 q 443 1238 443 1285 q 421 1184 443 1204 q 359 1144 399 1164 q 324 1123 335 1131 q 311 1104 313 1115 l 176 1104 z "},"Ȋ":{"ha":488,"x_min":-76,"x_max":564,"o":"m 99 0 l 99 1028 l 389 1028 l 389 0 l 99 0 m -76 1107 q 18 1260 -60 1202 q 244 1318 97 1318 q 469 1260 390 1318 q 564 1107 548 1202 l 394 1107 q 347 1166 384 1144 q 244 1188 310 1188 q 93 1107 116 1188 l -76 1107 z "},"Ī":{"ha":488,"x_min":-51,"x_max":538,"o":"m 99 0 l 99 1028 l 389 1028 l 389 0 l 99 0 m -51 1135 l -51 1290 l 538 1290 l 538 1135 l -51 1135 z "},"Į":{"ha":488,"x_min":63,"x_max":423,"o":"m 325 -210 q 423 -191 367 -210 l 423 -292 q 283 -314 354 -314 q 119 -273 174 -314 q 63 -162 63 -233 q 176 0 63 -60 l 99 0 l 99 1028 l 389 1028 l 389 0 q 259 -65 297 -32 q 221 -140 221 -99 q 247 -191 221 -173 q 325 -210 272 -210 z "},"Ĩ":{"ha":488,"x_min":-54,"x_max":542,"o":"m 99 0 l 99 1028 l 389 1028 l 389 0 l 99 0 m 378 1113 q 308 1119 340 1113 q 232 1139 276 1126 q 162 1157 190 1151 q 103 1163 134 1163 q 20 1152 56 1163 q -54 1117 -16 1141 l -54 1263 q 18 1301 -21 1289 q 110 1314 56 1314 q 178 1307 147 1314 q 256 1287 210 1301 q 325 1269 296 1275 q 385 1263 353 1263 q 467 1273 431 1263 q 542 1308 503 1284 l 542 1163 q 470 1124 508 1136 q 378 1113 431 1113 z "},"J":{"ha":488,"x_min":-7,"x_max":389,"o":"m -7 -126 q 77 22 52 -55 q 101 208 101 98 l 101 1028 l 389 1028 l 389 214 q 338 -30 388 80 q 172 -247 289 -139 l -7 -126 z "},"Ĵ":{"ha":488,"x_min":-99,"x_max":589,"o":"m -7 -126 q 77 22 52 -55 q 101 208 101 98 l 101 1028 l 389 1028 l 389 214 q 338 -30 388 80 q 172 -247 289 -139 l -7 -126 m 589 1104 l 363 1104 l 245 1219 l 127 1104 l -99 1104 l 127 1319 l 363 1319 l 589 1104 z "},"K":{"ha":1052,"x_min":99,"x_max":1081,"o":"m 765 0 l 478 402 l 389 402 l 389 0 l 99 0 l 99 1028 l 389 1028 l 389 648 l 478 648 l 742 1028 l 1047 1028 l 703 532 l 1081 0 l 765 0 z "},"Ķ":{"ha":1052,"x_min":99,"x_max":1081,"o":"m 765 0 l 478 402 l 389 402 l 389 0 l 99 0 l 99 1028 l 389 1028 l 389 648 l 478 648 l 742 1028 l 1047 1028 l 703 532 l 1081 0 l 765 0 m 552 -80 q 707 -194 707 -80 q 690 -279 707 -235 q 645 -354 673 -323 l 474 -354 q 501 -298 492 -322 q 515 -252 511 -274 q 426 -226 453 -247 q 399 -167 399 -204 q 552 -80 399 -80 z "},"L":{"ha":926,"x_min":99,"x_max":917,"o":"m 99 0 l 99 1028 l 389 1028 l 389 226 l 917 226 l 917 0 l 99 0 z "},"Ǉ":{"ha":1415,"x_min":99,"x_max":1315,"o":"m 99 0 l 99 1028 l 389 1028 l 389 226 l 917 226 l 917 0 l 99 0 m 919 -126 q 1003 22 978 -55 q 1028 208 1028 98 l 1028 1028 l 1315 1028 l 1315 214 q 1265 -30 1314 80 q 1099 -247 1215 -139 l 919 -126 z "},"Ĺ":{"ha":926,"x_min":99,"x_max":917,"o":"m 99 0 l 99 1028 l 389 1028 l 389 226 l 917 226 l 917 0 l 99 0 m 113 1104 l 256 1319 l 556 1319 l 370 1104 l 113 1104 z "},"Ľ":{"ha":926,"x_min":99,"x_max":917,"o":"m 99 0 l 99 1028 l 389 1028 l 389 226 l 917 226 l 917 0 l 99 0 m 599 792 q 616 943 611 869 q 620 1122 620 1017 l 801 1122 q 747 792 801 930 l 599 792 z "},"Ļ":{"ha":926,"x_min":99,"x_max":917,"o":"m 99 0 l 99 1028 l 389 1028 l 389 226 l 917 226 l 917 0 l 99 0 m 508 -80 q 663 -194 663 -80 q 645 -279 663 -235 q 601 -354 628 -323 l 429 -354 q 457 -298 447 -322 q 471 -252 467 -274 q 382 -226 409 -247 q 354 -167 354 -204 q 508 -80 354 -80 z "},"Ŀ":{"ha":926,"x_min":99,"x_max":917,"o":"m 99 0 l 99 1028 l 389 1028 l 389 226 l 917 226 l 917 0 l 99 0 m 699 497 q 570 531 612 497 q 529 630 529 564 q 570 729 529 696 q 699 763 612 763 q 868 630 868 763 q 699 497 868 497 z "},"Ḷ":{"ha":926,"x_min":99,"x_max":917,"o":"m 99 0 l 99 1028 l 389 1028 l 389 226 l 917 226 l 917 0 l 99 0 m 508 -307 q 383 -277 424 -307 q 342 -194 342 -247 q 383 -110 342 -141 q 508 -80 424 -80 q 634 -110 593 -80 q 674 -194 674 -141 q 634 -277 674 -247 q 508 -307 593 -307 z "},"ǈ":{"ha":1387,"x_min":99,"x_max":1320,"o":"m 99 0 l 99 1028 l 389 1028 l 389 226 l 917 226 l 917 0 l 99 0 m 907 -211 q 990 -64 966 -140 q 1015 124 1015 13 l 1015 762 l 1298 762 l 1298 133 q 1249 -110 1298 -1 q 1083 -329 1199 -220 l 907 -211 m 1151 854 q 981 987 981 854 q 1151 1119 981 1119 q 1320 987 1320 1119 q 1151 854 1320 854 z "},"Ḻ":{"ha":926,"x_min":99,"x_max":917,"o":"m 99 0 l 99 1028 l 389 1028 l 389 226 l 917 226 l 917 0 l 99 0 m 214 -265 l 214 -110 l 803 -110 l 803 -265 l 214 -265 z "},"Ł":{"ha":926,"x_min":-37,"x_max":917,"o":"m 389 226 l 917 226 l 917 0 l 99 0 l 99 415 l 39 385 l -37 539 l 99 608 l 99 1028 l 389 1028 l 389 755 l 595 859 l 672 705 l 389 562 l 389 226 z "},"M":{"ha":1481,"x_min":101,"x_max":1379,"o":"m 1028 1028 l 1379 1028 l 1379 0 l 1108 0 l 1108 674 l 861 151 l 620 151 l 373 649 l 373 0 l 101 0 l 101 1028 l 453 1028 l 744 426 l 1028 1028 z "},"Ṃ":{"ha":1481,"x_min":101,"x_max":1379,"o":"m 1028 1028 l 1379 1028 l 1379 0 l 1108 0 l 1108 674 l 861 151 l 620 151 l 373 649 l 373 0 l 101 0 l 101 1028 l 453 1028 l 744 426 l 1028 1028 m 760 -307 q 634 -277 675 -307 q 594 -194 594 -247 q 634 -110 594 -141 q 760 -80 675 -80 q 885 -110 844 -80 q 926 -194 926 -141 q 885 -277 926 -247 q 760 -307 844 -307 z "},"N":{"ha":1233,"x_min":99,"x_max":1135,"o":"m 861 1028 l 1135 1028 l 1135 0 l 844 0 l 372 633 l 372 0 l 99 0 l 99 1028 l 390 1028 l 861 394 l 861 1028 z "},"Ǌ":{"ha":1722,"x_min":99,"x_max":1622,"o":"m 861 1028 l 1135 1028 l 1135 0 l 844 0 l 372 633 l 372 0 l 99 0 l 99 1028 l 390 1028 l 861 394 l 861 1028 m 1226 -126 q 1310 22 1285 -55 q 1335 208 1335 98 l 1335 1028 l 1622 1028 l 1622 214 q 1572 -30 1621 80 q 1406 -247 1522 -139 l 1226 -126 z "},"Ń":{"ha":1233,"x_min":99,"x_max":1135,"o":"m 861 1028 l 1135 1028 l 1135 0 l 844 0 l 372 633 l 372 0 l 99 0 l 99 1028 l 390 1028 l 861 394 l 861 1028 m 485 1104 l 629 1319 l 928 1319 l 743 1104 l 485 1104 z "},"Ň":{"ha":1233,"x_min":99,"x_max":1135,"o":"m 861 1028 l 1135 1028 l 1135 0 l 844 0 l 372 633 l 372 0 l 99 0 l 99 1028 l 390 1028 l 861 394 l 861 1028 m 735 1319 l 960 1319 l 735 1104 l 499 1104 l 273 1319 l 499 1319 l 617 1205 l 735 1319 z "},"Ņ":{"ha":1233,"x_min":99,"x_max":1135,"o":"m 861 1028 l 1135 1028 l 1135 0 l 844 0 l 372 633 l 372 0 l 99 0 l 99 1028 l 390 1028 l 861 394 l 861 1028 m 616 -80 q 771 -194 771 -80 q 754 -279 771 -235 q 709 -354 737 -323 l 538 -354 q 565 -298 556 -322 q 579 -252 575 -274 q 490 -226 517 -247 q 463 -167 463 -204 q 616 -80 463 -80 z "},"Ṅ":{"ha":1233,"x_min":99,"x_max":1135,"o":"m 861 1028 l 1135 1028 l 1135 0 l 844 0 l 372 633 l 372 0 l 99 0 l 99 1028 l 390 1028 l 861 394 l 861 1028 m 617 1102 q 491 1132 532 1102 q 451 1215 451 1163 q 491 1299 451 1269 q 617 1329 532 1329 q 742 1299 701 1329 q 783 1215 783 1269 q 742 1132 783 1163 q 617 1102 701 1102 z "},"Ṇ":{"ha":1233,"x_min":99,"x_max":1135,"o":"m 861 1028 l 1135 1028 l 1135 0 l 844 0 l 372 633 l 372 0 l 99 0 l 99 1028 l 390 1028 l 861 394 l 861 1028 m 617 -307 q 491 -277 532 -307 q 451 -194 451 -247 q 491 -110 451 -141 q 617 -80 532 -80 q 742 -110 701 -80 q 783 -194 783 -141 q 742 -277 783 -247 q 617 -307 701 -307 z "},"Ŋ":{"ha":1233,"x_min":99,"x_max":1135,"o":"m 1135 1028 l 1135 158 q 1114 -25 1135 57 q 1046 -181 1093 -106 q 920 -329 999 -255 l 744 -211 q 811 -111 785 -161 q 849 -5 836 -62 l 372 633 l 372 0 l 99 0 l 99 1028 l 390 1028 l 861 395 l 861 1028 l 1135 1028 z "},"ǋ":{"ha":1694,"x_min":99,"x_max":1627,"o":"m 861 1028 l 1135 1028 l 1135 0 l 844 0 l 372 633 l 372 0 l 99 0 l 99 1028 l 390 1028 l 861 394 l 861 1028 m 1214 -211 q 1297 -64 1273 -140 q 1322 124 1322 13 l 1322 762 l 1605 762 l 1605 133 q 1556 -110 1605 -1 q 1390 -329 1506 -220 l 1214 -211 m 1458 854 q 1288 987 1288 854 q 1458 1119 1288 1119 q 1627 987 1627 1119 q 1458 854 1627 854 z "},"Ṉ":{"ha":1233,"x_min":99,"x_max":1135,"o":"m 861 1028 l 1135 1028 l 1135 0 l 844 0 l 372 633 l 372 0 l 99 0 l 99 1028 l 390 1028 l 861 394 l 861 1028 m 322 -265 l 322 -110 l 911 -110 l 911 -265 l 322 -265 z "},"Ñ":{"ha":1233,"x_min":99,"x_max":1135,"o":"m 861 1028 l 1135 1028 l 1135 0 l 844 0 l 372 633 l 372 0 l 99 0 l 99 1028 l 390 1028 l 861 394 l 861 1028 m 751 1113 q 681 1119 713 1113 q 605 1139 649 1126 q 535 1157 563 1151 q 476 1163 507 1163 q 393 1152 429 1163 q 319 1117 357 1141 l 319 1263 q 391 1301 352 1289 q 483 1314 429 1314 q 551 1307 519 1314 q 628 1287 583 1301 q 698 1269 669 1275 q 758 1263 726 1263 q 840 1273 804 1263 q 915 1308 876 1284 l 915 1163 q 843 1124 881 1136 q 751 1113 804 1113 z "},"O":{"ha":1283,"x_min":64,"x_max":1219,"o":"m 641 -14 q 334 49 464 -14 q 134 231 203 112 q 64 514 64 349 q 134 797 64 678 q 333 979 203 916 q 641 1042 463 1042 q 949 978 819 1042 q 1149 797 1079 915 q 1219 514 1219 678 q 1149 232 1219 351 q 948 49 1078 113 q 641 -14 818 -14 m 641 213 q 850 288 778 213 q 923 509 923 363 q 850 738 923 661 q 641 815 776 815 q 433 741 506 815 q 359 519 359 666 q 431 289 359 365 q 641 213 503 213 z "},"Ó":{"ha":1283,"x_min":64,"x_max":1219,"o":"m 641 -14 q 334 49 464 -14 q 134 231 203 112 q 64 514 64 349 q 134 797 64 678 q 333 979 203 916 q 641 1042 463 1042 q 949 978 819 1042 q 1149 797 1079 915 q 1219 514 1219 678 q 1149 232 1219 351 q 948 49 1078 113 q 641 -14 818 -14 m 641 213 q 850 288 778 213 q 923 509 923 363 q 850 738 923 661 q 641 815 776 815 q 433 741 506 815 q 359 519 359 666 q 431 289 359 365 q 641 213 503 213 m 510 1104 l 653 1319 l 953 1319 l 767 1104 l 510 1104 z "},"Ŏ":{"ha":1283,"x_min":64,"x_max":1219,"o":"m 641 -14 q 334 49 464 -14 q 134 231 203 112 q 64 514 64 349 q 134 797 64 678 q 333 979 203 916 q 641 1042 463 1042 q 949 978 819 1042 q 1149 797 1079 915 q 1219 514 1219 678 q 1149 232 1219 351 q 948 49 1078 113 q 641 -14 818 -14 m 641 213 q 850 288 778 213 q 923 509 923 363 q 850 738 923 661 q 641 815 776 815 q 433 741 506 815 q 359 519 359 666 q 431 289 359 365 q 641 213 503 213 m 641 1106 q 416 1164 494 1106 q 321 1317 337 1222 l 490 1317 q 538 1257 501 1279 q 641 1235 574 1235 q 792 1317 769 1235 l 961 1317 q 866 1164 945 1222 q 641 1106 788 1106 z "},"Ô":{"ha":1283,"x_min":64,"x_max":1219,"o":"m 641 -14 q 334 49 464 -14 q 134 231 203 112 q 64 514 64 349 q 134 797 64 678 q 333 979 203 916 q 641 1042 463 1042 q 949 978 819 1042 q 1149 797 1079 915 q 1219 514 1219 678 q 1149 232 1219 351 q 948 49 1078 113 q 641 -14 818 -14 m 641 213 q 850 288 778 213 q 923 509 923 363 q 850 738 923 661 q 641 815 776 815 q 433 741 506 815 q 359 519 359 666 q 431 289 359 365 q 641 213 503 213 m 985 1104 l 759 1104 l 641 1219 l 523 1104 l 297 1104 l 523 1319 l 759 1319 l 985 1104 z "},"Ố":{"ha":1283,"x_min":64,"x_max":1219,"o":"m 641 -14 q 334 49 464 -14 q 134 231 203 112 q 64 514 64 349 q 134 797 64 678 q 333 979 203 916 q 641 1042 463 1042 q 949 978 819 1042 q 1149 797 1079 915 q 1219 514 1219 678 q 1149 232 1219 351 q 948 49 1078 113 q 641 -14 818 -14 m 641 213 q 850 288 778 213 q 923 509 923 363 q 850 738 923 661 q 641 815 776 815 q 433 741 506 815 q 359 519 359 666 q 431 289 359 365 q 641 213 503 213 m 922 1433 l 1119 1433 l 999 1266 l 838 1266 l 922 1433 m 523 1293 l 759 1293 l 985 1104 l 759 1104 l 641 1206 l 523 1104 l 297 1104 l 523 1293 z "},"Ộ":{"ha":1283,"x_min":64,"x_max":1219,"o":"m 641 -14 q 334 49 464 -14 q 134 231 203 112 q 64 514 64 349 q 134 797 64 678 q 333 979 203 916 q 641 1042 463 1042 q 949 978 819 1042 q 1149 797 1079 915 q 1219 514 1219 678 q 1149 232 1219 351 q 948 49 1078 113 q 641 -14 818 -14 m 641 213 q 850 288 778 213 q 923 509 923 363 q 850 738 923 661 q 641 815 776 815 q 433 741 506 815 q 359 519 359 666 q 431 289 359 365 q 641 213 503 213 m 641 -307 q 516 -277 556 -307 q 475 -194 475 -247 q 516 -110 475 -141 q 641 -80 556 -80 q 766 -110 726 -80 q 807 -194 807 -141 q 766 -277 807 -247 q 641 -307 726 -307 m 985 1104 l 759 1104 l 641 1219 l 523 1104 l 297 1104 l 523 1319 l 759 1319 l 985 1104 z "},"Ồ":{"ha":1283,"x_min":64,"x_max":1219,"o":"m 641 -14 q 334 49 464 -14 q 134 231 203 112 q 64 514 64 349 q 134 797 64 678 q 333 979 203 916 q 641 1042 463 1042 q 949 978 819 1042 q 1149 797 1079 915 q 1219 514 1219 678 q 1149 232 1219 351 q 948 49 1078 113 q 641 -14 818 -14 m 641 213 q 850 288 778 213 q 923 509 923 363 q 850 738 923 661 q 641 815 776 815 q 433 741 506 815 q 359 519 359 666 q 431 289 359 365 q 641 213 503 213 m 1025 1266 l 863 1266 l 743 1433 l 940 1433 l 1025 1266 m 523 1293 l 759 1293 l 985 1104 l 759 1104 l 641 1206 l 523 1104 l 297 1104 l 523 1293 z "},"Ổ":{"ha":1283,"x_min":64,"x_max":1219,"o":"m 641 -14 q 334 49 464 -14 q 134 231 203 112 q 64 514 64 349 q 134 797 64 678 q 333 979 203 916 q 641 1042 463 1042 q 949 978 819 1042 q 1149 797 1079 915 q 1219 514 1219 678 q 1149 232 1219 351 q 948 49 1078 113 q 641 -14 818 -14 m 641 213 q 850 288 778 213 q 923 509 923 363 q 850 738 923 661 q 641 815 776 815 q 433 741 506 815 q 359 519 359 666 q 431 289 359 365 q 641 213 503 213 m 902 1469 q 1103 1382 1103 1469 q 1082 1335 1103 1353 q 1020 1301 1060 1318 q 984 1282 995 1289 q 972 1266 973 1275 l 836 1266 q 858 1305 838 1291 q 916 1334 878 1319 q 952 1350 940 1343 q 964 1367 964 1358 q 882 1386 964 1386 q 738 1372 813 1386 l 738 1453 q 817 1465 772 1460 q 902 1469 863 1469 m 523 1293 l 759 1293 l 985 1104 l 759 1104 l 641 1206 l 523 1104 l 297 1104 l 523 1293 z "},"Ỗ":{"ha":1283,"x_min":64,"x_max":1219,"o":"m 641 -14 q 334 49 464 -14 q 134 231 203 112 q 64 514 64 349 q 134 797 64 678 q 333 979 203 916 q 641 1042 463 1042 q 949 978 819 1042 q 1149 797 1079 915 q 1219 514 1219 678 q 1149 232 1219 351 q 948 49 1078 113 q 641 -14 818 -14 m 641 213 q 850 288 778 213 q 923 509 923 363 q 850 738 923 661 q 641 815 776 815 q 433 741 506 815 q 359 519 359 666 q 431 289 359 365 q 641 213 503 213 m 795 1428 q 885 1438 843 1428 q 985 1474 928 1448 l 985 1366 q 893 1332 936 1340 q 793 1323 849 1323 q 714 1328 751 1323 q 623 1344 677 1333 q 548 1359 578 1354 q 487 1363 517 1363 q 397 1353 439 1363 q 297 1317 354 1343 l 297 1425 q 390 1460 347 1451 q 489 1469 434 1469 q 566 1464 531 1469 q 659 1447 601 1459 q 733 1433 702 1438 q 795 1428 764 1428 m 523 1293 l 759 1293 l 985 1104 l 759 1104 l 641 1206 l 523 1104 l 297 1104 l 523 1293 z "},"Ȍ":{"ha":1283,"x_min":64,"x_max":1219,"o":"m 641 -14 q 334 49 464 -14 q 134 231 203 112 q 64 514 64 349 q 134 797 64 678 q 333 979 203 916 q 641 1042 463 1042 q 949 978 819 1042 q 1149 797 1079 915 q 1219 514 1219 678 q 1149 232 1219 351 q 948 49 1078 113 q 641 -14 818 -14 m 641 213 q 850 288 778 213 q 923 509 923 363 q 850 738 923 661 q 641 815 776 815 q 433 741 506 815 q 359 519 359 666 q 431 289 359 365 q 641 213 503 213 m 384 1104 l 256 1319 l 470 1319 l 584 1104 l 384 1104 m 698 1104 l 570 1319 l 785 1319 l 898 1104 l 698 1104 z "},"Ö":{"ha":1283,"x_min":64,"x_max":1219,"o":"m 641 -14 q 334 49 464 -14 q 134 231 203 112 q 64 514 64 349 q 134 797 64 678 q 333 979 203 916 q 641 1042 463 1042 q 949 978 819 1042 q 1149 797 1079 915 q 1219 514 1219 678 q 1149 232 1219 351 q 948 49 1078 113 q 641 -14 818 -14 m 641 213 q 850 288 778 213 q 923 509 923 363 q 850 738 923 661 q 641 815 776 815 q 433 741 506 815 q 359 519 359 666 q 431 289 359 365 q 641 213 503 213 m 439 1102 q 332 1132 367 1102 q 297 1215 297 1161 q 332 1300 297 1270 q 439 1329 367 1329 q 546 1300 511 1329 q 581 1215 581 1270 q 546 1132 581 1161 q 439 1102 511 1102 m 843 1102 q 736 1132 771 1102 q 701 1215 701 1161 q 736 1300 701 1270 q 843 1329 771 1329 q 950 1300 915 1329 q 985 1215 985 1270 q 950 1132 985 1161 q 843 1102 915 1102 z "},"Ȫ":{"ha":1283,"x_min":64,"x_max":1219,"o":"m 641 -14 q 334 49 464 -14 q 134 231 203 112 q 64 514 64 349 q 134 797 64 678 q 333 979 203 916 q 641 1042 463 1042 q 949 978 819 1042 q 1149 797 1079 915 q 1219 514 1219 678 q 1149 232 1219 351 q 948 49 1078 113 q 641 -14 818 -14 m 641 213 q 850 288 778 213 q 923 509 923 363 q 850 738 923 661 q 641 815 776 815 q 433 741 506 815 q 359 519 359 666 q 431 289 359 365 q 641 213 503 213 m 439 1102 q 332 1132 367 1102 q 297 1215 297 1161 q 332 1300 297 1270 q 439 1329 367 1329 q 546 1300 511 1329 q 581 1215 581 1270 q 546 1132 581 1161 q 439 1102 511 1102 m 843 1102 q 736 1132 771 1102 q 701 1215 701 1161 q 736 1300 701 1270 q 843 1329 771 1329 q 950 1300 915 1329 q 985 1215 985 1270 q 950 1132 985 1161 q 843 1102 915 1102 m 347 1399 l 347 1555 l 935 1555 l 935 1399 l 347 1399 z "},"Ȱ":{"ha":1283,"x_min":64,"x_max":1219,"o":"m 641 -14 q 334 49 464 -14 q 134 231 203 112 q 64 514 64 349 q 134 797 64 678 q 333 979 203 916 q 641 1042 463 1042 q 949 978 819 1042 q 1149 797 1079 915 q 1219 514 1219 678 q 1149 232 1219 351 q 948 49 1078 113 q 641 -14 818 -14 m 641 213 q 850 288 778 213 q 923 509 923 363 q 850 738 923 661 q 641 815 776 815 q 433 741 506 815 q 359 519 359 666 q 431 289 359 365 q 641 213 503 213 m 641 1102 q 516 1132 556 1102 q 475 1215 475 1163 q 516 1299 475 1269 q 641 1329 556 1329 q 766 1299 726 1329 q 807 1215 807 1269 q 766 1132 807 1163 q 641 1102 726 1102 m 347 1399 l 347 1555 l 935 1555 l 935 1399 l 347 1399 z "},"Ọ":{"ha":1283,"x_min":64,"x_max":1219,"o":"m 641 -14 q 334 49 464 -14 q 134 231 203 112 q 64 514 64 349 q 134 797 64 678 q 333 979 203 916 q 641 1042 463 1042 q 949 978 819 1042 q 1149 797 1079 915 q 1219 514 1219 678 q 1149 232 1219 351 q 948 49 1078 113 q 641 -14 818 -14 m 641 213 q 850 288 778 213 q 923 509 923 363 q 850 738 923 661 q 641 815 776 815 q 433 741 506 815 q 359 519 359 666 q 431 289 359 365 q 641 213 503 213 m 641 -307 q 516 -277 556 -307 q 475 -194 475 -247 q 516 -110 475 -141 q 641 -80 556 -80 q 766 -110 726 -80 q 807 -194 807 -141 q 766 -277 807 -247 q 641 -307 726 -307 z "},"Ò":{"ha":1283,"x_min":64,"x_max":1219,"o":"m 641 -14 q 334 49 464 -14 q 134 231 203 112 q 64 514 64 349 q 134 797 64 678 q 333 979 203 916 q 641 1042 463 1042 q 949 978 819 1042 q 1149 797 1079 915 q 1219 514 1219 678 q 1149 232 1219 351 q 948 49 1078 113 q 641 -14 818 -14 m 641 213 q 850 288 778 213 q 923 509 923 363 q 850 738 923 661 q 641 815 776 815 q 433 741 506 815 q 359 519 359 666 q 431 289 359 365 q 641 213 503 213 m 513 1104 l 327 1319 l 626 1319 l 769 1104 l 513 1104 z "},"Ỏ":{"ha":1283,"x_min":64,"x_max":1219,"o":"m 641 -14 q 334 49 464 -14 q 134 231 203 112 q 64 514 64 349 q 134 797 64 678 q 333 979 203 916 q 641 1042 463 1042 q 949 978 819 1042 q 1149 797 1079 915 q 1219 514 1219 678 q 1149 232 1219 351 q 948 49 1078 113 q 641 -14 818 -14 m 641 213 q 850 288 778 213 q 923 509 923 363 q 850 738 923 661 q 641 815 776 815 q 433 741 506 815 q 359 519 359 666 q 431 289 359 365 q 641 213 503 213 m 573 1104 q 595 1149 574 1132 q 653 1181 617 1165 q 690 1200 678 1192 q 701 1218 701 1208 q 681 1235 701 1229 q 619 1240 660 1240 q 475 1225 549 1240 l 475 1319 q 554 1332 509 1327 q 640 1336 599 1336 q 791 1311 742 1336 q 840 1238 840 1285 q 818 1184 840 1204 q 756 1144 796 1164 q 721 1123 732 1131 q 708 1104 710 1115 l 573 1104 z "},"Ơ":{"ha":1283,"x_min":64,"x_max":1228,"o":"m 1056 908 q 1177 741 1135 841 q 1219 514 1219 641 q 1149 231 1219 350 q 948 49 1078 112 q 641 -14 818 -14 q 334 49 464 -14 q 134 231 203 112 q 64 514 64 349 q 134 797 64 678 q 333 979 203 916 q 641 1042 463 1042 q 721 1038 677 1042 q 774 1034 765 1035 q 894 1027 860 1027 q 1009 1052 972 1027 q 1045 1136 1045 1076 q 1035 1233 1045 1178 l 1215 1233 q 1228 1128 1228 1183 q 1183 980 1228 1036 q 1056 908 1138 924 m 641 213 q 850 288 778 213 q 923 509 923 363 q 850 738 923 661 q 641 815 776 815 q 433 741 506 815 q 359 519 359 666 q 431 289 359 365 q 641 213 503 213 z "},"Ớ":{"ha":1283,"x_min":64,"x_max":1228,"o":"m 1056 908 q 1177 741 1135 841 q 1219 514 1219 641 q 1149 231 1219 350 q 948 49 1078 112 q 641 -14 818 -14 q 334 49 464 -14 q 134 231 203 112 q 64 514 64 349 q 134 797 64 678 q 333 979 203 916 q 641 1042 463 1042 q 721 1038 677 1042 q 774 1034 765 1035 q 894 1027 860 1027 q 1009 1052 972 1027 q 1045 1136 1045 1076 q 1035 1233 1045 1178 l 1215 1233 q 1228 1128 1228 1183 q 1183 980 1228 1036 q 1056 908 1138 924 m 641 213 q 850 288 778 213 q 923 509 923 363 q 850 738 923 661 q 641 815 776 815 q 433 741 506 815 q 359 519 359 666 q 431 289 359 365 q 641 213 503 213 m 510 1104 l 653 1319 l 953 1319 l 767 1104 l 510 1104 z "},"Ợ":{"ha":1283,"x_min":64,"x_max":1228,"o":"m 1056 908 q 1177 741 1135 841 q 1219 514 1219 641 q 1149 231 1219 350 q 948 49 1078 112 q 641 -14 818 -14 q 334 49 464 -14 q 134 231 203 112 q 64 514 64 349 q 134 797 64 678 q 333 979 203 916 q 641 1042 463 1042 q 721 1038 677 1042 q 774 1034 765 1035 q 894 1027 860 1027 q 1009 1052 972 1027 q 1045 1136 1045 1076 q 1035 1233 1045 1178 l 1215 1233 q 1228 1128 1228 1183 q 1183 980 1228 1036 q 1056 908 1138 924 m 641 213 q 850 288 778 213 q 923 509 923 363 q 850 738 923 661 q 641 815 776 815 q 433 741 506 815 q 359 519 359 666 q 431 289 359 365 q 641 213 503 213 m 641 -307 q 516 -277 556 -307 q 475 -194 475 -247 q 516 -110 475 -141 q 641 -80 556 -80 q 766 -110 726 -80 q 807 -194 807 -141 q 766 -277 807 -247 q 641 -307 726 -307 z "},"Ờ":{"ha":1283,"x_min":64,"x_max":1228,"o":"m 1056 908 q 1177 741 1135 841 q 1219 514 1219 641 q 1149 231 1219 350 q 948 49 1078 112 q 641 -14 818 -14 q 334 49 464 -14 q 134 231 203 112 q 64 514 64 349 q 134 797 64 678 q 333 979 203 916 q 641 1042 463 1042 q 721 1038 677 1042 q 774 1034 765 1035 q 894 1027 860 1027 q 1009 1052 972 1027 q 1045 1136 1045 1076 q 1035 1233 1045 1178 l 1215 1233 q 1228 1128 1228 1183 q 1183 980 1228 1036 q 1056 908 1138 924 m 641 213 q 850 288 778 213 q 923 509 923 363 q 850 738 923 661 q 641 815 776 815 q 433 741 506 815 q 359 519 359 666 q 431 289 359 365 q 641 213 503 213 m 513 1104 l 327 1319 l 626 1319 l 769 1104 l 513 1104 z "},"Ở":{"ha":1283,"x_min":64,"x_max":1228,"o":"m 1056 908 q 1177 741 1135 841 q 1219 514 1219 641 q 1149 231 1219 350 q 948 49 1078 112 q 641 -14 818 -14 q 334 49 464 -14 q 134 231 203 112 q 64 514 64 349 q 134 797 64 678 q 333 979 203 916 q 641 1042 463 1042 q 721 1038 677 1042 q 774 1034 765 1035 q 894 1027 860 1027 q 1009 1052 972 1027 q 1045 1136 1045 1076 q 1035 1233 1045 1178 l 1215 1233 q 1228 1128 1228 1183 q 1183 980 1228 1036 q 1056 908 1138 924 m 641 213 q 850 288 778 213 q 923 509 923 363 q 850 738 923 661 q 641 815 776 815 q 433 741 506 815 q 359 519 359 666 q 431 289 359 365 q 641 213 503 213 m 573 1104 q 595 1149 574 1132 q 653 1181 617 1165 q 690 1200 678 1192 q 701 1218 701 1208 q 681 1235 701 1229 q 619 1240 660 1240 q 475 1225 549 1240 l 475 1319 q 554 1332 509 1327 q 640 1336 599 1336 q 791 1311 742 1336 q 840 1238 840 1285 q 818 1184 840 1204 q 756 1144 796 1164 q 721 1123 732 1131 q 708 1104 710 1115 l 573 1104 z "},"Ỡ":{"ha":1283,"x_min":64,"x_max":1228,"o":"m 775 1113 q 707 1119 738 1113 q 630 1138 676 1125 q 560 1157 588 1151 q 500 1163 531 1163 q 418 1152 453 1163 q 344 1117 382 1142 l 344 1263 q 415 1301 376 1289 q 508 1314 454 1314 q 576 1307 544 1314 q 653 1287 607 1301 q 722 1269 693 1275 q 782 1263 751 1263 q 865 1273 829 1263 q 939 1308 901 1283 l 939 1163 q 868 1124 906 1136 q 775 1113 829 1113 m 1056 908 q 1177 741 1135 841 q 1219 514 1219 641 q 1149 231 1219 350 q 948 49 1078 112 q 641 -14 818 -14 q 334 49 464 -14 q 134 231 203 112 q 64 514 64 349 q 134 797 64 678 q 333 979 203 916 q 641 1042 463 1042 q 721 1038 677 1042 q 774 1034 765 1035 q 894 1027 860 1027 q 1009 1052 972 1027 q 1045 1136 1045 1076 q 1035 1233 1045 1178 l 1215 1233 q 1228 1128 1228 1183 q 1183 980 1228 1036 q 1056 908 1138 924 m 641 213 q 850 288 778 213 q 923 509 923 363 q 850 738 923 661 q 641 815 776 815 q 433 741 506 815 q 359 519 359 666 q 431 289 359 365 q 641 213 503 213 z "},"Ő":{"ha":1283,"x_min":64,"x_max":1219,"o":"m 641 -14 q 334 49 464 -14 q 134 231 203 112 q 64 514 64 349 q 134 797 64 678 q 333 979 203 916 q 641 1042 463 1042 q 949 978 819 1042 q 1149 797 1079 915 q 1219 514 1219 678 q 1149 232 1219 351 q 948 49 1078 113 q 641 -14 818 -14 m 641 213 q 850 288 778 213 q 923 509 923 363 q 850 738 923 661 q 641 815 776 815 q 433 741 506 815 q 359 519 359 666 q 431 289 359 365 q 641 213 503 213 m 384 1104 l 497 1319 l 712 1319 l 584 1104 l 384 1104 m 698 1104 l 812 1319 l 1026 1319 l 898 1104 l 698 1104 z "},"Ȏ":{"ha":1283,"x_min":64,"x_max":1219,"o":"m 641 -14 q 334 49 464 -14 q 134 231 203 112 q 64 514 64 349 q 134 797 64 678 q 333 979 203 916 q 641 1042 463 1042 q 949 978 819 1042 q 1149 797 1079 915 q 1219 514 1219 678 q 1149 232 1219 351 q 948 49 1078 113 q 641 -14 818 -14 m 641 213 q 850 288 778 213 q 923 509 923 363 q 850 738 923 661 q 641 815 776 815 q 433 741 506 815 q 359 519 359 666 q 431 289 359 365 q 641 213 503 213 m 321 1107 q 415 1260 337 1202 q 641 1318 494 1318 q 866 1260 788 1318 q 961 1107 945 1202 l 792 1107 q 744 1166 781 1144 q 641 1188 708 1188 q 490 1107 513 1188 l 321 1107 z "},"Ō":{"ha":1283,"x_min":64,"x_max":1219,"o":"m 641 -14 q 334 49 464 -14 q 134 231 203 112 q 64 514 64 349 q 134 797 64 678 q 333 979 203 916 q 641 1042 463 1042 q 949 978 819 1042 q 1149 797 1079 915 q 1219 514 1219 678 q 1149 232 1219 351 q 948 49 1078 113 q 641 -14 818 -14 m 641 213 q 850 288 778 213 q 923 509 923 363 q 850 738 923 661 q 641 815 776 815 q 433 741 506 815 q 359 519 359 666 q 431 289 359 365 q 641 213 503 213 m 347 1135 l 347 1290 l 935 1290 l 935 1135 l 347 1135 z "},"Ṓ":{"ha":1283,"x_min":64,"x_max":1219,"o":"m 641 -14 q 334 49 464 -14 q 134 231 203 112 q 64 514 64 349 q 134 797 64 678 q 333 979 203 916 q 641 1042 463 1042 q 949 978 819 1042 q 1149 797 1079 915 q 1219 514 1219 678 q 1149 232 1219 351 q 948 49 1078 113 q 641 -14 818 -14 m 641 213 q 850 288 778 213 q 923 509 923 363 q 850 738 923 661 q 641 815 776 815 q 433 741 506 815 q 359 519 359 666 q 431 289 359 365 q 641 213 503 213 m 494 1369 l 638 1531 l 973 1531 l 788 1369 l 494 1369 m 347 1135 l 347 1290 l 935 1290 l 935 1135 l 347 1135 z "},"Ṑ":{"ha":1283,"x_min":64,"x_max":1219,"o":"m 641 -14 q 334 49 464 -14 q 134 231 203 112 q 64 514 64 349 q 134 797 64 678 q 333 979 203 916 q 641 1042 463 1042 q 949 978 819 1042 q 1149 797 1079 915 q 1219 514 1219 678 q 1149 232 1219 351 q 948 49 1078 113 q 641 -14 818 -14 m 641 213 q 850 288 778 213 q 923 509 923 363 q 850 738 923 661 q 641 815 776 815 q 433 741 506 815 q 359 519 359 666 q 431 289 359 365 q 641 213 503 213 m 494 1369 l 309 1531 l 644 1531 l 788 1369 l 494 1369 m 347 1135 l 347 1290 l 935 1290 l 935 1135 l 347 1135 z "},"Ǫ":{"ha":1283,"x_min":64,"x_max":1219,"o":"m 822 6 q 622 -140 622 -41 q 648 -191 622 -173 q 726 -210 674 -210 q 824 -191 768 -210 l 824 -292 q 684 -314 756 -314 q 520 -273 576 -314 q 464 -162 464 -233 q 558 -10 464 -67 q 294 70 405 3 q 123 249 183 136 q 64 514 64 363 q 134 797 64 678 q 333 979 203 916 q 641 1042 463 1042 q 949 979 819 1042 q 1149 797 1079 916 q 1219 514 1219 678 q 1166 265 1219 370 q 1024 95 1113 159 q 822 6 935 31 m 359 519 q 431 289 359 365 q 641 213 503 213 q 850 288 778 213 q 923 509 923 363 q 850 738 923 661 q 641 815 776 815 q 433 741 506 815 q 359 519 359 666 z "},"Ø":{"ha":1283,"x_min":64,"x_max":1219,"o":"m 1081 885 q 1184 724 1149 817 q 1219 514 1219 630 q 1149 232 1219 351 q 948 49 1078 113 q 641 -14 818 -14 q 316 58 453 -14 l 227 -38 l 122 57 l 201 142 q 99 304 134 210 q 64 514 64 398 q 134 797 64 678 q 333 979 203 916 q 641 1042 463 1042 q 966 970 831 1042 l 1055 1066 l 1160 971 l 1081 885 m 359 519 q 392 348 359 417 l 792 782 q 641 815 730 815 q 433 741 506 815 q 359 519 359 666 m 641 213 q 850 288 778 213 q 923 509 923 363 q 890 678 923 608 l 489 245 q 641 213 550 213 z "},"Ǿ":{"ha":1283,"x_min":64,"x_max":1219,"o":"m 1081 885 q 1184 724 1149 817 q 1219 514 1219 630 q 1149 232 1219 351 q 948 49 1078 113 q 641 -14 818 -14 q 316 58 453 -14 l 227 -38 l 122 57 l 201 142 q 99 304 134 210 q 64 514 64 398 q 134 797 64 678 q 333 979 203 916 q 641 1042 463 1042 q 966 970 831 1042 l 1055 1066 l 1160 971 l 1081 885 m 359 519 q 392 348 359 417 l 792 782 q 641 815 730 815 q 433 741 506 815 q 359 519 359 666 m 641 213 q 850 288 778 213 q 923 509 923 363 q 890 678 923 608 l 489 245 q 641 213 550 213 m 507 1104 l 651 1319 l 950 1319 l 765 1104 l 507 1104 z "},"Õ":{"ha":1283,"x_min":64,"x_max":1219,"o":"m 641 -14 q 334 49 464 -14 q 134 231 203 112 q 64 514 64 349 q 134 797 64 678 q 333 979 203 916 q 641 1042 463 1042 q 949 978 819 1042 q 1149 797 1079 915 q 1219 514 1219 678 q 1149 232 1219 351 q 948 49 1078 113 q 641 -14 818 -14 m 641 213 q 850 288 778 213 q 923 509 923 363 q 850 738 923 661 q 641 815 776 815 q 433 741 506 815 q 359 519 359 666 q 431 289 359 365 q 641 213 503 213 m 775 1113 q 705 1119 738 1113 q 629 1139 673 1126 q 559 1157 587 1151 q 500 1163 531 1163 q 417 1152 453 1163 q 343 1117 381 1141 l 343 1263 q 415 1301 376 1289 q 507 1314 453 1314 q 575 1307 544 1314 q 653 1287 607 1301 q 722 1269 693 1275 q 782 1263 751 1263 q 865 1273 828 1263 q 939 1308 901 1284 l 939 1163 q 867 1124 906 1136 q 775 1113 828 1113 z "},"Ṍ":{"ha":1283,"x_min":64,"x_max":1219,"o":"m 641 -14 q 334 49 464 -14 q 134 231 203 112 q 64 514 64 349 q 134 797 64 678 q 333 979 203 916 q 641 1042 463 1042 q 949 978 819 1042 q 1149 797 1079 915 q 1219 514 1219 678 q 1149 232 1219 351 q 948 49 1078 113 q 641 -14 818 -14 m 641 213 q 850 288 778 213 q 923 509 923 363 q 850 738 923 661 q 641 815 776 815 q 433 741 506 815 q 359 519 359 666 q 431 289 359 365 q 641 213 503 213 m 494 1369 l 638 1531 l 973 1531 l 788 1369 l 494 1369 m 775 1113 q 705 1119 738 1113 q 629 1139 673 1126 q 559 1157 587 1151 q 500 1163 531 1163 q 417 1152 453 1163 q 343 1117 381 1141 l 343 1263 q 415 1301 376 1289 q 507 1314 453 1314 q 575 1307 544 1314 q 653 1287 607 1301 q 722 1269 693 1275 q 782 1263 751 1263 q 865 1273 828 1263 q 939 1308 901 1284 l 939 1163 q 867 1124 906 1136 q 775 1113 828 1113 z "},"Ṏ":{"ha":1283,"x_min":64,"x_max":1219,"o":"m 641 -14 q 334 49 464 -14 q 134 231 203 112 q 64 514 64 349 q 134 797 64 678 q 333 979 203 916 q 641 1042 463 1042 q 949 978 819 1042 q 1149 797 1079 915 q 1219 514 1219 678 q 1149 232 1219 351 q 948 49 1078 113 q 641 -14 818 -14 m 641 213 q 850 288 778 213 q 923 509 923 363 q 850 738 923 661 q 641 815 776 815 q 433 741 506 815 q 359 519 359 666 q 431 289 359 365 q 641 213 503 213 m 775 1113 q 705 1119 738 1113 q 629 1139 673 1126 q 559 1157 587 1151 q 500 1163 531 1163 q 417 1152 453 1163 q 343 1117 381 1141 l 343 1263 q 415 1301 376 1289 q 507 1314 453 1314 q 575 1307 544 1314 q 653 1287 607 1301 q 722 1269 693 1275 q 782 1263 751 1263 q 865 1273 828 1263 q 939 1308 901 1284 l 939 1163 q 867 1124 906 1136 q 775 1113 828 1113 m 439 1367 q 332 1396 367 1367 q 297 1480 297 1426 q 332 1564 297 1535 q 439 1594 367 1594 q 546 1564 511 1594 q 581 1480 581 1535 q 546 1396 581 1426 q 439 1367 511 1367 m 843 1367 q 736 1396 771 1367 q 701 1480 701 1426 q 736 1564 701 1535 q 843 1594 771 1594 q 950 1564 915 1594 q 985 1480 985 1535 q 950 1396 985 1426 q 843 1367 915 1367 z "},"Ȭ":{"ha":1283,"x_min":64,"x_max":1219,"o":"m 641 -14 q 334 49 464 -14 q 134 231 203 112 q 64 514 64 349 q 134 797 64 678 q 333 979 203 916 q 641 1042 463 1042 q 949 978 819 1042 q 1149 797 1079 915 q 1219 514 1219 678 q 1149 232 1219 351 q 948 49 1078 113 q 641 -14 818 -14 m 641 213 q 850 288 778 213 q 923 509 923 363 q 850 738 923 661 q 641 815 776 815 q 433 741 506 815 q 359 519 359 666 q 431 289 359 365 q 641 213 503 213 m 775 1113 q 705 1119 738 1113 q 629 1139 673 1126 q 559 1157 587 1151 q 500 1163 531 1163 q 417 1152 453 1163 q 343 1117 381 1141 l 343 1263 q 415 1301 376 1289 q 507 1314 453 1314 q 575 1307 544 1314 q 653 1287 607 1301 q 722 1269 693 1275 q 782 1263 751 1263 q 865 1273 828 1263 q 939 1308 901 1284 l 939 1163 q 867 1124 906 1136 q 775 1113 828 1113 m 347 1399 l 347 1555 l 935 1555 l 935 1399 l 347 1399 z "},"Œ":{"ha":1714,"x_min":64,"x_max":1651,"o":"m 1651 215 l 1651 0 l 1026 0 q 946 -2 990 0 q 890 -5 903 -4 q 776 -9 808 -9 q 373 44 529 -9 q 140 213 216 98 q 64 514 64 328 q 238 910 64 782 q 763 1038 413 1038 q 887 1033 812 1038 q 943 1030 899 1032 q 1024 1028 987 1028 l 1644 1028 l 1644 813 l 1108 813 l 1108 633 l 1572 633 l 1572 417 l 1108 417 l 1108 215 l 1651 215 m 821 806 q 699 809 773 809 q 441 738 524 809 q 358 512 358 667 q 441 289 358 360 q 699 219 524 219 q 821 222 776 219 l 821 806 z "},"P":{"ha":1040,"x_min":99,"x_max":983,"o":"m 99 1008 q 463 1041 283 1041 q 855 949 726 1041 q 983 662 983 858 q 859 377 983 473 q 490 282 735 282 q 428 283 468 282 q 389 285 401 285 l 389 0 l 99 0 l 99 1008 m 492 483 q 613 501 567 483 q 681 558 658 519 q 703 662 703 597 q 652 798 703 755 q 490 840 601 840 q 389 833 434 840 l 389 490 q 492 483 435 483 z "},"Þ":{"ha":1047,"x_min":99,"x_max":983,"o":"m 99 1028 l 389 1028 l 389 903 q 469 907 448 907 q 856 815 729 907 q 983 528 983 724 q 860 244 983 340 q 492 149 736 149 q 420 150 467 149 l 389 151 l 389 0 l 99 0 l 99 1028 m 492 349 q 613 367 567 349 q 681 424 658 385 q 703 528 703 463 q 652 664 703 622 q 490 706 601 706 q 389 699 434 706 l 389 355 q 492 349 437 349 z "},"Q":{"ha":1283,"x_min":64,"x_max":1219,"o":"m 1219 514 q 1178 288 1219 388 q 1053 119 1137 188 q 844 24 969 51 q 1211 -37 1010 -15 l 1168 -253 q 503 -86 747 -194 q 162 167 260 22 q 64 502 64 312 q 134 794 64 672 q 333 978 203 915 q 641 1042 463 1042 q 949 979 819 1042 q 1149 797 1079 916 q 1219 514 1219 678 m 359 519 q 641 213 359 213 q 850 288 778 213 q 923 509 923 363 q 850 738 923 661 q 641 815 776 815 q 433 741 506 815 q 359 519 359 666 z "},"R":{"ha":1079,"x_min":99,"x_max":1072,"o":"m 753 0 l 488 357 q 383 361 456 357 l 383 0 l 99 0 l 99 997 q 284 1028 180 1016 q 477 1041 389 1041 q 848 958 724 1041 q 973 701 973 876 q 920 519 973 594 q 769 403 868 444 l 1072 0 l 753 0 m 383 567 q 506 559 447 559 q 656 592 608 559 q 704 700 704 626 q 655 808 704 774 q 503 842 606 842 q 383 830 444 842 l 383 567 z "},"Ŕ":{"ha":1079,"x_min":99,"x_max":1072,"o":"m 753 0 l 488 357 q 383 361 456 357 l 383 0 l 99 0 l 99 997 q 284 1028 180 1016 q 477 1041 389 1041 q 848 958 724 1041 q 973 701 973 876 q 920 519 973 594 q 769 403 868 444 l 1072 0 l 753 0 m 383 567 q 506 559 447 559 q 656 592 608 559 q 704 700 704 626 q 655 808 704 774 q 503 842 606 842 q 383 830 444 842 l 383 567 m 410 1104 l 553 1319 l 853 1319 l 667 1104 l 410 1104 z "},"Ř":{"ha":1079,"x_min":99,"x_max":1072,"o":"m 753 0 l 488 357 q 383 361 456 357 l 383 0 l 99 0 l 99 997 q 284 1028 180 1016 q 477 1041 389 1041 q 848 958 724 1041 q 973 701 973 876 q 920 519 973 594 q 769 403 868 444 l 1072 0 l 753 0 m 383 567 q 506 559 447 559 q 656 592 608 559 q 704 700 704 626 q 655 808 704 774 q 503 842 606 842 q 383 830 444 842 l 383 567 m 659 1319 l 885 1319 l 659 1104 l 423 1104 l 197 1319 l 423 1319 l 541 1205 l 659 1319 z "},"Ŗ":{"ha":1079,"x_min":99,"x_max":1072,"o":"m 753 0 l 488 357 q 383 361 456 357 l 383 0 l 99 0 l 99 997 q 284 1028 180 1016 q 477 1041 389 1041 q 848 958 724 1041 q 973 701 973 876 q 920 519 973 594 q 769 403 868 444 l 1072 0 l 753 0 m 383 567 q 506 559 447 559 q 656 592 608 559 q 704 700 704 626 q 655 808 704 774 q 503 842 606 842 q 383 830 444 842 l 383 567 m 558 -80 q 713 -194 713 -80 q 696 -279 713 -235 q 651 -354 679 -323 l 480 -354 q 508 -298 498 -322 q 522 -252 517 -274 q 432 -226 460 -247 q 405 -167 405 -204 q 558 -80 405 -80 z "},"Ȑ":{"ha":1079,"x_min":99,"x_max":1072,"o":"m 753 0 l 488 357 q 383 361 456 357 l 383 0 l 99 0 l 99 997 q 284 1028 180 1016 q 477 1041 389 1041 q 848 958 724 1041 q 973 701 973 876 q 920 519 973 594 q 769 403 868 444 l 1072 0 l 753 0 m 383 567 q 506 559 447 559 q 656 592 608 559 q 704 700 704 626 q 655 808 704 774 q 503 842 606 842 q 383 830 444 842 l 383 567 m 284 1104 l 156 1319 l 370 1319 l 484 1104 l 284 1104 m 598 1104 l 470 1319 l 685 1319 l 798 1104 l 598 1104 z "},"Ṛ":{"ha":1079,"x_min":99,"x_max":1072,"o":"m 753 0 l 488 357 q 383 361 456 357 l 383 0 l 99 0 l 99 997 q 284 1028 180 1016 q 477 1041 389 1041 q 848 958 724 1041 q 973 701 973 876 q 920 519 973 594 q 769 403 868 444 l 1072 0 l 753 0 m 383 567 q 506 559 447 559 q 656 592 608 559 q 704 700 704 626 q 655 808 704 774 q 503 842 606 842 q 383 830 444 842 l 383 567 m 559 -307 q 434 -277 474 -307 q 393 -194 393 -247 q 434 -110 393 -141 q 559 -80 474 -80 q 684 -110 644 -80 q 725 -194 725 -141 q 684 -277 725 -247 q 559 -307 644 -307 z "},"Ȓ":{"ha":1079,"x_min":99,"x_max":1072,"o":"m 753 0 l 488 357 q 383 361 456 357 l 383 0 l 99 0 l 99 997 q 284 1028 180 1016 q 477 1041 389 1041 q 848 958 724 1041 q 973 701 973 876 q 920 519 973 594 q 769 403 868 444 l 1072 0 l 753 0 m 383 567 q 506 559 447 559 q 656 592 608 559 q 704 700 704 626 q 655 808 704 774 q 503 842 606 842 q 383 830 444 842 l 383 567 m 221 1107 q 315 1260 237 1202 q 541 1318 394 1318 q 766 1260 688 1318 q 861 1107 845 1202 l 692 1107 q 644 1166 681 1144 q 541 1188 608 1188 q 390 1107 413 1188 l 221 1107 z "},"Ṟ":{"ha":1079,"x_min":99,"x_max":1072,"o":"m 753 0 l 488 357 q 383 361 456 357 l 383 0 l 99 0 l 99 997 q 284 1028 180 1016 q 477 1041 389 1041 q 848 958 724 1041 q 973 701 973 876 q 920 519 973 594 q 769 403 868 444 l 1072 0 l 753 0 m 383 567 q 506 559 447 559 q 656 592 608 559 q 704 700 704 626 q 655 808 704 774 q 503 842 606 842 q 383 830 444 842 l 383 567 m 265 -265 l 265 -110 l 853 -110 l 853 -265 l 265 -265 z "},"S":{"ha":935,"x_min":48,"x_max":887,"o":"m 417 -14 q 75 34 235 -14 l 75 260 q 243 222 145 236 q 420 208 340 208 q 561 232 521 208 q 602 301 602 255 q 590 343 602 326 q 549 371 578 359 q 465 393 519 383 l 372 411 q 185 474 256 433 q 81 574 114 515 q 48 717 48 634 q 173 958 48 874 q 544 1042 298 1042 q 829 1009 700 1042 l 829 783 q 700 809 774 799 q 552 819 625 819 q 383 795 432 819 q 333 726 333 771 q 343 688 333 703 q 378 661 353 672 q 449 641 403 651 l 541 623 q 743 557 667 599 q 853 456 819 515 q 887 315 887 397 q 830 140 887 214 q 668 26 774 65 q 417 -14 562 -14 z "},"Ś":{"ha":935,"x_min":48,"x_max":887,"o":"m 417 -14 q 75 34 235 -14 l 75 260 q 243 222 145 236 q 420 208 340 208 q 561 232 521 208 q 602 301 602 255 q 590 343 602 326 q 549 371 578 359 q 465 393 519 383 l 372 411 q 185 474 256 433 q 81 574 114 515 q 48 717 48 634 q 173 958 48 874 q 544 1042 298 1042 q 829 1009 700 1042 l 829 783 q 700 809 774 799 q 552 819 625 819 q 383 795 432 819 q 333 726 333 771 q 343 688 333 703 q 378 661 353 672 q 449 641 403 651 l 541 623 q 743 557 667 599 q 853 456 819 515 q 887 315 887 397 q 830 140 887 214 q 668 26 774 65 q 417 -14 562 -14 m 346 1104 l 490 1319 l 789 1319 l 603 1104 l 346 1104 z "},"Ṥ":{"ha":935,"x_min":48,"x_max":887,"o":"m 417 -14 q 75 34 235 -14 l 75 260 q 243 222 145 236 q 420 208 340 208 q 561 232 521 208 q 602 301 602 255 q 590 343 602 326 q 549 371 578 359 q 465 393 519 383 l 372 411 q 185 474 256 433 q 81 574 114 515 q 48 717 48 634 q 173 958 48 874 q 544 1042 298 1042 q 829 1009 700 1042 l 829 783 q 700 809 774 799 q 552 819 625 819 q 383 795 432 819 q 333 726 333 771 q 343 688 333 703 q 378 661 353 672 q 449 641 403 651 l 541 623 q 743 557 667 599 q 853 456 819 515 q 887 315 887 397 q 830 140 887 214 q 668 26 774 65 q 417 -14 562 -14 m 294 1292 q 193 1316 226 1292 q 160 1383 160 1341 q 193 1451 160 1426 q 294 1476 226 1476 q 395 1451 363 1476 q 428 1383 428 1426 q 395 1316 428 1341 q 294 1292 363 1292 m 346 1104 l 490 1319 l 789 1319 l 603 1104 l 346 1104 z "},"Š":{"ha":935,"x_min":48,"x_max":887,"o":"m 417 -14 q 75 34 235 -14 l 75 260 q 243 222 145 236 q 420 208 340 208 q 561 232 521 208 q 602 301 602 255 q 590 343 602 326 q 549 371 578 359 q 465 393 519 383 l 372 411 q 185 474 256 433 q 81 574 114 515 q 48 717 48 634 q 173 958 48 874 q 544 1042 298 1042 q 829 1009 700 1042 l 829 783 q 700 809 774 799 q 552 819 625 819 q 383 795 432 819 q 333 726 333 771 q 343 688 333 703 q 378 661 353 672 q 449 641 403 651 l 541 623 q 743 557 667 599 q 853 456 819 515 q 887 315 887 397 q 830 140 887 214 q 668 26 774 65 q 417 -14 562 -14 m 595 1319 l 821 1319 l 595 1104 l 359 1104 l 133 1319 l 359 1319 l 477 1205 l 595 1319 z "},"Ṧ":{"ha":935,"x_min":48,"x_max":887,"o":"m 417 -14 q 75 34 235 -14 l 75 260 q 243 222 145 236 q 420 208 340 208 q 561 232 521 208 q 602 301 602 255 q 590 343 602 326 q 549 371 578 359 q 465 393 519 383 l 372 411 q 185 474 256 433 q 81 574 114 515 q 48 717 48 634 q 173 958 48 874 q 544 1042 298 1042 q 829 1009 700 1042 l 829 783 q 700 809 774 799 q 552 819 625 819 q 383 795 432 819 q 333 726 333 771 q 343 688 333 703 q 378 661 353 672 q 449 641 403 651 l 541 623 q 743 557 667 599 q 853 456 819 515 q 887 315 887 397 q 830 140 887 214 q 668 26 774 65 q 417 -14 562 -14 m 477 1343 q 376 1368 408 1343 q 343 1435 343 1392 q 376 1502 343 1478 q 477 1527 409 1527 q 578 1502 545 1527 q 611 1435 611 1478 q 578 1368 611 1392 q 477 1343 546 1343 m 595 1319 l 821 1319 l 595 1104 l 359 1104 l 133 1319 l 359 1319 l 477 1205 l 595 1319 z "},"Ş":{"ha":935,"x_min":48,"x_max":887,"o":"m 887 315 q 844 159 887 227 q 719 48 801 91 q 524 -8 637 6 l 524 -54 q 627 -95 593 -63 q 660 -180 660 -128 q 607 -278 660 -243 q 451 -314 553 -314 q 295 -290 369 -314 l 295 -193 q 438 -215 362 -215 q 501 -205 480 -215 q 522 -172 522 -195 q 501 -136 522 -147 q 439 -126 481 -126 l 398 -126 l 398 -14 q 75 34 224 -11 l 75 260 q 243 222 145 236 q 420 208 340 208 q 561 232 521 208 q 602 301 602 255 q 590 343 602 326 q 549 371 578 359 q 465 393 519 383 l 372 411 q 185 474 256 433 q 81 574 114 515 q 48 717 48 634 q 173 958 48 874 q 544 1042 298 1042 q 829 1009 700 1042 l 829 783 q 700 809 774 799 q 552 819 625 819 q 383 795 432 819 q 333 726 333 771 q 343 688 333 703 q 378 661 353 672 q 449 641 403 651 l 541 623 q 743 557 667 599 q 853 456 819 515 q 887 315 887 397 z "},"Ŝ":{"ha":935,"x_min":48,"x_max":887,"o":"m 417 -14 q 75 34 235 -14 l 75 260 q 243 222 145 236 q 420 208 340 208 q 561 232 521 208 q 602 301 602 255 q 590 343 602 326 q 549 371 578 359 q 465 393 519 383 l 372 411 q 185 474 256 433 q 81 574 114 515 q 48 717 48 634 q 173 958 48 874 q 544 1042 298 1042 q 829 1009 700 1042 l 829 783 q 700 809 774 799 q 552 819 625 819 q 383 795 432 819 q 333 726 333 771 q 343 688 333 703 q 378 661 353 672 q 449 641 403 651 l 541 623 q 743 557 667 599 q 853 456 819 515 q 887 315 887 397 q 830 140 887 214 q 668 26 774 65 q 417 -14 562 -14 m 821 1104 l 595 1104 l 477 1219 l 359 1104 l 133 1104 l 359 1319 l 595 1319 l 821 1104 z "},"Ș":{"ha":935,"x_min":48,"x_max":887,"o":"m 417 -14 q 75 34 235 -14 l 75 260 q 243 222 145 236 q 420 208 340 208 q 561 232 521 208 q 602 301 602 255 q 590 343 602 326 q 549 371 578 359 q 465 393 519 383 l 372 411 q 185 474 256 433 q 81 574 114 515 q 48 717 48 634 q 173 958 48 874 q 544 1042 298 1042 q 829 1009 700 1042 l 829 783 q 700 809 774 799 q 552 819 625 819 q 383 795 432 819 q 333 726 333 771 q 343 688 333 703 q 378 661 353 672 q 449 641 403 651 l 541 623 q 743 557 667 599 q 853 456 819 515 q 887 315 887 397 q 830 140 887 214 q 668 26 774 65 q 417 -14 562 -14 m 476 -80 q 631 -194 631 -80 q 614 -279 631 -235 q 569 -354 597 -323 l 398 -354 q 426 -298 416 -322 q 440 -252 435 -274 q 350 -226 378 -247 q 323 -167 323 -204 q 476 -80 323 -80 z "},"Ṡ":{"ha":935,"x_min":48,"x_max":887,"o":"m 417 -14 q 75 34 235 -14 l 75 260 q 243 222 145 236 q 420 208 340 208 q 561 232 521 208 q 602 301 602 255 q 590 343 602 326 q 549 371 578 359 q 465 393 519 383 l 372 411 q 185 474 256 433 q 81 574 114 515 q 48 717 48 634 q 173 958 48 874 q 544 1042 298 1042 q 829 1009 700 1042 l 829 783 q 700 809 774 799 q 552 819 625 819 q 383 795 432 819 q 333 726 333 771 q 343 688 333 703 q 378 661 353 672 q 449 641 403 651 l 541 623 q 743 557 667 599 q 853 456 819 515 q 887 315 887 397 q 830 140 887 214 q 668 26 774 65 q 417 -14 562 -14 m 477 1102 q 352 1132 392 1102 q 311 1215 311 1163 q 352 1299 311 1269 q 477 1329 392 1329 q 602 1299 562 1329 q 643 1215 643 1269 q 602 1132 643 1163 q 477 1102 562 1102 z "},"Ṣ":{"ha":935,"x_min":48,"x_max":887,"o":"m 417 -14 q 75 34 235 -14 l 75 260 q 243 222 145 236 q 420 208 340 208 q 561 232 521 208 q 602 301 602 255 q 590 343 602 326 q 549 371 578 359 q 465 393 519 383 l 372 411 q 185 474 256 433 q 81 574 114 515 q 48 717 48 634 q 173 958 48 874 q 544 1042 298 1042 q 829 1009 700 1042 l 829 783 q 700 809 774 799 q 552 819 625 819 q 383 795 432 819 q 333 726 333 771 q 343 688 333 703 q 378 661 353 672 q 449 641 403 651 l 541 623 q 743 557 667 599 q 853 456 819 515 q 887 315 887 397 q 830 140 887 214 q 668 26 774 65 q 417 -14 562 -14 m 477 -307 q 352 -277 392 -307 q 311 -194 311 -247 q 352 -110 311 -141 q 477 -80 392 -80 q 602 -110 562 -80 q 643 -194 643 -141 q 602 -277 643 -247 q 477 -307 562 -307 z "},"Ṩ":{"ha":935,"x_min":48,"x_max":887,"o":"m 417 -14 q 75 34 235 -14 l 75 260 q 243 222 145 236 q 420 208 340 208 q 561 232 521 208 q 602 301 602 255 q 590 343 602 326 q 549 371 578 359 q 465 393 519 383 l 372 411 q 185 474 256 433 q 81 574 114 515 q 48 717 48 634 q 173 958 48 874 q 544 1042 298 1042 q 829 1009 700 1042 l 829 783 q 700 809 774 799 q 552 819 625 819 q 383 795 432 819 q 333 726 333 771 q 343 688 333 703 q 378 661 353 672 q 449 641 403 651 l 541 623 q 743 557 667 599 q 853 456 819 515 q 887 315 887 397 q 830 140 887 214 q 668 26 774 65 q 417 -14 562 -14 m 477 -307 q 352 -277 392 -307 q 311 -194 311 -247 q 352 -110 311 -141 q 477 -80 392 -80 q 602 -110 562 -80 q 643 -194 643 -141 q 602 -277 643 -247 q 477 -307 562 -307 m 477 1102 q 352 1132 392 1102 q 311 1215 311 1163 q 352 1299 311 1269 q 477 1329 392 1329 q 602 1299 562 1329 q 643 1215 643 1269 q 602 1132 643 1163 q 477 1102 562 1102 z "},"ẞ":{"ha":1461,"x_min":99,"x_max":1413,"o":"m 1081 623 q 1274 556 1201 598 q 1380 456 1347 515 q 1413 315 1413 397 q 1358 140 1413 214 q 1201 26 1303 65 q 956 -14 1098 -14 q 635 31 790 -14 l 635 257 q 794 222 702 235 q 954 208 887 208 q 1093 232 1053 208 q 1133 301 1133 255 q 1122 343 1133 326 q 1084 372 1110 360 q 1008 393 1057 383 l 920 411 q 741 474 810 434 q 641 574 673 515 q 610 717 610 634 q 623 813 610 770 q 570 818 597 818 q 434 769 480 818 q 389 628 389 721 l 389 0 l 99 0 l 99 594 q 216 925 99 809 q 570 1042 333 1042 q 806 997 700 1042 q 1090 1042 918 1042 q 1233 1033 1164 1042 q 1358 1011 1302 1025 l 1358 785 q 1236 810 1306 801 q 1103 819 1166 819 q 938 795 985 819 q 890 726 890 772 q 913 672 890 692 q 993 641 935 653 l 1081 623 z "},"Ə":{"ha":1263,"x_min":57,"x_max":1199,"o":"m 483 1042 q 1021 909 843 1042 q 1199 502 1199 776 q 1132 227 1199 343 q 939 48 1065 110 q 638 -14 813 -14 q 327 49 458 -14 q 127 230 197 111 q 57 512 57 348 l 57 597 l 904 597 q 764 765 874 714 q 463 817 655 817 q 298 808 385 817 q 137 785 211 800 l 137 1011 q 483 1042 300 1042 m 641 198 q 823 245 757 198 q 908 398 889 292 l 358 398 q 447 245 378 293 q 641 198 516 198 z "},"T":{"ha":1035,"x_min":15,"x_max":1021,"o":"m 372 0 l 372 802 l 15 802 l 15 1028 l 1021 1028 l 1021 802 l 663 802 l 663 0 l 372 0 z "},"Ŧ":{"ha":1035,"x_min":15,"x_max":1021,"o":"m 1021 802 l 663 802 l 663 582 l 895 582 l 895 410 l 663 410 l 663 0 l 372 0 l 372 410 l 142 410 l 142 582 l 372 582 l 372 802 l 15 802 l 15 1028 l 1021 1028 l 1021 802 z "},"Ť":{"ha":1035,"x_min":15,"x_max":1021,"o":"m 372 0 l 372 802 l 15 802 l 15 1028 l 1021 1028 l 1021 802 l 663 802 l 663 0 l 372 0 m 636 1319 l 862 1319 l 636 1104 l 400 1104 l 174 1319 l 400 1319 l 518 1205 l 636 1319 z "},"Ţ":{"ha":1035,"x_min":15,"x_max":1021,"o":"m 565 0 l 565 -54 q 668 -95 634 -63 q 701 -180 701 -128 q 648 -278 701 -243 q 492 -314 594 -314 q 336 -290 410 -314 l 336 -193 q 478 -215 403 -215 q 542 -205 521 -215 q 563 -172 563 -195 q 542 -136 563 -147 q 480 -126 522 -126 l 439 -126 l 439 0 l 372 0 l 372 802 l 15 802 l 15 1028 l 1021 1028 l 1021 802 l 663 802 l 663 0 l 565 0 z "},"Ț":{"ha":1035,"x_min":15,"x_max":1021,"o":"m 372 0 l 372 802 l 15 802 l 15 1028 l 1021 1028 l 1021 802 l 663 802 l 663 0 l 372 0 m 517 -80 q 672 -194 672 -80 q 655 -279 672 -235 q 610 -354 638 -323 l 439 -354 q 467 -298 457 -322 q 481 -252 476 -274 q 391 -226 419 -247 q 364 -167 364 -204 q 517 -80 364 -80 z "},"Ṭ":{"ha":1035,"x_min":15,"x_max":1021,"o":"m 372 0 l 372 802 l 15 802 l 15 1028 l 1021 1028 l 1021 802 l 663 802 l 663 0 l 372 0 m 518 -307 q 393 -277 433 -307 q 352 -194 352 -247 q 393 -110 352 -141 q 518 -80 433 -80 q 643 -110 603 -80 q 684 -194 684 -141 q 643 -277 684 -247 q 518 -307 603 -307 z "},"Ṯ":{"ha":1035,"x_min":15,"x_max":1021,"o":"m 372 0 l 372 802 l 15 802 l 15 1028 l 1021 1028 l 1021 802 l 663 802 l 663 0 l 372 0 m 224 -265 l 224 -110 l 813 -110 l 813 -265 l 224 -265 z "},"U":{"ha":1199,"x_min":94,"x_max":1104,"o":"m 602 -14 q 216 109 338 -14 q 94 469 94 232 l 94 1028 l 385 1028 l 385 446 q 438 272 385 328 q 602 217 492 217 q 765 272 712 217 q 819 446 819 328 l 819 1028 l 1104 1028 l 1104 469 q 983 109 1104 232 q 602 -14 862 -14 z "},"Ú":{"ha":1199,"x_min":94,"x_max":1104,"o":"m 602 -14 q 216 109 338 -14 q 94 469 94 232 l 94 1028 l 385 1028 l 385 446 q 438 272 385 328 q 602 217 492 217 q 765 272 712 217 q 819 446 819 328 l 819 1028 l 1104 1028 l 1104 469 q 983 109 1104 232 q 602 -14 862 -14 m 471 1104 l 615 1319 l 914 1319 l 728 1104 l 471 1104 z "},"Ŭ":{"ha":1199,"x_min":94,"x_max":1104,"o":"m 602 -14 q 216 109 338 -14 q 94 469 94 232 l 94 1028 l 385 1028 l 385 446 q 438 272 385 328 q 602 217 492 217 q 765 272 712 217 q 819 446 819 328 l 819 1028 l 1104 1028 l 1104 469 q 983 109 1104 232 q 602 -14 862 -14 m 602 1106 q 377 1164 456 1106 q 282 1317 298 1222 l 451 1317 q 499 1257 462 1279 q 602 1235 535 1235 q 753 1317 730 1235 l 922 1317 q 827 1164 906 1222 q 602 1106 749 1106 z "},"Û":{"ha":1199,"x_min":94,"x_max":1104,"o":"m 602 -14 q 216 109 338 -14 q 94 469 94 232 l 94 1028 l 385 1028 l 385 446 q 438 272 385 328 q 602 217 492 217 q 765 272 712 217 q 819 446 819 328 l 819 1028 l 1104 1028 l 1104 469 q 983 109 1104 232 q 602 -14 862 -14 m 946 1104 l 720 1104 l 602 1219 l 484 1104 l 258 1104 l 484 1319 l 720 1319 l 946 1104 z "},"Ȕ":{"ha":1199,"x_min":94,"x_max":1104,"o":"m 602 -14 q 216 109 338 -14 q 94 469 94 232 l 94 1028 l 385 1028 l 385 446 q 438 272 385 328 q 602 217 492 217 q 765 272 712 217 q 819 446 819 328 l 819 1028 l 1104 1028 l 1104 469 q 983 109 1104 232 q 602 -14 862 -14 m 345 1104 l 217 1319 l 431 1319 l 545 1104 l 345 1104 m 659 1104 l 531 1319 l 746 1319 l 859 1104 l 659 1104 z "},"Ü":{"ha":1199,"x_min":94,"x_max":1104,"o":"m 602 -14 q 216 109 338 -14 q 94 469 94 232 l 94 1028 l 385 1028 l 385 446 q 438 272 385 328 q 602 217 492 217 q 765 272 712 217 q 819 446 819 328 l 819 1028 l 1104 1028 l 1104 469 q 983 109 1104 232 q 602 -14 862 -14 m 400 1102 q 293 1132 328 1102 q 258 1215 258 1161 q 293 1300 258 1270 q 400 1329 328 1329 q 507 1300 472 1329 q 542 1215 542 1270 q 507 1132 542 1161 q 400 1102 472 1102 m 804 1102 q 697 1132 732 1102 q 662 1215 662 1161 q 697 1300 662 1270 q 804 1329 732 1329 q 911 1300 876 1329 q 946 1215 946 1270 q 911 1132 946 1161 q 804 1102 876 1102 z "},"Ụ":{"ha":1199,"x_min":94,"x_max":1104,"o":"m 602 -14 q 216 109 338 -14 q 94 469 94 232 l 94 1028 l 385 1028 l 385 446 q 438 272 385 328 q 602 217 492 217 q 765 272 712 217 q 819 446 819 328 l 819 1028 l 1104 1028 l 1104 469 q 983 109 1104 232 q 602 -14 862 -14 m 602 -307 q 477 -277 517 -307 q 436 -194 436 -247 q 477 -110 436 -141 q 602 -80 517 -80 q 727 -110 687 -80 q 768 -194 768 -141 q 727 -277 768 -247 q 602 -307 687 -307 z "},"Ù":{"ha":1199,"x_min":94,"x_max":1104,"o":"m 602 -14 q 216 109 338 -14 q 94 469 94 232 l 94 1028 l 385 1028 l 385 446 q 438 272 385 328 q 602 217 492 217 q 765 272 712 217 q 819 446 819 328 l 819 1028 l 1104 1028 l 1104 469 q 983 109 1104 232 q 602 -14 862 -14 m 474 1104 l 288 1319 l 588 1319 l 731 1104 l 474 1104 z "},"Ủ":{"ha":1199,"x_min":94,"x_max":1104,"o":"m 602 -14 q 216 109 338 -14 q 94 469 94 232 l 94 1028 l 385 1028 l 385 446 q 438 272 385 328 q 602 217 492 217 q 765 272 712 217 q 819 446 819 328 l 819 1028 l 1104 1028 l 1104 469 q 983 109 1104 232 q 602 -14 862 -14 m 534 1104 q 557 1149 535 1132 q 615 1181 578 1165 q 651 1200 640 1192 q 662 1218 662 1208 q 642 1235 662 1229 q 580 1240 622 1240 q 436 1225 510 1240 l 436 1319 q 515 1332 470 1327 q 601 1336 560 1336 q 752 1311 703 1336 q 801 1238 801 1285 q 779 1184 801 1204 q 717 1144 757 1164 q 682 1123 693 1131 q 669 1104 671 1115 l 534 1104 z "},"Ư":{"ha":1199,"x_min":94,"x_max":1238,"o":"m 602 -14 q 216 109 338 -14 q 94 469 94 232 l 94 1028 l 385 1028 l 385 446 q 438 272 385 328 q 602 217 492 217 q 765 272 712 217 q 819 446 819 328 l 819 1028 l 903 1028 q 1019 1052 983 1028 q 1055 1136 1055 1076 q 1045 1233 1055 1178 l 1224 1233 q 1235 1180 1233 1204 q 1238 1128 1238 1156 q 1203 996 1238 1049 q 1104 922 1169 944 l 1104 469 q 983 109 1104 232 q 602 -14 862 -14 z "},"Ứ":{"ha":1199,"x_min":94,"x_max":1238,"o":"m 602 -14 q 216 109 338 -14 q 94 469 94 232 l 94 1028 l 385 1028 l 385 446 q 438 272 385 328 q 602 217 492 217 q 765 272 712 217 q 819 446 819 328 l 819 1028 l 903 1028 q 1019 1052 983 1028 q 1055 1136 1055 1076 q 1045 1233 1055 1178 l 1224 1233 q 1235 1180 1233 1204 q 1238 1128 1238 1156 q 1203 996 1238 1049 q 1104 922 1169 944 l 1104 469 q 983 109 1104 232 q 602 -14 862 -14 m 468 1104 l 612 1319 l 911 1319 l 726 1104 l 468 1104 z "},"Ự":{"ha":1199,"x_min":94,"x_max":1238,"o":"m 602 -14 q 216 109 338 -14 q 94 469 94 232 l 94 1028 l 385 1028 l 385 446 q 438 272 385 328 q 602 217 492 217 q 765 272 712 217 q 819 446 819 328 l 819 1028 l 903 1028 q 1019 1052 983 1028 q 1055 1136 1055 1076 q 1045 1233 1055 1178 l 1224 1233 q 1235 1180 1233 1204 q 1238 1128 1238 1156 q 1203 996 1238 1049 q 1104 922 1169 944 l 1104 469 q 983 109 1104 232 q 602 -14 862 -14 m 599 -307 q 474 -277 515 -307 q 433 -194 433 -247 q 474 -110 433 -141 q 599 -80 515 -80 q 725 -110 684 -80 q 765 -194 765 -141 q 725 -277 765 -247 q 599 -307 684 -307 z "},"Ừ":{"ha":1199,"x_min":94,"x_max":1238,"o":"m 602 -14 q 216 109 338 -14 q 94 469 94 232 l 94 1028 l 385 1028 l 385 446 q 438 272 385 328 q 602 217 492 217 q 765 272 712 217 q 819 446 819 328 l 819 1028 l 903 1028 q 1019 1052 983 1028 q 1055 1136 1055 1076 q 1045 1233 1055 1178 l 1224 1233 q 1235 1180 1233 1204 q 1238 1128 1238 1156 q 1203 996 1238 1049 q 1104 922 1169 944 l 1104 469 q 983 109 1104 232 q 602 -14 862 -14 m 471 1104 l 285 1319 l 585 1319 l 728 1104 l 471 1104 z "},"Ử":{"ha":1199,"x_min":94,"x_max":1238,"o":"m 602 -14 q 216 109 338 -14 q 94 469 94 232 l 94 1028 l 385 1028 l 385 446 q 438 272 385 328 q 602 217 492 217 q 765 272 712 217 q 819 446 819 328 l 819 1028 l 903 1028 q 1019 1052 983 1028 q 1055 1136 1055 1076 q 1045 1233 1055 1178 l 1224 1233 q 1235 1180 1233 1204 q 1238 1128 1238 1156 q 1203 996 1238 1049 q 1104 922 1169 944 l 1104 469 q 983 109 1104 232 q 602 -14 862 -14 m 531 1104 q 554 1149 533 1132 q 612 1181 575 1165 q 648 1200 637 1192 q 659 1218 659 1208 q 639 1235 659 1229 q 577 1240 619 1240 q 433 1225 507 1240 l 433 1319 q 512 1332 467 1327 q 598 1336 557 1336 q 749 1311 700 1336 q 799 1238 799 1285 q 776 1184 799 1204 q 715 1144 754 1164 q 679 1123 690 1131 q 667 1104 668 1115 l 531 1104 z "},"Ữ":{"ha":1199,"x_min":94,"x_max":1238,"o":"m 602 -14 q 216 109 338 -14 q 94 469 94 232 l 94 1028 l 385 1028 l 385 446 q 438 272 385 328 q 602 217 492 217 q 765 272 712 217 q 819 446 819 328 l 819 1028 l 903 1028 q 1019 1052 983 1028 q 1055 1136 1055 1076 q 1045 1233 1055 1178 l 1224 1233 q 1235 1180 1233 1204 q 1238 1128 1238 1156 q 1203 996 1238 1049 q 1104 922 1169 944 l 1104 469 q 983 109 1104 232 q 602 -14 862 -14 m 733 1113 q 664 1119 696 1113 q 588 1139 631 1126 q 517 1157 545 1151 q 458 1163 490 1163 q 376 1152 412 1163 q 301 1117 340 1141 l 301 1263 q 373 1301 335 1289 q 465 1314 412 1314 q 534 1307 502 1314 q 611 1287 565 1301 q 680 1269 651 1275 q 740 1263 709 1263 q 823 1273 787 1263 q 897 1308 859 1284 l 897 1163 q 825 1124 864 1136 q 733 1113 787 1113 z "},"Ű":{"ha":1199,"x_min":94,"x_max":1104,"o":"m 602 -14 q 216 109 338 -14 q 94 469 94 232 l 94 1028 l 385 1028 l 385 446 q 438 272 385 328 q 602 217 492 217 q 765 272 712 217 q 819 446 819 328 l 819 1028 l 1104 1028 l 1104 469 q 983 109 1104 232 q 602 -14 862 -14 m 345 1104 l 458 1319 l 673 1319 l 545 1104 l 345 1104 m 659 1104 l 773 1319 l 988 1319 l 859 1104 l 659 1104 z "},"Ȗ":{"ha":1199,"x_min":94,"x_max":1104,"o":"m 602 -14 q 216 109 338 -14 q 94 469 94 232 l 94 1028 l 385 1028 l 385 446 q 438 272 385 328 q 602 217 492 217 q 765 272 712 217 q 819 446 819 328 l 819 1028 l 1104 1028 l 1104 469 q 983 109 1104 232 q 602 -14 862 -14 m 282 1107 q 376 1260 298 1202 q 602 1318 455 1318 q 827 1260 749 1318 q 922 1107 906 1202 l 753 1107 q 706 1166 742 1144 q 602 1188 669 1188 q 451 1107 474 1188 l 282 1107 z "},"Ū":{"ha":1199,"x_min":94,"x_max":1104,"o":"m 602 -14 q 216 109 338 -14 q 94 469 94 232 l 94 1028 l 385 1028 l 385 446 q 438 272 385 328 q 602 217 492 217 q 765 272 712 217 q 819 446 819 328 l 819 1028 l 1104 1028 l 1104 469 q 983 109 1104 232 q 602 -14 862 -14 m 308 1135 l 308 1290 l 897 1290 l 897 1135 l 308 1135 z "},"Ṻ":{"ha":1199,"x_min":94,"x_max":1104,"o":"m 602 -14 q 216 109 338 -14 q 94 469 94 232 l 94 1028 l 385 1028 l 385 446 q 438 272 385 328 q 602 217 492 217 q 765 272 712 217 q 819 446 819 328 l 819 1028 l 1104 1028 l 1104 469 q 983 109 1104 232 q 602 -14 862 -14 m 308 1135 l 308 1290 l 897 1290 l 897 1135 l 308 1135 m 400 1367 q 293 1396 328 1367 q 258 1480 258 1426 q 293 1564 258 1535 q 400 1594 328 1594 q 507 1564 472 1594 q 542 1480 542 1535 q 507 1396 542 1426 q 400 1367 472 1367 m 804 1367 q 697 1396 732 1367 q 662 1480 662 1426 q 697 1564 662 1535 q 804 1594 732 1594 q 911 1564 876 1594 q 946 1480 946 1535 q 911 1396 946 1426 q 804 1367 876 1367 z "},"Ų":{"ha":1199,"x_min":94,"x_max":1104,"o":"m 1104 1028 l 1104 469 q 1034 173 1104 288 q 815 13 963 58 q 687 -35 733 -11 q 622 -84 640 -59 q 603 -138 603 -109 q 628 -191 603 -172 q 707 -209 654 -209 q 804 -191 748 -209 l 804 -292 q 665 -313 738 -313 q 500 -273 556 -313 q 445 -161 445 -233 q 537 -12 445 -69 q 201 125 308 3 q 94 469 94 247 l 94 1028 l 385 1028 l 385 446 q 438 272 385 328 q 602 217 492 217 q 765 272 712 217 q 819 446 819 328 l 819 1028 l 1104 1028 z "},"Ů":{"ha":1199,"x_min":94,"x_max":1104,"o":"m 602 -14 q 216 109 338 -14 q 94 469 94 232 l 94 1028 l 385 1028 l 385 446 q 438 272 385 328 q 602 217 492 217 q 765 272 712 217 q 819 446 819 328 l 819 1028 l 1104 1028 l 1104 469 q 983 109 1104 232 q 602 -14 862 -14 m 602 1094 q 523 1114 558 1094 q 468 1167 488 1133 q 448 1244 448 1201 q 468 1321 448 1287 q 523 1374 488 1355 q 602 1393 558 1393 q 681 1374 646 1393 q 736 1321 717 1355 q 756 1244 756 1287 q 736 1167 756 1201 q 681 1114 717 1133 q 602 1094 646 1094 m 602 1182 q 645 1199 628 1182 q 661 1244 661 1215 q 645 1289 661 1272 q 602 1306 628 1306 q 559 1289 576 1306 q 543 1244 543 1272 q 559 1199 543 1215 q 602 1182 576 1182 z "},"Ũ":{"ha":1199,"x_min":94,"x_max":1104,"o":"m 602 -14 q 216 109 338 -14 q 94 469 94 232 l 94 1028 l 385 1028 l 385 446 q 438 272 385 328 q 602 217 492 217 q 765 272 712 217 q 819 446 819 328 l 819 1028 l 1104 1028 l 1104 469 q 983 109 1104 232 q 602 -14 862 -14 m 736 1113 q 666 1119 699 1113 q 590 1139 634 1126 q 520 1157 548 1151 q 461 1163 492 1163 q 378 1152 415 1163 q 304 1117 342 1141 l 304 1263 q 376 1301 338 1289 q 468 1314 415 1314 q 536 1307 505 1314 q 614 1287 568 1301 q 683 1269 654 1275 q 743 1263 712 1263 q 826 1273 790 1263 q 900 1308 862 1284 l 900 1163 q 828 1124 867 1136 q 736 1113 790 1113 z "},"Ṹ":{"ha":1199,"x_min":94,"x_max":1104,"o":"m 602 -14 q 216 109 338 -14 q 94 469 94 232 l 94 1028 l 385 1028 l 385 446 q 438 272 385 328 q 602 217 492 217 q 765 272 712 217 q 819 446 819 328 l 819 1028 l 1104 1028 l 1104 469 q 983 109 1104 232 q 602 -14 862 -14 m 456 1369 l 599 1531 l 934 1531 l 749 1369 l 456 1369 m 736 1113 q 666 1119 699 1113 q 590 1139 634 1126 q 520 1157 548 1151 q 461 1163 492 1163 q 378 1152 415 1163 q 304 1117 342 1141 l 304 1263 q 376 1301 338 1289 q 468 1314 415 1314 q 536 1307 505 1314 q 614 1287 568 1301 q 683 1269 654 1275 q 743 1263 712 1263 q 826 1273 790 1263 q 900 1308 862 1284 l 900 1163 q 828 1124 867 1136 q 736 1113 790 1113 z "},"V":{"ha":1174,"x_min":6,"x_max":1169,"o":"m 883 1028 l 1169 1028 l 797 0 l 378 0 l 6 1028 l 313 1028 l 594 217 l 883 1028 z "},"W":{"ha":1861,"x_min":22,"x_max":1839,"o":"m 1563 1028 l 1839 1028 l 1528 0 l 1160 0 l 934 749 l 701 0 l 334 0 l 22 1028 l 316 1028 l 538 253 l 778 1028 l 1097 1028 l 1332 240 l 1563 1028 z "},"Ẃ":{"ha":1861,"x_min":22,"x_max":1839,"o":"m 1563 1028 l 1839 1028 l 1528 0 l 1160 0 l 934 749 l 701 0 l 334 0 l 22 1028 l 316 1028 l 538 253 l 778 1028 l 1097 1028 l 1332 240 l 1563 1028 m 799 1104 l 943 1319 l 1242 1319 l 1057 1104 l 799 1104 z "},"Ŵ":{"ha":1861,"x_min":22,"x_max":1839,"o":"m 1563 1028 l 1839 1028 l 1528 0 l 1160 0 l 934 749 l 701 0 l 334 0 l 22 1028 l 316 1028 l 538 253 l 778 1028 l 1097 1028 l 1332 240 l 1563 1028 m 1274 1104 l 1049 1104 l 931 1219 l 813 1104 l 587 1104 l 813 1319 l 1049 1319 l 1274 1104 z "},"Ẅ":{"ha":1861,"x_min":22,"x_max":1839,"o":"m 1563 1028 l 1839 1028 l 1528 0 l 1160 0 l 934 749 l 701 0 l 334 0 l 22 1028 l 316 1028 l 538 253 l 778 1028 l 1097 1028 l 1332 240 l 1563 1028 m 728 1102 q 622 1132 656 1102 q 587 1215 587 1161 q 622 1300 587 1270 q 728 1329 656 1329 q 836 1300 801 1329 q 871 1215 871 1270 q 836 1132 871 1161 q 728 1102 801 1102 m 1133 1102 q 1025 1132 1060 1102 q 990 1215 990 1161 q 1025 1300 990 1270 q 1133 1329 1060 1329 q 1240 1300 1205 1329 q 1274 1215 1274 1270 q 1240 1132 1274 1161 q 1133 1102 1205 1102 z "},"Ẁ":{"ha":1861,"x_min":22,"x_max":1839,"o":"m 1563 1028 l 1839 1028 l 1528 0 l 1160 0 l 934 749 l 701 0 l 334 0 l 22 1028 l 316 1028 l 538 253 l 778 1028 l 1097 1028 l 1332 240 l 1563 1028 m 802 1104 l 617 1319 l 916 1319 l 1059 1104 l 802 1104 z "},"X":{"ha":1083,"x_min":-37,"x_max":1122,"o":"m 710 540 l 1122 0 l 798 0 l 537 348 l 277 0 l -37 0 l 369 535 l -8 1028 l 315 1028 l 543 726 l 769 1028 l 1082 1028 l 710 540 z "},"Y":{"ha":1035,"x_min":-37,"x_max":1060,"o":"m 1060 1028 l 665 428 l 665 0 l 375 0 l 375 425 l -37 1028 l 271 1028 l 525 652 l 773 1028 l 1060 1028 z "},"Ý":{"ha":1035,"x_min":-37,"x_max":1060,"o":"m 1060 1028 l 665 428 l 665 0 l 375 0 l 375 425 l -37 1028 l 271 1028 l 525 652 l 773 1028 l 1060 1028 m 385 1104 l 529 1319 l 828 1319 l 643 1104 l 385 1104 z "},"Ŷ":{"ha":1035,"x_min":-37,"x_max":1060,"o":"m 1060 1028 l 665 428 l 665 0 l 375 0 l 375 425 l -37 1028 l 271 1028 l 525 652 l 773 1028 l 1060 1028 m 860 1104 l 635 1104 l 517 1219 l 399 1104 l 173 1104 l 399 1319 l 635 1319 l 860 1104 z "},"Ÿ":{"ha":1035,"x_min":-37,"x_max":1060,"o":"m 1060 1028 l 665 428 l 665 0 l 375 0 l 375 425 l -37 1028 l 271 1028 l 525 652 l 773 1028 l 1060 1028 m 315 1102 q 208 1132 242 1102 q 173 1215 173 1161 q 208 1300 173 1270 q 315 1329 242 1329 q 422 1300 387 1329 q 457 1215 457 1270 q 422 1132 457 1161 q 315 1102 387 1102 m 719 1102 q 611 1132 647 1102 q 576 1215 576 1161 q 611 1300 576 1270 q 719 1329 647 1329 q 826 1300 791 1329 q 860 1215 860 1270 q 826 1132 860 1161 q 719 1102 791 1102 z "},"Ẏ":{"ha":1035,"x_min":-37,"x_max":1060,"o":"m 1060 1028 l 665 428 l 665 0 l 375 0 l 375 425 l -37 1028 l 271 1028 l 525 652 l 773 1028 l 1060 1028 m 517 1102 q 391 1132 432 1102 q 351 1215 351 1163 q 391 1299 351 1269 q 517 1329 432 1329 q 642 1299 601 1329 q 683 1215 683 1269 q 642 1132 683 1163 q 517 1102 601 1102 z "},"Ỵ":{"ha":1035,"x_min":-37,"x_max":1060,"o":"m 1060 1028 l 665 428 l 665 0 l 375 0 l 375 425 l -37 1028 l 271 1028 l 525 652 l 773 1028 l 1060 1028 m 517 -307 q 391 -277 432 -307 q 351 -194 351 -247 q 391 -110 351 -141 q 517 -80 432 -80 q 642 -110 601 -80 q 683 -194 683 -141 q 642 -277 683 -247 q 517 -307 601 -307 z "},"Ỳ":{"ha":1035,"x_min":-37,"x_max":1060,"o":"m 1060 1028 l 665 428 l 665 0 l 375 0 l 375 425 l -37 1028 l 271 1028 l 525 652 l 773 1028 l 1060 1028 m 388 1104 l 203 1319 l 502 1319 l 645 1104 l 388 1104 z "},"Ỷ":{"ha":1035,"x_min":-37,"x_max":1060,"o":"m 1060 1028 l 665 428 l 665 0 l 375 0 l 375 425 l -37 1028 l 271 1028 l 525 652 l 773 1028 l 1060 1028 m 449 1104 q 471 1149 450 1132 q 529 1181 492 1165 q 565 1200 554 1192 q 576 1218 576 1208 q 556 1235 576 1229 q 494 1240 536 1240 q 351 1225 424 1240 l 351 1319 q 430 1332 385 1327 q 515 1336 474 1336 q 667 1311 617 1336 q 716 1238 716 1285 q 694 1184 716 1204 q 632 1144 672 1164 q 597 1123 608 1131 q 584 1104 585 1115 l 449 1104 z "},"Ȳ":{"ha":1035,"x_min":-37,"x_max":1060,"o":"m 1060 1028 l 665 428 l 665 0 l 375 0 l 375 425 l -37 1028 l 271 1028 l 525 652 l 773 1028 l 1060 1028 m 222 1135 l 222 1290 l 811 1290 l 811 1135 l 222 1135 z "},"Ỹ":{"ha":1035,"x_min":-37,"x_max":1060,"o":"m 1060 1028 l 665 428 l 665 0 l 375 0 l 375 425 l -37 1028 l 271 1028 l 525 652 l 773 1028 l 1060 1028 m 651 1113 q 581 1119 613 1113 q 505 1139 549 1126 q 435 1157 463 1151 q 376 1163 407 1163 q 293 1152 329 1163 q 219 1117 257 1141 l 219 1263 q 291 1301 252 1289 q 383 1314 329 1314 q 451 1307 419 1314 q 528 1287 483 1301 q 598 1269 569 1275 q 658 1263 626 1263 q 740 1273 704 1263 q 815 1308 776 1284 l 815 1163 q 743 1124 781 1136 q 651 1113 704 1113 z "},"Z":{"ha":1007,"x_min":57,"x_max":950,"o":"m 433 226 l 950 226 l 950 0 l 57 0 l 57 156 l 567 802 l 65 802 l 65 1028 l 942 1028 l 942 872 l 433 226 z "},"Ź":{"ha":1007,"x_min":57,"x_max":950,"o":"m 433 226 l 950 226 l 950 0 l 57 0 l 57 156 l 567 802 l 65 802 l 65 1028 l 942 1028 l 942 872 l 433 226 m 373 1104 l 517 1319 l 816 1319 l 631 1104 l 373 1104 z "},"Ž":{"ha":1007,"x_min":57,"x_max":950,"o":"m 433 226 l 950 226 l 950 0 l 57 0 l 57 156 l 567 802 l 65 802 l 65 1028 l 942 1028 l 942 872 l 433 226 m 622 1319 l 848 1319 l 622 1104 l 386 1104 l 160 1319 l 386 1319 l 504 1205 l 622 1319 z "},"Ż":{"ha":1007,"x_min":57,"x_max":950,"o":"m 433 226 l 950 226 l 950 0 l 57 0 l 57 156 l 567 802 l 65 802 l 65 1028 l 942 1028 l 942 872 l 433 226 m 504 1102 q 379 1132 419 1102 q 338 1215 338 1163 q 379 1299 338 1269 q 504 1329 419 1329 q 630 1299 589 1329 q 670 1215 670 1269 q 630 1132 670 1163 q 504 1102 589 1102 z "},"Ẓ":{"ha":1007,"x_min":57,"x_max":950,"o":"m 433 226 l 950 226 l 950 0 l 57 0 l 57 156 l 567 802 l 65 802 l 65 1028 l 942 1028 l 942 872 l 433 226 m 504 -307 q 379 -277 419 -307 q 338 -194 338 -247 q 379 -110 338 -141 q 504 -80 419 -80 q 630 -110 589 -80 q 670 -194 670 -141 q 630 -277 670 -247 q 504 -307 589 -307 z "},"a":{"ha":910,"x_min":48,"x_max":828,"o":"m 407 774 q 650 741 559 774 q 785 628 742 707 q 828 415 828 550 l 828 0 l 593 0 l 575 67 l 562 67 q 465 6 522 26 q 338 -15 407 -15 q 178 15 244 -15 q 81 95 113 44 q 48 213 48 147 q 138 384 48 323 q 417 456 227 445 l 549 464 q 525 528 545 505 q 465 562 505 551 q 357 572 424 572 q 241 564 306 572 q 122 540 176 555 l 122 738 q 263 765 186 756 q 407 774 339 774 m 428 167 q 493 175 461 167 q 551 200 525 183 l 551 317 l 444 311 q 355 288 382 306 q 328 235 328 269 q 353 185 328 203 q 428 167 378 167 z "},"á":{"ha":910,"x_min":48,"x_max":828,"o":"m 407 774 q 650 741 559 774 q 785 628 742 707 q 828 415 828 550 l 828 0 l 593 0 l 575 67 l 562 67 q 465 6 522 26 q 338 -15 407 -15 q 178 15 244 -15 q 81 95 113 44 q 48 213 48 147 q 138 384 48 323 q 417 456 227 445 l 549 464 q 525 528 545 505 q 465 562 505 551 q 357 572 424 572 q 241 564 306 572 q 122 540 176 555 l 122 738 q 263 765 186 756 q 407 774 339 774 m 428 167 q 493 175 461 167 q 551 200 525 183 l 551 317 l 444 311 q 355 288 382 306 q 328 235 328 269 q 353 185 328 203 q 428 167 378 167 m 317 851 l 497 1122 l 808 1122 l 587 851 l 317 851 z "},"ă":{"ha":910,"x_min":48,"x_max":828,"o":"m 407 774 q 650 741 559 774 q 785 628 742 707 q 828 415 828 550 l 828 0 l 593 0 l 575 67 l 562 67 q 465 6 522 26 q 338 -15 407 -15 q 178 15 244 -15 q 81 95 113 44 q 48 213 48 147 q 138 384 48 323 q 417 456 227 445 l 549 464 q 525 528 545 505 q 465 562 505 551 q 357 572 424 572 q 241 564 306 572 q 122 540 176 555 l 122 738 q 263 765 186 756 q 407 774 339 774 m 428 167 q 493 175 461 167 q 551 200 525 183 l 551 317 l 444 311 q 355 288 382 306 q 328 235 328 269 q 353 185 328 203 q 428 167 378 167 m 452 855 q 233 922 311 855 q 148 1108 155 989 l 315 1108 q 452 991 328 991 q 550 1021 517 991 q 589 1108 583 1051 l 756 1108 q 671 922 749 989 q 452 855 593 855 z "},"ắ":{"ha":910,"x_min":48,"x_max":828,"o":"m 407 774 q 650 741 559 774 q 785 628 742 707 q 828 415 828 550 l 828 0 l 593 0 l 575 67 l 562 67 q 465 6 522 26 q 338 -15 407 -15 q 178 15 244 -15 q 81 95 113 44 q 48 213 48 147 q 138 384 48 323 q 417 456 227 445 l 549 464 q 525 528 545 505 q 465 562 505 551 q 357 572 424 572 q 241 564 306 572 q 122 540 176 555 l 122 738 q 263 765 186 756 q 407 774 339 774 m 428 167 q 493 175 461 167 q 551 200 525 183 l 551 317 l 444 311 q 355 288 382 306 q 328 235 328 269 q 353 185 328 203 q 428 167 378 167 m 351 1110 l 494 1297 l 734 1297 l 549 1110 l 351 1110 m 452 860 q 228 920 306 860 q 134 1079 149 980 l 303 1079 q 350 1014 313 1038 q 452 990 386 990 q 555 1014 519 990 q 601 1079 591 1038 l 770 1079 q 676 920 755 980 q 452 860 598 860 z "},"ặ":{"ha":910,"x_min":48,"x_max":828,"o":"m 407 774 q 650 741 559 774 q 785 628 742 707 q 828 415 828 550 l 828 0 l 593 0 l 575 67 l 562 67 q 465 6 522 26 q 338 -15 407 -15 q 178 15 244 -15 q 81 95 113 44 q 48 213 48 147 q 138 384 48 323 q 417 456 227 445 l 549 464 q 525 528 545 505 q 465 562 505 551 q 357 572 424 572 q 241 564 306 572 q 122 540 176 555 l 122 738 q 263 765 186 756 q 407 774 339 774 m 428 167 q 493 175 461 167 q 551 200 525 183 l 551 317 l 444 311 q 355 288 382 306 q 328 235 328 269 q 353 185 328 203 q 428 167 378 167 m 455 -328 q 345 -295 382 -328 q 309 -204 309 -262 q 345 -113 309 -146 q 455 -80 382 -80 q 564 -113 528 -80 q 601 -204 601 -146 q 564 -295 601 -262 q 455 -328 528 -328 m 452 855 q 233 922 311 855 q 148 1108 155 989 l 315 1108 q 452 991 328 991 q 550 1021 517 991 q 589 1108 583 1051 l 756 1108 q 671 922 749 989 q 452 855 593 855 z "},"ằ":{"ha":910,"x_min":48,"x_max":828,"o":"m 407 774 q 650 741 559 774 q 785 628 742 707 q 828 415 828 550 l 828 0 l 593 0 l 575 67 l 562 67 q 465 6 522 26 q 338 -15 407 -15 q 178 15 244 -15 q 81 95 113 44 q 48 213 48 147 q 138 384 48 323 q 417 456 227 445 l 549 464 q 525 528 545 505 q 465 562 505 551 q 357 572 424 572 q 241 564 306 572 q 122 540 176 555 l 122 738 q 263 765 186 756 q 407 774 339 774 m 428 167 q 493 175 461 167 q 551 200 525 183 l 551 317 l 444 311 q 355 288 382 306 q 328 235 328 269 q 353 185 328 203 q 428 167 378 167 m 356 1110 l 170 1297 l 410 1297 l 553 1110 l 356 1110 m 452 860 q 228 920 306 860 q 134 1079 149 980 l 303 1079 q 350 1014 313 1038 q 452 990 386 990 q 555 1014 519 990 q 601 1079 591 1038 l 770 1079 q 676 920 755 980 q 452 860 598 860 z "},"ẳ":{"ha":910,"x_min":48,"x_max":828,"o":"m 407 774 q 650 741 559 774 q 785 628 742 707 q 828 415 828 550 l 828 0 l 593 0 l 575 67 l 562 67 q 465 6 522 26 q 338 -15 407 -15 q 178 15 244 -15 q 81 95 113 44 q 48 213 48 147 q 138 384 48 323 q 417 456 227 445 l 549 464 q 525 528 545 505 q 465 562 505 551 q 357 572 424 572 q 241 564 306 572 q 122 540 176 555 l 122 738 q 263 765 186 756 q 407 774 339 774 m 428 167 q 493 175 461 167 q 551 200 525 183 l 551 317 l 444 311 q 355 288 382 306 q 328 235 328 269 q 353 185 328 203 q 428 167 378 167 m 384 1110 q 406 1149 385 1135 q 464 1178 426 1163 q 500 1194 488 1187 q 512 1210 512 1201 q 430 1230 512 1230 q 286 1216 362 1230 l 286 1297 q 366 1308 321 1304 q 451 1313 411 1313 q 651 1226 651 1313 q 630 1179 651 1197 q 568 1144 608 1162 q 532 1126 543 1133 q 519 1110 521 1119 l 384 1110 m 452 860 q 228 920 306 860 q 134 1079 149 980 l 303 1079 q 350 1014 313 1038 q 452 990 386 990 q 555 1014 519 990 q 601 1079 591 1038 l 770 1079 q 676 920 755 980 q 452 860 598 860 z "},"ẵ":{"ha":910,"x_min":48,"x_max":828,"o":"m 407 774 q 650 741 559 774 q 785 628 742 707 q 828 415 828 550 l 828 0 l 593 0 l 575 67 l 562 67 q 465 6 522 26 q 338 -15 407 -15 q 178 15 244 -15 q 81 95 113 44 q 48 213 48 147 q 138 384 48 323 q 417 456 227 445 l 549 464 q 525 528 545 505 q 465 562 505 551 q 357 572 424 572 q 241 564 306 572 q 122 540 176 555 l 122 738 q 263 765 186 756 q 407 774 339 774 m 428 167 q 493 175 461 167 q 551 200 525 183 l 551 317 l 444 311 q 355 288 382 306 q 328 235 328 269 q 353 185 328 203 q 428 167 378 167 m 596 1116 q 523 1122 556 1116 q 440 1139 490 1127 q 365 1155 396 1149 q 301 1160 335 1160 q 213 1151 251 1160 q 133 1120 174 1141 l 133 1246 q 209 1281 167 1270 q 308 1292 251 1292 q 381 1286 348 1292 q 465 1267 415 1280 q 542 1251 515 1256 q 603 1246 570 1246 q 691 1256 653 1246 q 772 1286 730 1265 l 772 1160 q 695 1126 737 1137 q 596 1116 653 1116 m 452 860 q 228 920 306 860 q 134 1079 149 980 l 303 1079 q 350 1014 313 1038 q 452 990 386 990 q 555 1014 519 990 q 601 1079 591 1038 l 770 1079 q 676 920 755 980 q 452 860 598 860 z "},"â":{"ha":910,"x_min":48,"x_max":828,"o":"m 407 774 q 650 741 559 774 q 785 628 742 707 q 828 415 828 550 l 828 0 l 593 0 l 575 67 l 562 67 q 465 6 522 26 q 338 -15 407 -15 q 178 15 244 -15 q 81 95 113 44 q 48 213 48 147 q 138 384 48 323 q 417 456 227 445 l 549 464 q 525 528 545 505 q 465 562 505 551 q 357 572 424 572 q 241 564 306 572 q 122 540 176 555 l 122 738 q 263 765 186 756 q 407 774 339 774 m 428 167 q 493 175 461 167 q 551 200 525 183 l 551 317 l 444 311 q 355 288 382 306 q 328 235 328 269 q 353 185 328 203 q 428 167 378 167 m 758 851 l 551 851 l 452 992 l 353 851 l 146 851 l 342 1122 l 562 1122 l 758 851 z "},"ấ":{"ha":910,"x_min":48,"x_max":1006,"o":"m 407 774 q 650 741 559 774 q 785 628 742 707 q 828 415 828 550 l 828 0 l 593 0 l 575 67 l 562 67 q 465 6 522 26 q 338 -15 407 -15 q 178 15 244 -15 q 81 95 113 44 q 48 213 48 147 q 138 384 48 323 q 417 456 227 445 l 549 464 q 525 528 545 505 q 465 562 505 551 q 357 572 424 572 q 241 564 306 572 q 122 540 176 555 l 122 738 q 263 765 186 756 q 407 774 339 774 m 428 167 q 493 175 461 167 q 551 200 525 183 l 551 317 l 444 311 q 355 288 382 306 q 328 235 328 269 q 353 185 328 203 q 428 167 378 167 m 767 1297 l 1006 1297 l 821 1110 l 623 1110 l 767 1297 m 342 1122 l 562 1122 l 758 851 l 551 851 l 452 992 l 353 851 l 146 851 l 342 1122 z "},"ậ":{"ha":910,"x_min":48,"x_max":828,"o":"m 407 774 q 650 741 559 774 q 785 628 742 707 q 828 415 828 550 l 828 0 l 593 0 l 575 67 l 562 67 q 465 6 522 26 q 338 -15 407 -15 q 178 15 244 -15 q 81 95 113 44 q 48 213 48 147 q 138 384 48 323 q 417 456 227 445 l 549 464 q 525 528 545 505 q 465 562 505 551 q 357 572 424 572 q 241 564 306 572 q 122 540 176 555 l 122 738 q 263 765 186 756 q 407 774 339 774 m 428 167 q 493 175 461 167 q 551 200 525 183 l 551 317 l 444 311 q 355 288 382 306 q 328 235 328 269 q 353 185 328 203 q 428 167 378 167 m 455 -328 q 345 -295 382 -328 q 309 -204 309 -262 q 345 -113 309 -146 q 455 -80 382 -80 q 564 -113 528 -80 q 601 -204 601 -146 q 564 -295 601 -262 q 455 -328 528 -328 m 758 851 l 551 851 l 452 992 l 353 851 l 146 851 l 342 1122 l 562 1122 l 758 851 z "},"ầ":{"ha":910,"x_min":48,"x_max":847,"o":"m 407 774 q 650 741 559 774 q 785 628 742 707 q 828 415 828 550 l 828 0 l 593 0 l 575 67 l 562 67 q 465 6 522 26 q 338 -15 407 -15 q 178 15 244 -15 q 81 95 113 44 q 48 213 48 147 q 138 384 48 323 q 417 456 227 445 l 549 464 q 525 528 545 505 q 465 562 505 551 q 357 572 424 572 q 241 564 306 572 q 122 540 176 555 l 122 738 q 263 765 186 756 q 407 774 339 774 m 428 167 q 493 175 461 167 q 551 200 525 183 l 551 317 l 444 311 q 355 288 382 306 q 328 235 328 269 q 353 185 328 203 q 428 167 378 167 m 847 1110 l 649 1110 l 464 1297 l 704 1297 l 847 1110 m 342 1122 l 562 1122 l 758 851 l 551 851 l 452 992 l 353 851 l 146 851 l 342 1122 z "},"ẩ":{"ha":910,"x_min":48,"x_max":859,"o":"m 407 774 q 650 741 559 774 q 785 628 742 707 q 828 415 828 550 l 828 0 l 593 0 l 575 67 l 562 67 q 465 6 522 26 q 338 -15 407 -15 q 178 15 244 -15 q 81 95 113 44 q 48 213 48 147 q 138 384 48 323 q 417 456 227 445 l 549 464 q 525 528 545 505 q 465 562 505 551 q 357 572 424 572 q 241 564 306 572 q 122 540 176 555 l 122 738 q 263 765 186 756 q 407 774 339 774 m 428 167 q 493 175 461 167 q 551 200 525 183 l 551 317 l 444 311 q 355 288 382 306 q 328 235 328 269 q 353 185 328 203 q 428 167 378 167 m 682 1313 q 817 1292 774 1313 q 859 1227 859 1272 q 844 1191 859 1204 q 799 1163 829 1178 q 759 1138 773 1149 q 742 1110 745 1127 l 624 1110 q 645 1157 626 1140 q 699 1188 665 1173 q 723 1199 715 1194 q 731 1210 731 1204 q 714 1227 731 1222 q 661 1233 697 1233 q 535 1219 596 1233 l 535 1297 q 604 1308 562 1304 q 682 1313 647 1313 m 342 1122 l 562 1122 l 758 851 l 551 851 l 452 992 l 353 851 l 146 851 l 342 1122 z "},"ẫ":{"ha":910,"x_min":48,"x_max":828,"o":"m 407 774 q 650 741 559 774 q 785 628 742 707 q 828 415 828 550 l 828 0 l 593 0 l 575 67 l 562 67 q 465 6 522 26 q 338 -15 407 -15 q 178 15 244 -15 q 81 95 113 44 q 48 213 48 147 q 138 384 48 323 q 417 456 227 445 l 549 464 q 525 528 545 505 q 465 562 505 551 q 357 572 424 572 q 241 564 306 572 q 122 540 176 555 l 122 738 q 263 765 186 756 q 407 774 339 774 m 428 167 q 493 175 461 167 q 551 200 525 183 l 551 317 l 444 311 q 355 288 382 306 q 328 235 328 269 q 353 185 328 203 q 428 167 378 167 m 585 1116 q 518 1122 549 1116 q 440 1139 487 1127 q 372 1155 400 1149 q 312 1160 343 1160 q 231 1151 266 1160 q 156 1121 195 1142 l 156 1246 q 228 1281 189 1269 q 319 1292 267 1292 q 388 1286 356 1292 q 464 1268 420 1280 q 534 1251 506 1257 q 592 1246 562 1246 q 674 1255 638 1246 q 748 1285 709 1265 l 748 1160 q 677 1126 716 1137 q 585 1116 638 1116 m 794 853 l 569 853 l 452 974 l 335 853 l 110 853 l 334 1076 l 570 1076 l 794 853 z "},"ȁ":{"ha":910,"x_min":48,"x_max":828,"o":"m 407 774 q 650 741 559 774 q 785 628 742 707 q 828 415 828 550 l 828 0 l 593 0 l 575 67 l 562 67 q 465 6 522 26 q 338 -15 407 -15 q 178 15 244 -15 q 81 95 113 44 q 48 213 48 147 q 138 384 48 323 q 417 456 227 445 l 549 464 q 525 528 545 505 q 465 562 505 551 q 357 572 424 572 q 241 564 306 572 q 122 540 176 555 l 122 738 q 263 765 186 756 q 407 774 339 774 m 428 167 q 493 175 461 167 q 551 200 525 183 l 551 317 l 444 311 q 355 288 382 306 q 328 235 328 269 q 353 185 328 203 q 428 167 378 167 m 195 851 l 65 1122 l 279 1122 l 395 851 l 195 851 m 509 851 l 378 1122 l 594 1122 l 709 851 l 509 851 z "},"ä":{"ha":910,"x_min":48,"x_max":828,"o":"m 407 774 q 650 741 559 774 q 785 628 742 707 q 828 415 828 550 l 828 0 l 593 0 l 575 67 l 562 67 q 465 6 522 26 q 338 -15 407 -15 q 178 15 244 -15 q 81 95 113 44 q 48 213 48 147 q 138 384 48 323 q 417 456 227 445 l 549 464 q 525 528 545 505 q 465 562 505 551 q 357 572 424 572 q 241 564 306 572 q 122 540 176 555 l 122 738 q 263 765 186 756 q 407 774 339 774 m 428 167 q 493 175 461 167 q 551 200 525 183 l 551 317 l 444 311 q 355 288 382 306 q 328 235 328 269 q 353 185 328 203 q 428 167 378 167 m 258 855 q 149 889 185 855 q 113 985 113 923 q 149 1082 113 1048 q 258 1115 185 1115 q 368 1082 332 1115 q 403 985 403 1048 q 367 889 403 923 q 258 855 331 855 m 646 855 q 537 889 573 855 q 501 985 501 923 q 536 1082 501 1048 q 646 1115 572 1115 q 756 1082 719 1115 q 792 985 792 1048 q 756 889 792 923 q 646 855 719 855 z "},"ạ":{"ha":910,"x_min":48,"x_max":828,"o":"m 407 774 q 650 741 559 774 q 785 628 742 707 q 828 415 828 550 l 828 0 l 593 0 l 575 67 l 562 67 q 465 6 522 26 q 338 -15 407 -15 q 178 15 244 -15 q 81 95 113 44 q 48 213 48 147 q 138 384 48 323 q 417 456 227 445 l 549 464 q 525 528 545 505 q 465 562 505 551 q 357 572 424 572 q 241 564 306 572 q 122 540 176 555 l 122 738 q 263 765 186 756 q 407 774 339 774 m 428 167 q 493 175 461 167 q 551 200 525 183 l 551 317 l 444 311 q 355 288 382 306 q 328 235 328 269 q 353 185 328 203 q 428 167 378 167 m 455 -328 q 345 -295 382 -328 q 309 -204 309 -262 q 345 -113 309 -146 q 455 -80 382 -80 q 564 -113 528 -80 q 601 -204 601 -146 q 564 -295 601 -262 q 455 -328 528 -328 z "},"à":{"ha":910,"x_min":48,"x_max":828,"o":"m 407 774 q 650 741 559 774 q 785 628 742 707 q 828 415 828 550 l 828 0 l 593 0 l 575 67 l 562 67 q 465 6 522 26 q 338 -15 407 -15 q 178 15 244 -15 q 81 95 113 44 q 48 213 48 147 q 138 384 48 323 q 417 456 227 445 l 549 464 q 525 528 545 505 q 465 562 505 551 q 357 572 424 572 q 241 564 306 572 q 122 540 176 555 l 122 738 q 263 765 186 756 q 407 774 339 774 m 428 167 q 493 175 461 167 q 551 200 525 183 l 551 317 l 444 311 q 355 288 382 306 q 328 235 328 269 q 353 185 328 203 q 428 167 378 167 m 317 851 l 96 1122 l 407 1122 l 587 851 l 317 851 z "},"ả":{"ha":910,"x_min":48,"x_max":828,"o":"m 407 774 q 650 741 559 774 q 785 628 742 707 q 828 415 828 550 l 828 0 l 593 0 l 575 67 l 562 67 q 465 6 522 26 q 338 -15 407 -15 q 178 15 244 -15 q 81 95 113 44 q 48 213 48 147 q 138 384 48 323 q 417 456 227 445 l 549 464 q 525 528 545 505 q 465 562 505 551 q 357 572 424 572 q 241 564 306 572 q 122 540 176 555 l 122 738 q 263 765 186 756 q 407 774 339 774 m 428 167 q 493 175 461 167 q 551 200 525 183 l 551 317 l 444 311 q 355 288 382 306 q 328 235 328 269 q 353 185 328 203 q 428 167 378 167 m 385 851 q 398 900 386 880 q 424 934 409 921 q 461 961 439 947 q 491 983 481 974 q 500 1004 500 992 q 484 1026 500 1019 q 428 1032 469 1032 q 301 1015 366 1032 l 301 1113 q 371 1126 329 1122 q 449 1131 413 1131 q 593 1104 547 1131 q 640 1021 640 1077 q 631 978 640 996 q 609 949 622 960 q 576 923 597 938 q 536 889 549 904 q 519 851 522 874 l 385 851 z "},"ȃ":{"ha":910,"x_min":48,"x_max":828,"o":"m 407 774 q 650 741 559 774 q 785 628 742 707 q 828 415 828 550 l 828 0 l 593 0 l 575 67 l 562 67 q 465 6 522 26 q 338 -15 407 -15 q 178 15 244 -15 q 81 95 113 44 q 48 213 48 147 q 138 384 48 323 q 417 456 227 445 l 549 464 q 525 528 545 505 q 465 562 505 551 q 357 572 424 572 q 241 564 306 572 q 122 540 176 555 l 122 738 q 263 765 186 756 q 407 774 339 774 m 428 167 q 493 175 461 167 q 551 200 525 183 l 551 317 l 444 311 q 355 288 382 306 q 328 235 328 269 q 353 185 328 203 q 428 167 378 167 m 148 871 q 233 1057 155 990 q 452 1124 310 1124 q 671 1057 593 1124 q 756 871 749 990 l 589 871 q 452 988 576 988 q 315 871 328 988 l 148 871 z "},"ā":{"ha":910,"x_min":48,"x_max":828,"o":"m 407 774 q 650 741 559 774 q 785 628 742 707 q 828 415 828 550 l 828 0 l 593 0 l 575 67 l 562 67 q 465 6 522 26 q 338 -15 407 -15 q 178 15 244 -15 q 81 95 113 44 q 48 213 48 147 q 138 384 48 323 q 417 456 227 445 l 549 464 q 525 528 545 505 q 465 562 505 551 q 357 572 424 572 q 241 564 306 572 q 122 540 176 555 l 122 738 q 263 765 186 756 q 407 774 339 774 m 428 167 q 493 175 461 167 q 551 200 525 183 l 551 317 l 444 311 q 355 288 382 306 q 328 235 328 269 q 353 185 328 203 q 428 167 378 167 m 173 908 l 173 1063 l 731 1063 l 731 908 l 173 908 z "},"ą":{"ha":910,"x_min":48,"x_max":851,"o":"m 764 -210 q 851 -191 808 -210 l 851 -292 q 790 -308 820 -303 q 722 -314 760 -314 q 568 -273 621 -314 q 516 -162 516 -233 q 541 -73 516 -113 q 622 0 565 -32 l 593 0 l 575 67 l 562 67 q 465 6 522 26 q 338 -15 407 -15 q 178 15 244 -15 q 81 95 113 44 q 48 213 48 147 q 138 384 48 323 q 417 456 227 445 l 549 464 q 525 528 545 505 q 465 562 505 551 q 357 572 424 572 q 241 564 306 572 q 122 540 176 555 l 122 738 q 263 765 186 756 q 407 774 339 774 q 650 741 559 774 q 785 628 742 707 q 828 415 828 550 l 828 0 q 708 -65 743 -31 q 674 -142 674 -99 q 697 -191 674 -173 q 764 -210 720 -210 m 428 167 q 493 175 461 167 q 551 200 525 183 l 551 317 l 444 311 q 355 288 382 306 q 328 235 328 269 q 353 185 328 203 q 428 167 378 167 z "},"å":{"ha":910,"x_min":48,"x_max":828,"o":"m 407 774 q 650 741 559 774 q 785 628 742 707 q 828 415 828 550 l 828 0 l 593 0 l 575 67 l 562 67 q 465 6 522 26 q 338 -15 407 -15 q 178 15 244 -15 q 81 95 113 44 q 48 213 48 147 q 138 384 48 323 q 417 456 227 445 l 549 464 q 525 528 545 505 q 465 562 505 551 q 357 572 424 572 q 241 564 306 572 q 122 540 176 555 l 122 738 q 263 765 186 756 q 407 774 339 774 m 428 167 q 493 175 461 167 q 551 200 525 183 l 551 317 l 444 311 q 355 288 382 306 q 328 235 328 269 q 353 185 328 203 q 428 167 378 167 m 452 848 q 373 867 408 848 q 318 920 338 886 q 298 997 298 954 q 318 1074 298 1040 q 373 1127 338 1108 q 452 1146 408 1146 q 531 1127 496 1146 q 586 1074 567 1108 q 606 997 606 1040 q 586 920 606 954 q 531 867 567 886 q 452 848 496 848 m 452 935 q 495 952 478 935 q 511 997 511 969 q 495 1042 511 1025 q 452 1058 478 1058 q 409 1042 426 1058 q 393 997 393 1025 q 409 952 393 969 q 452 935 426 935 z "},"ǻ":{"ha":910,"x_min":48,"x_max":828,"o":"m 407 774 q 650 741 559 774 q 785 628 742 707 q 828 415 828 550 l 828 0 l 593 0 l 575 67 l 562 67 q 465 6 522 26 q 338 -15 407 -15 q 178 15 244 -15 q 81 95 113 44 q 48 213 48 147 q 138 384 48 323 q 417 456 227 445 l 549 464 q 525 528 545 505 q 465 562 505 551 q 357 572 424 572 q 241 564 306 572 q 122 540 176 555 l 122 738 q 263 765 186 756 q 407 774 339 774 m 428 167 q 493 175 461 167 q 551 200 525 183 l 551 317 l 444 311 q 355 288 382 306 q 328 235 328 269 q 353 185 328 203 q 428 167 378 167 m 588 1070 q 606 997 606 1038 q 586 920 606 954 q 531 867 567 886 q 452 848 496 848 q 373 867 408 848 q 318 920 338 886 q 298 997 298 954 q 318 1074 298 1040 q 373 1127 338 1108 q 452 1146 408 1146 q 476 1144 461 1146 l 548 1236 l 733 1236 l 588 1070 m 452 935 q 495 952 478 935 q 511 997 511 969 q 495 1042 511 1025 q 452 1058 478 1058 q 409 1042 426 1058 q 393 997 393 1025 q 409 952 393 969 q 452 935 426 935 z "},"ã":{"ha":910,"x_min":48,"x_max":828,"o":"m 407 774 q 650 741 559 774 q 785 628 742 707 q 828 415 828 550 l 828 0 l 593 0 l 575 67 l 562 67 q 465 6 522 26 q 338 -15 407 -15 q 178 15 244 -15 q 81 95 113 44 q 48 213 48 147 q 138 384 48 323 q 417 456 227 445 l 549 464 q 525 528 545 505 q 465 562 505 551 q 357 572 424 572 q 241 564 306 572 q 122 540 176 555 l 122 738 q 263 765 186 756 q 407 774 339 774 m 428 167 q 493 175 461 167 q 551 200 525 183 l 551 317 l 444 311 q 355 288 382 306 q 328 235 328 269 q 353 185 328 203 q 428 167 378 167 m 573 875 q 511 884 540 875 q 440 910 481 893 q 376 935 401 927 q 324 943 351 943 q 245 929 281 943 q 173 881 210 915 l 173 1044 q 243 1088 205 1074 q 331 1101 281 1101 q 393 1092 364 1101 q 464 1066 423 1083 q 528 1041 503 1049 q 580 1033 553 1033 q 659 1048 624 1033 q 731 1095 694 1062 l 731 932 q 661 889 699 902 q 573 875 623 875 z "},"æ":{"ha":1394,"x_min":48,"x_max":1349,"o":"m 1349 306 l 829 306 q 858 235 834 260 q 936 197 883 209 q 1084 185 990 185 q 1189 190 1132 185 q 1299 205 1247 195 l 1299 8 q 1040 -15 1178 -15 q 812 11 907 -15 q 657 91 717 38 q 518 11 594 38 q 362 -15 442 -15 q 186 15 257 -15 q 82 95 116 44 q 48 214 48 147 q 139 392 48 328 q 419 455 230 455 l 550 455 q 528 524 547 499 q 467 561 508 549 q 357 572 426 572 q 241 564 306 572 q 122 540 176 555 l 122 738 q 258 765 187 756 q 395 774 329 774 q 584 753 508 774 q 708 684 661 732 q 827 751 759 728 q 976 774 895 774 q 1179 726 1095 774 q 1306 587 1263 678 q 1349 369 1349 496 l 1349 306 m 959 606 q 863 569 895 606 q 828 455 831 532 l 1089 455 q 1054 569 1086 532 q 959 606 1022 606 m 328 235 q 353 185 328 202 q 430 167 378 167 q 505 178 471 167 q 575 216 540 190 q 555 308 560 259 l 445 308 q 328 235 328 308 z "},"ǽ":{"ha":1394,"x_min":48,"x_max":1349,"o":"m 1349 306 l 829 306 q 858 235 834 260 q 936 197 883 209 q 1084 185 990 185 q 1189 190 1132 185 q 1299 205 1247 195 l 1299 8 q 1040 -15 1178 -15 q 812 11 907 -15 q 657 91 717 38 q 518 11 594 38 q 362 -15 442 -15 q 186 15 257 -15 q 82 95 116 44 q 48 214 48 147 q 139 392 48 328 q 419 455 230 455 l 550 455 q 528 524 547 499 q 467 561 508 549 q 357 572 426 572 q 241 564 306 572 q 122 540 176 555 l 122 738 q 258 765 187 756 q 395 774 329 774 q 584 753 508 774 q 708 684 661 732 q 827 751 759 728 q 976 774 895 774 q 1179 726 1095 774 q 1306 587 1263 678 q 1349 369 1349 496 l 1349 306 m 959 606 q 863 569 895 606 q 828 455 831 532 l 1089 455 q 1054 569 1086 532 q 959 606 1022 606 m 328 235 q 353 185 328 202 q 430 167 378 167 q 505 178 471 167 q 575 216 540 190 q 555 308 560 259 l 445 308 q 328 235 328 308 m 563 851 l 742 1122 l 1053 1122 l 832 851 l 563 851 z "},"b":{"ha":1009,"x_min":88,"x_max":957,"o":"m 454 -15 q 263 -3 358 -15 q 88 33 169 8 l 88 1122 l 372 1122 l 372 693 l 384 693 q 615 774 473 774 q 788 733 710 774 q 911 607 865 691 q 957 401 957 522 q 830 92 957 199 q 454 -15 702 -15 m 481 194 q 628 241 580 194 q 677 381 677 287 q 513 551 677 551 q 438 541 474 551 q 372 512 401 531 l 372 206 q 481 194 420 194 z "},"c":{"ha":805,"x_min":52,"x_max":760,"o":"m 532 -15 q 269 31 376 -15 q 107 165 162 76 q 52 378 52 253 q 109 593 52 505 q 276 728 165 682 q 548 774 388 774 q 760 753 669 774 l 760 539 q 664 551 706 547 q 577 556 622 556 q 397 512 454 556 q 340 379 340 468 q 396 248 340 292 q 561 204 451 204 q 651 210 607 204 q 760 230 696 216 l 760 15 q 655 -7 714 1 q 532 -15 597 -15 z "},"ć":{"ha":805,"x_min":52,"x_max":799,"o":"m 532 -15 q 269 31 376 -15 q 107 165 162 76 q 52 378 52 253 q 109 593 52 505 q 276 728 165 682 q 548 774 388 774 q 760 753 669 774 l 760 539 q 664 551 706 547 q 577 556 622 556 q 397 512 454 556 q 340 379 340 468 q 396 248 340 292 q 561 204 451 204 q 651 210 607 204 q 760 230 696 216 l 760 15 q 655 -7 714 1 q 532 -15 597 -15 m 308 851 l 488 1122 l 799 1122 l 578 851 l 308 851 z "},"č":{"ha":805,"x_min":52,"x_max":760,"o":"m 532 -15 q 269 31 376 -15 q 107 165 162 76 q 52 378 52 253 q 109 593 52 505 q 276 728 165 682 q 548 774 388 774 q 760 753 669 774 l 760 539 q 664 551 706 547 q 577 556 622 556 q 397 512 454 556 q 340 379 340 468 q 396 248 340 292 q 561 204 451 204 q 651 210 607 204 q 760 230 696 216 l 760 15 q 655 -7 714 1 q 532 -15 597 -15 m 543 1122 l 750 1122 l 553 851 l 333 851 l 136 1122 l 343 1122 l 443 981 l 543 1122 z "},"ç":{"ha":805,"x_min":52,"x_max":760,"o":"m 577 556 q 397 512 454 556 q 340 379 340 468 q 396 248 340 292 q 561 204 451 204 q 651 210 607 204 q 760 230 696 216 l 760 15 q 655 -7 714 1 q 532 -15 597 -15 l 530 -15 l 530 -55 q 622 -99 592 -65 q 653 -184 653 -132 q 602 -280 653 -245 q 457 -314 552 -314 q 315 -290 378 -314 l 315 -193 q 377 -209 341 -203 q 444 -215 413 -215 q 497 -205 479 -215 q 514 -171 514 -194 q 497 -136 514 -147 q 444 -126 479 -126 l 404 -126 l 404 -6 q 142 118 232 20 q 52 378 52 217 q 109 593 52 505 q 276 728 165 682 q 548 774 388 774 q 760 753 669 774 l 760 539 q 664 551 706 547 q 577 556 622 556 z "},"ḉ":{"ha":805,"x_min":52,"x_max":799,"o":"m 799 1122 l 578 851 l 308 851 l 488 1122 l 799 1122 m 52 378 q 109 593 52 505 q 276 728 165 682 q 548 774 388 774 q 760 753 669 774 l 760 539 q 664 551 706 547 q 577 556 622 556 q 397 512 454 556 q 340 379 340 468 q 396 248 340 292 q 561 204 451 204 q 651 210 607 204 q 760 230 696 216 l 760 15 q 655 -7 714 1 q 532 -15 597 -15 l 530 -15 l 530 -55 q 622 -99 592 -65 q 653 -184 653 -132 q 602 -280 653 -245 q 457 -314 552 -314 q 315 -290 378 -314 l 315 -193 q 377 -209 341 -203 q 444 -215 413 -215 q 497 -205 479 -215 q 514 -171 514 -194 q 497 -136 514 -147 q 444 -126 479 -126 l 404 -126 l 404 -6 q 142 118 232 20 q 52 378 52 217 z "},"ĉ":{"ha":805,"x_min":52,"x_max":760,"o":"m 532 -15 q 269 31 376 -15 q 107 165 162 76 q 52 378 52 253 q 109 593 52 505 q 276 728 165 682 q 548 774 388 774 q 760 753 669 774 l 760 539 q 664 551 706 547 q 577 556 622 556 q 397 512 454 556 q 340 379 340 468 q 396 248 340 292 q 561 204 451 204 q 651 210 607 204 q 760 230 696 216 l 760 15 q 655 -7 714 1 q 532 -15 597 -15 m 749 851 l 542 851 l 443 992 l 344 851 l 137 851 l 333 1122 l 553 1122 l 749 851 z "},"ċ":{"ha":805,"x_min":52,"x_max":760,"o":"m 532 -15 q 269 31 376 -15 q 107 165 162 76 q 52 378 52 253 q 109 593 52 505 q 276 728 165 682 q 548 774 388 774 q 760 753 669 774 l 760 539 q 664 551 706 547 q 577 556 622 556 q 397 512 454 556 q 340 379 340 468 q 396 248 340 292 q 561 204 451 204 q 651 210 607 204 q 760 230 696 216 l 760 15 q 655 -7 714 1 q 532 -15 597 -15 m 443 853 q 274 985 274 853 q 443 1118 274 1118 q 613 985 613 1118 q 443 853 613 853 z "},"d":{"ha":1009,"x_min":52,"x_max":921,"o":"m 418 -12 q 231 27 314 -12 q 100 152 149 67 q 52 365 52 237 q 107 586 52 494 q 266 728 163 679 q 510 776 369 776 q 638 769 564 776 l 638 1122 l 921 1122 l 921 0 l 685 0 l 669 76 l 657 76 q 552 11 613 35 q 418 -12 492 -12 m 496 211 q 573 222 536 211 q 638 257 610 233 l 638 556 q 531 566 588 566 q 381 520 430 566 q 332 383 332 475 q 496 211 332 211 z "},"ð":{"ha":991,"x_min":52,"x_max":942,"o":"m 766 899 q 896 669 849 790 q 942 434 942 549 q 890 186 942 286 q 737 35 837 85 q 496 -15 637 -15 q 260 33 360 -15 q 106 169 160 80 q 52 381 52 258 q 103 591 52 504 q 248 722 155 677 q 465 766 341 766 q 560 755 517 766 q 490 856 529 807 l 140 801 l 114 953 l 358 992 q 178 1122 276 1063 l 532 1122 q 641 1035 590 1083 l 888 1074 l 914 922 l 766 899 m 496 199 q 659 381 659 199 q 618 518 659 473 q 496 563 577 563 q 373 518 414 563 q 332 381 332 474 q 373 244 332 288 q 496 199 414 199 z "},"ď":{"ha":1009,"x_min":52,"x_max":1175,"o":"m 418 -12 q 231 27 314 -12 q 100 152 149 67 q 52 365 52 237 q 107 586 52 494 q 266 728 163 679 q 510 776 369 776 q 638 769 564 776 l 638 1122 l 921 1122 l 921 0 l 685 0 l 669 76 l 657 76 q 552 11 613 35 q 418 -12 492 -12 m 496 211 q 573 222 536 211 q 638 257 610 233 l 638 556 q 531 566 588 566 q 381 520 430 566 q 332 383 332 475 q 496 211 332 211 m 971 819 q 989 968 983 898 q 994 1122 994 1039 l 1175 1122 q 1160 959 1175 1038 q 1118 819 1144 881 l 971 819 z "},"đ":{"ha":1009,"x_min":52,"x_max":1006,"o":"m 1006 861 l 921 861 l 921 0 l 685 0 l 669 76 l 657 76 q 552 11 613 35 q 418 -12 492 -12 q 231 27 314 -12 q 100 152 149 67 q 52 365 52 237 q 107 586 52 494 q 266 728 163 679 q 510 776 369 776 q 638 769 564 776 l 638 861 l 344 861 l 344 1022 l 638 1022 l 638 1122 l 921 1122 l 921 1022 l 1006 1022 l 1006 861 m 638 556 q 531 566 588 566 q 381 520 430 566 q 332 383 332 475 q 496 211 332 211 q 573 222 536 211 q 638 257 610 233 l 638 556 z "},"ḍ":{"ha":1009,"x_min":52,"x_max":921,"o":"m 418 -12 q 231 27 314 -12 q 100 152 149 67 q 52 365 52 237 q 107 586 52 494 q 266 728 163 679 q 510 776 369 776 q 638 769 564 776 l 638 1122 l 921 1122 l 921 0 l 685 0 l 669 76 l 657 76 q 552 11 613 35 q 418 -12 492 -12 m 496 211 q 573 222 536 211 q 638 257 610 233 l 638 556 q 531 566 588 566 q 381 520 430 566 q 332 383 332 475 q 496 211 332 211 m 513 -328 q 404 -295 440 -328 q 367 -204 367 -262 q 404 -113 367 -146 q 513 -80 440 -80 q 623 -113 586 -80 q 659 -204 659 -146 q 623 -295 659 -262 q 513 -328 586 -328 z "},"ḏ":{"ha":1009,"x_min":52,"x_max":921,"o":"m 418 -12 q 231 27 314 -12 q 100 152 149 67 q 52 365 52 237 q 107 586 52 494 q 266 728 163 679 q 510 776 369 776 q 638 769 564 776 l 638 1122 l 921 1122 l 921 0 l 685 0 l 669 76 l 657 76 q 552 11 613 35 q 418 -12 492 -12 m 496 211 q 573 222 536 211 q 638 257 610 233 l 638 556 q 531 566 588 566 q 381 520 430 566 q 332 383 332 475 q 496 211 332 211 m 238 -279 l 238 -126 l 789 -126 l 789 -279 l 238 -279 z "},"ǳ":{"ha":1866,"x_min":52,"x_max":1819,"o":"m 418 -12 q 231 27 314 -12 q 100 152 149 67 q 52 365 52 237 q 107 586 52 494 q 266 728 163 679 q 510 776 369 776 q 638 769 564 776 l 638 1122 l 921 1122 l 921 0 l 685 0 l 669 76 l 657 76 q 552 11 613 35 q 418 -12 492 -12 m 496 211 q 573 222 536 211 q 638 257 610 233 l 638 556 q 531 566 588 566 q 381 520 430 566 q 332 383 332 475 q 496 211 332 211 m 1450 221 l 1819 221 l 1819 0 l 1071 0 l 1071 183 l 1432 541 l 1078 541 l 1078 762 l 1812 762 l 1812 579 l 1450 221 z "},"ǆ":{"ha":1866,"x_min":52,"x_max":1819,"o":"m 418 -12 q 231 27 314 -12 q 100 152 149 67 q 52 365 52 237 q 107 586 52 494 q 266 728 163 679 q 510 776 369 776 q 638 769 564 776 l 638 1122 l 921 1122 l 921 0 l 685 0 l 669 76 l 657 76 q 552 11 613 35 q 418 -12 492 -12 m 496 211 q 573 222 536 211 q 638 257 610 233 l 638 556 q 531 566 588 566 q 381 520 430 566 q 332 383 332 475 q 496 211 332 211 m 1450 221 l 1819 221 l 1819 0 l 1071 0 l 1071 183 l 1432 541 l 1078 541 l 1078 762 l 1812 762 l 1812 579 l 1450 221 m 1545 1122 l 1752 1122 l 1555 851 l 1335 851 l 1138 1122 l 1345 1122 l 1445 981 l 1545 1122 z "},"e":{"ha":901,"x_min":52,"x_max":857,"o":"m 857 306 l 331 306 q 361 235 336 260 q 440 197 385 209 q 591 185 494 185 q 696 190 639 185 q 806 205 753 195 l 806 8 q 547 -15 685 -15 q 267 27 376 -15 q 105 156 158 69 q 52 378 52 243 q 100 590 52 501 q 242 726 149 678 q 468 774 335 774 q 682 726 594 774 q 813 587 769 678 q 857 369 857 496 l 857 306 m 463 606 q 365 569 398 606 q 330 455 333 533 l 596 455 q 561 569 593 532 q 463 606 528 606 z "},"é":{"ha":901,"x_min":52,"x_max":857,"o":"m 857 306 l 331 306 q 361 235 336 260 q 440 197 385 209 q 591 185 494 185 q 696 190 639 185 q 806 205 753 195 l 806 8 q 547 -15 685 -15 q 267 27 376 -15 q 105 156 158 69 q 52 378 52 243 q 100 590 52 501 q 242 726 149 678 q 468 774 335 774 q 682 726 594 774 q 813 587 769 678 q 857 369 857 496 l 857 306 m 463 606 q 365 569 398 606 q 330 455 333 533 l 596 455 q 561 569 593 532 q 463 606 528 606 m 329 851 l 509 1122 l 820 1122 l 599 851 l 329 851 z "},"ĕ":{"ha":901,"x_min":52,"x_max":857,"o":"m 857 306 l 331 306 q 361 235 336 260 q 440 197 385 209 q 591 185 494 185 q 696 190 639 185 q 806 205 753 195 l 806 8 q 547 -15 685 -15 q 267 27 376 -15 q 105 156 158 69 q 52 378 52 243 q 100 590 52 501 q 242 726 149 678 q 468 774 335 774 q 682 726 594 774 q 813 587 769 678 q 857 369 857 496 l 857 306 m 463 606 q 365 569 398 606 q 330 455 333 533 l 596 455 q 561 569 593 532 q 463 606 528 606 m 464 855 q 245 922 323 855 q 160 1108 167 989 l 327 1108 q 464 991 340 991 q 562 1021 529 991 q 601 1108 594 1051 l 768 1108 q 683 922 761 989 q 464 855 605 855 z "},"ě":{"ha":901,"x_min":52,"x_max":857,"o":"m 857 306 l 331 306 q 361 235 336 260 q 440 197 385 209 q 591 185 494 185 q 696 190 639 185 q 806 205 753 195 l 806 8 q 547 -15 685 -15 q 267 27 376 -15 q 105 156 158 69 q 52 378 52 243 q 100 590 52 501 q 242 726 149 678 q 468 774 335 774 q 682 726 594 774 q 813 587 769 678 q 857 369 857 496 l 857 306 m 463 606 q 365 569 398 606 q 330 455 333 533 l 596 455 q 561 569 593 532 q 463 606 528 606 m 564 1122 l 771 1122 l 574 851 l 354 851 l 157 1122 l 364 1122 l 464 981 l 564 1122 z "},"ḝ":{"ha":901,"x_min":52,"x_max":857,"o":"m 464 855 q 245 922 323 855 q 160 1108 167 989 l 327 1108 q 464 991 340 991 q 562 1021 529 991 q 601 1108 594 1051 l 768 1108 q 683 922 761 989 q 464 855 605 855 m 857 306 l 331 306 q 361 235 336 260 q 440 197 385 209 q 591 185 494 185 q 696 190 639 185 q 806 205 753 195 l 806 8 q 547 -15 685 -15 l 535 -15 l 535 -55 q 627 -99 597 -65 q 658 -184 658 -132 q 607 -280 658 -245 q 462 -314 557 -314 q 320 -290 383 -314 l 320 -193 q 382 -209 346 -203 q 449 -215 418 -215 q 501 -205 484 -215 q 519 -171 519 -194 q 501 -136 519 -147 q 449 -126 484 -126 l 409 -126 l 409 -7 q 139 111 226 17 q 52 378 52 205 q 100 590 52 501 q 242 726 149 678 q 468 774 335 774 q 682 726 594 774 q 813 587 769 678 q 857 369 857 496 l 857 306 m 463 606 q 365 569 398 606 q 330 455 333 533 l 596 455 q 561 569 593 532 q 463 606 528 606 z "},"ê":{"ha":901,"x_min":52,"x_max":857,"o":"m 857 306 l 331 306 q 361 235 336 260 q 440 197 385 209 q 591 185 494 185 q 696 190 639 185 q 806 205 753 195 l 806 8 q 547 -15 685 -15 q 267 27 376 -15 q 105 156 158 69 q 52 378 52 243 q 100 590 52 501 q 242 726 149 678 q 468 774 335 774 q 682 726 594 774 q 813 587 769 678 q 857 369 857 496 l 857 306 m 463 606 q 365 569 398 606 q 330 455 333 533 l 596 455 q 561 569 593 532 q 463 606 528 606 m 770 851 l 563 851 l 464 992 l 365 851 l 158 851 l 354 1122 l 574 1122 l 770 851 z "},"ế":{"ha":901,"x_min":52,"x_max":1018,"o":"m 857 306 l 331 306 q 361 235 336 260 q 440 197 385 209 q 591 185 494 185 q 696 190 639 185 q 806 205 753 195 l 806 8 q 547 -15 685 -15 q 267 27 376 -15 q 105 156 158 69 q 52 378 52 243 q 100 590 52 501 q 242 726 149 678 q 468 774 335 774 q 682 726 594 774 q 813 587 769 678 q 857 369 857 496 l 857 306 m 463 606 q 365 569 398 606 q 330 455 333 533 l 596 455 q 561 569 593 532 q 463 606 528 606 m 778 1297 l 1018 1297 l 833 1110 l 635 1110 l 778 1297 m 354 1122 l 574 1122 l 770 851 l 563 851 l 464 992 l 365 851 l 158 851 l 354 1122 z "},"ệ":{"ha":901,"x_min":52,"x_max":857,"o":"m 857 306 l 331 306 q 361 235 336 260 q 440 197 385 209 q 591 185 494 185 q 696 190 639 185 q 806 205 753 195 l 806 8 q 547 -15 685 -15 q 267 27 376 -15 q 105 156 158 69 q 52 378 52 243 q 100 590 52 501 q 242 726 149 678 q 468 774 335 774 q 682 726 594 774 q 813 587 769 678 q 857 369 857 496 l 857 306 m 463 606 q 365 569 398 606 q 330 455 333 533 l 596 455 q 561 569 593 532 q 463 606 528 606 m 464 -328 q 355 -295 391 -328 q 318 -204 318 -262 q 355 -113 318 -146 q 464 -80 391 -80 q 573 -113 537 -80 q 610 -204 610 -146 q 573 -295 610 -262 q 464 -328 537 -328 m 770 851 l 563 851 l 464 992 l 365 851 l 158 851 l 354 1122 l 574 1122 l 770 851 z "},"ề":{"ha":901,"x_min":52,"x_max":859,"o":"m 857 306 l 331 306 q 361 235 336 260 q 440 197 385 209 q 591 185 494 185 q 696 190 639 185 q 806 205 753 195 l 806 8 q 547 -15 685 -15 q 267 27 376 -15 q 105 156 158 69 q 52 378 52 243 q 100 590 52 501 q 242 726 149 678 q 468 774 335 774 q 682 726 594 774 q 813 587 769 678 q 857 369 857 496 l 857 306 m 463 606 q 365 569 398 606 q 330 455 333 533 l 596 455 q 561 569 593 532 q 463 606 528 606 m 859 1110 l 661 1110 l 476 1297 l 716 1297 l 859 1110 m 354 1122 l 574 1122 l 770 851 l 563 851 l 464 992 l 365 851 l 158 851 l 354 1122 z "},"ể":{"ha":901,"x_min":52,"x_max":871,"o":"m 857 306 l 331 306 q 361 235 336 260 q 440 197 385 209 q 591 185 494 185 q 696 190 639 185 q 806 205 753 195 l 806 8 q 547 -15 685 -15 q 267 27 376 -15 q 105 156 158 69 q 52 378 52 243 q 100 590 52 501 q 242 726 149 678 q 468 774 335 774 q 682 726 594 774 q 813 587 769 678 q 857 369 857 496 l 857 306 m 463 606 q 365 569 398 606 q 330 455 333 533 l 596 455 q 561 569 593 532 q 463 606 528 606 m 694 1313 q 828 1292 786 1313 q 871 1227 871 1272 q 856 1191 871 1204 q 811 1163 841 1178 q 771 1138 785 1149 q 754 1110 757 1127 l 635 1110 q 657 1157 638 1140 q 710 1188 677 1173 q 735 1199 727 1194 q 742 1210 742 1204 q 726 1227 742 1222 q 673 1233 709 1233 q 547 1219 608 1233 l 547 1297 q 616 1308 574 1304 q 694 1313 658 1313 m 354 1122 l 574 1122 l 770 851 l 563 851 l 464 992 l 365 851 l 158 851 l 354 1122 z "},"ễ":{"ha":901,"x_min":52,"x_max":857,"o":"m 857 306 l 331 306 q 361 235 336 260 q 440 197 385 209 q 591 185 494 185 q 696 190 639 185 q 806 205 753 195 l 806 8 q 547 -15 685 -15 q 267 27 376 -15 q 105 156 158 69 q 52 378 52 243 q 100 590 52 501 q 242 726 149 678 q 468 774 335 774 q 682 726 594 774 q 813 587 769 678 q 857 369 857 496 l 857 306 m 463 606 q 365 569 398 606 q 330 455 333 533 l 596 455 q 561 569 593 532 q 463 606 528 606 m 597 1116 q 530 1122 560 1116 q 452 1139 499 1127 q 383 1155 412 1149 q 324 1160 355 1160 q 242 1151 278 1160 q 168 1121 207 1142 l 168 1246 q 240 1281 201 1269 q 331 1292 278 1292 q 400 1286 368 1292 q 476 1268 432 1280 q 546 1251 518 1257 q 604 1246 574 1246 q 685 1255 650 1246 q 760 1285 721 1265 l 760 1160 q 689 1126 728 1137 q 597 1116 650 1116 m 806 853 l 581 853 l 464 974 l 347 853 l 122 853 l 346 1076 l 582 1076 l 806 853 z "},"ȅ":{"ha":901,"x_min":52,"x_max":857,"o":"m 857 306 l 331 306 q 361 235 336 260 q 440 197 385 209 q 591 185 494 185 q 696 190 639 185 q 806 205 753 195 l 806 8 q 547 -15 685 -15 q 267 27 376 -15 q 105 156 158 69 q 52 378 52 243 q 100 590 52 501 q 242 726 149 678 q 468 774 335 774 q 682 726 594 774 q 813 587 769 678 q 857 369 857 496 l 857 306 m 463 606 q 365 569 398 606 q 330 455 333 533 l 596 455 q 561 569 593 532 q 463 606 528 606 m 207 851 l 76 1122 l 291 1122 l 407 851 l 207 851 m 521 851 l 390 1122 l 606 1122 l 721 851 l 521 851 z "},"ë":{"ha":901,"x_min":52,"x_max":857,"o":"m 857 306 l 331 306 q 361 235 336 260 q 440 197 385 209 q 591 185 494 185 q 696 190 639 185 q 806 205 753 195 l 806 8 q 547 -15 685 -15 q 267 27 376 -15 q 105 156 158 69 q 52 378 52 243 q 100 590 52 501 q 242 726 149 678 q 468 774 335 774 q 682 726 594 774 q 813 587 769 678 q 857 369 857 496 l 857 306 m 463 606 q 365 569 398 606 q 330 455 333 533 l 596 455 q 561 569 593 532 q 463 606 528 606 m 270 855 q 160 889 197 855 q 124 985 124 923 q 160 1082 124 1048 q 270 1115 197 1115 q 380 1082 344 1115 q 415 985 415 1048 q 379 889 415 923 q 270 855 343 855 m 658 855 q 549 889 585 855 q 513 985 513 923 q 548 1082 513 1048 q 658 1115 584 1115 q 767 1082 731 1115 q 803 985 803 1048 q 767 889 803 923 q 658 855 731 855 z "},"ė":{"ha":901,"x_min":52,"x_max":857,"o":"m 857 306 l 331 306 q 361 235 336 260 q 440 197 385 209 q 591 185 494 185 q 696 190 639 185 q 806 205 753 195 l 806 8 q 547 -15 685 -15 q 267 27 376 -15 q 105 156 158 69 q 52 378 52 243 q 100 590 52 501 q 242 726 149 678 q 468 774 335 774 q 682 726 594 774 q 813 587 769 678 q 857 369 857 496 l 857 306 m 463 606 q 365 569 398 606 q 330 455 333 533 l 596 455 q 561 569 593 532 q 463 606 528 606 m 464 853 q 294 985 294 853 q 464 1118 294 1118 q 633 985 633 1118 q 464 853 633 853 z "},"ẹ":{"ha":901,"x_min":52,"x_max":857,"o":"m 857 306 l 331 306 q 361 235 336 260 q 440 197 385 209 q 591 185 494 185 q 696 190 639 185 q 806 205 753 195 l 806 8 q 547 -15 685 -15 q 267 27 376 -15 q 105 156 158 69 q 52 378 52 243 q 100 590 52 501 q 242 726 149 678 q 468 774 335 774 q 682 726 594 774 q 813 587 769 678 q 857 369 857 496 l 857 306 m 463 606 q 365 569 398 606 q 330 455 333 533 l 596 455 q 561 569 593 532 q 463 606 528 606 m 464 -328 q 355 -295 391 -328 q 318 -204 318 -262 q 355 -113 318 -146 q 464 -80 391 -80 q 573 -113 537 -80 q 610 -204 610 -146 q 573 -295 610 -262 q 464 -328 537 -328 z "},"è":{"ha":901,"x_min":52,"x_max":857,"o":"m 857 306 l 331 306 q 361 235 336 260 q 440 197 385 209 q 591 185 494 185 q 696 190 639 185 q 806 205 753 195 l 806 8 q 547 -15 685 -15 q 267 27 376 -15 q 105 156 158 69 q 52 378 52 243 q 100 590 52 501 q 242 726 149 678 q 468 774 335 774 q 682 726 594 774 q 813 587 769 678 q 857 369 857 496 l 857 306 m 463 606 q 365 569 398 606 q 330 455 333 533 l 596 455 q 561 569 593 532 q 463 606 528 606 m 329 851 l 108 1122 l 419 1122 l 599 851 l 329 851 z "},"ẻ":{"ha":901,"x_min":52,"x_max":857,"o":"m 857 306 l 331 306 q 361 235 336 260 q 440 197 385 209 q 591 185 494 185 q 696 190 639 185 q 806 205 753 195 l 806 8 q 547 -15 685 -15 q 267 27 376 -15 q 105 156 158 69 q 52 378 52 243 q 100 590 52 501 q 242 726 149 678 q 468 774 335 774 q 682 726 594 774 q 813 587 769 678 q 857 369 857 496 l 857 306 m 463 606 q 365 569 398 606 q 330 455 333 533 l 596 455 q 561 569 593 532 q 463 606 528 606 m 397 851 q 409 900 398 880 q 436 934 421 921 q 473 961 451 947 q 502 983 493 974 q 512 1004 512 992 q 496 1026 512 1019 q 440 1032 481 1032 q 313 1015 378 1032 l 313 1113 q 383 1126 341 1122 q 460 1131 424 1131 q 605 1104 559 1131 q 651 1021 651 1077 q 643 978 651 996 q 621 949 634 960 q 588 923 608 938 q 548 889 561 904 q 531 851 534 874 l 397 851 z "},"ȇ":{"ha":901,"x_min":52,"x_max":857,"o":"m 857 306 l 331 306 q 361 235 336 260 q 440 197 385 209 q 591 185 494 185 q 696 190 639 185 q 806 205 753 195 l 806 8 q 547 -15 685 -15 q 267 27 376 -15 q 105 156 158 69 q 52 378 52 243 q 100 590 52 501 q 242 726 149 678 q 468 774 335 774 q 682 726 594 774 q 813 587 769 678 q 857 369 857 496 l 857 306 m 463 606 q 365 569 398 606 q 330 455 333 533 l 596 455 q 561 569 593 532 q 463 606 528 606 m 160 871 q 244 1057 167 990 q 464 1124 322 1124 q 683 1057 605 1124 q 768 871 761 990 l 601 871 q 464 988 588 988 q 327 871 340 988 l 160 871 z "},"ē":{"ha":901,"x_min":52,"x_max":857,"o":"m 857 306 l 331 306 q 361 235 336 260 q 440 197 385 209 q 591 185 494 185 q 696 190 639 185 q 806 205 753 195 l 806 8 q 547 -15 685 -15 q 267 27 376 -15 q 105 156 158 69 q 52 378 52 243 q 100 590 52 501 q 242 726 149 678 q 468 774 335 774 q 682 726 594 774 q 813 587 769 678 q 857 369 857 496 l 857 306 m 463 606 q 365 569 398 606 q 330 455 333 533 l 596 455 q 561 569 593 532 q 463 606 528 606 m 185 908 l 185 1063 l 743 1063 l 743 908 l 185 908 z "},"ḗ":{"ha":901,"x_min":52,"x_max":857,"o":"m 857 306 l 331 306 q 361 235 336 260 q 440 197 385 209 q 591 185 494 185 q 696 190 639 185 q 806 205 753 195 l 806 8 q 547 -15 685 -15 q 267 27 376 -15 q 105 156 158 69 q 52 378 52 243 q 100 590 52 501 q 242 726 149 678 q 468 774 335 774 q 682 726 594 774 q 813 587 769 678 q 857 369 857 496 l 857 306 m 463 606 q 365 569 398 606 q 330 455 333 533 l 596 455 q 561 569 593 532 q 463 606 528 606 m 185 908 l 185 1063 l 743 1063 l 743 908 l 185 908 m 333 1165 l 476 1381 l 776 1381 l 590 1165 l 333 1165 z "},"ḕ":{"ha":901,"x_min":52,"x_max":857,"o":"m 857 306 l 331 306 q 361 235 336 260 q 440 197 385 209 q 591 185 494 185 q 696 190 639 185 q 806 205 753 195 l 806 8 q 547 -15 685 -15 q 267 27 376 -15 q 105 156 158 69 q 52 378 52 243 q 100 590 52 501 q 242 726 149 678 q 468 774 335 774 q 682 726 594 774 q 813 587 769 678 q 857 369 857 496 l 857 306 m 463 606 q 365 569 398 606 q 330 455 333 533 l 596 455 q 561 569 593 532 q 463 606 528 606 m 185 908 l 185 1063 l 743 1063 l 743 908 l 185 908 m 335 1165 l 150 1381 l 449 1381 l 592 1165 l 335 1165 z "},"ę":{"ha":901,"x_min":52,"x_max":857,"o":"m 857 306 l 331 306 q 361 235 336 260 q 440 197 385 209 q 591 185 494 185 q 696 190 639 185 q 806 205 753 195 l 806 8 q 669 -59 710 -21 q 629 -142 629 -97 q 652 -191 629 -173 q 719 -210 676 -210 q 806 -191 763 -210 l 806 -292 q 745 -308 776 -303 q 676 -314 715 -314 q 523 -273 576 -314 q 471 -162 471 -233 q 554 -15 471 -72 l 547 -15 q 267 27 376 -15 q 105 156 158 69 q 52 378 52 243 q 100 590 52 501 q 242 726 149 678 q 468 774 335 774 q 682 726 594 774 q 813 587 769 678 q 857 369 857 496 l 857 306 m 463 599 q 365 563 398 599 q 330 449 333 526 l 596 449 q 561 563 593 526 q 463 599 528 599 z "},"ẽ":{"ha":901,"x_min":52,"x_max":857,"o":"m 857 306 l 331 306 q 361 235 336 260 q 440 197 385 209 q 591 185 494 185 q 696 190 639 185 q 806 205 753 195 l 806 8 q 547 -15 685 -15 q 267 27 376 -15 q 105 156 158 69 q 52 378 52 243 q 100 590 52 501 q 242 726 149 678 q 468 774 335 774 q 682 726 594 774 q 813 587 769 678 q 857 369 857 496 l 857 306 m 463 606 q 365 569 398 606 q 330 455 333 533 l 596 455 q 561 569 593 532 q 463 606 528 606 m 585 875 q 523 884 552 875 q 452 910 493 893 q 388 935 413 927 q 336 943 363 943 q 257 929 292 943 q 185 881 222 915 l 185 1044 q 255 1088 217 1074 q 343 1101 293 1101 q 405 1092 376 1101 q 476 1066 435 1083 q 540 1041 515 1049 q 592 1033 565 1033 q 670 1048 635 1033 q 743 1095 706 1062 l 743 932 q 673 889 711 902 q 585 875 635 875 z "},"ə":{"ha":901,"x_min":44,"x_max":849,"o":"m 354 776 q 634 734 525 776 q 796 606 743 692 q 849 383 849 519 q 800 172 849 261 q 659 35 752 83 q 433 -12 565 -12 q 219 36 306 -12 q 88 175 132 84 q 44 393 44 266 l 44 456 l 569 456 q 540 527 565 501 q 461 565 515 553 q 310 577 406 577 q 205 572 262 577 q 94 557 148 567 l 94 753 q 354 776 215 776 m 438 156 q 535 193 503 156 q 571 307 568 229 l 305 307 q 340 193 308 230 q 438 156 372 156 z "},"f":{"ha":660,"x_min":32,"x_max":692,"o":"m 610 919 q 486 886 526 919 q 447 786 447 853 l 447 762 l 654 762 l 654 541 l 447 541 l 447 0 l 163 0 l 163 541 l 32 541 l 32 762 l 163 762 l 163 777 q 211 968 163 887 q 349 1092 258 1049 q 563 1136 439 1136 q 692 1128 626 1136 l 692 913 q 610 919 645 919 z "},"g":{"ha":1009,"x_min":52,"x_max":921,"o":"m 425 -319 q 108 -284 253 -319 l 108 -69 q 264 -100 187 -90 q 403 -110 342 -110 q 540 -93 489 -110 q 615 -42 592 -76 q 638 45 638 -8 l 638 83 l 625 83 q 394 2 537 2 q 222 44 300 2 q 98 169 144 87 q 52 365 52 251 q 109 585 52 493 q 278 725 165 676 q 554 774 390 774 q 747 761 647 774 q 921 726 846 749 l 921 101 q 868 -138 921 -45 q 706 -275 815 -231 q 425 -319 597 -319 m 496 225 q 571 235 534 225 q 638 265 608 245 l 638 553 q 530 565 589 565 q 382 520 433 565 q 332 387 332 475 q 375 264 332 303 q 496 225 418 225 z "},"ǵ":{"ha":1009,"x_min":52,"x_max":921,"o":"m 425 -319 q 108 -284 253 -319 l 108 -69 q 264 -100 187 -90 q 403 -110 342 -110 q 540 -93 489 -110 q 615 -42 592 -76 q 638 45 638 -8 l 638 83 l 625 83 q 394 2 537 2 q 222 44 300 2 q 98 169 144 87 q 52 365 52 251 q 109 585 52 493 q 278 725 165 676 q 554 774 390 774 q 747 761 647 774 q 921 726 846 749 l 921 101 q 868 -138 921 -45 q 706 -275 815 -231 q 425 -319 597 -319 m 496 225 q 571 235 534 225 q 638 265 608 245 l 638 553 q 530 565 589 565 q 382 520 433 565 q 332 387 332 475 q 375 264 332 303 q 496 225 418 225 m 392 851 l 572 1122 l 883 1122 l 662 851 l 392 851 z "},"ğ":{"ha":1009,"x_min":52,"x_max":921,"o":"m 425 -319 q 108 -284 253 -319 l 108 -69 q 264 -100 187 -90 q 403 -110 342 -110 q 540 -93 489 -110 q 615 -42 592 -76 q 638 45 638 -8 l 638 83 l 625 83 q 394 2 537 2 q 222 44 300 2 q 98 169 144 87 q 52 365 52 251 q 109 585 52 493 q 278 725 165 676 q 554 774 390 774 q 747 761 647 774 q 921 726 846 749 l 921 101 q 868 -138 921 -45 q 706 -275 815 -231 q 425 -319 597 -319 m 496 225 q 571 235 534 225 q 638 265 608 245 l 638 553 q 530 565 589 565 q 382 520 433 565 q 332 387 332 475 q 375 264 332 303 q 496 225 418 225 m 527 855 q 308 922 386 855 q 223 1108 230 989 l 390 1108 q 527 991 403 991 q 625 1021 592 991 q 664 1108 658 1051 l 831 1108 q 746 922 824 989 q 527 855 668 855 z "},"ǧ":{"ha":1009,"x_min":52,"x_max":921,"o":"m 425 -319 q 108 -284 253 -319 l 108 -69 q 264 -100 187 -90 q 403 -110 342 -110 q 540 -93 489 -110 q 615 -42 592 -76 q 638 45 638 -8 l 638 83 l 625 83 q 394 2 537 2 q 222 44 300 2 q 98 169 144 87 q 52 365 52 251 q 109 585 52 493 q 278 725 165 676 q 554 774 390 774 q 747 761 647 774 q 921 726 846 749 l 921 101 q 868 -138 921 -45 q 706 -275 815 -231 q 425 -319 597 -319 m 496 225 q 571 235 534 225 q 638 265 608 245 l 638 553 q 530 565 589 565 q 382 520 433 565 q 332 387 332 475 q 375 264 332 303 q 496 225 418 225 m 627 1122 l 834 1122 l 637 851 l 417 851 l 220 1122 l 427 1122 l 527 981 l 627 1122 z "},"ĝ":{"ha":1009,"x_min":52,"x_max":921,"o":"m 425 -319 q 108 -284 253 -319 l 108 -69 q 264 -100 187 -90 q 403 -110 342 -110 q 540 -93 489 -110 q 615 -42 592 -76 q 638 45 638 -8 l 638 83 l 625 83 q 394 2 537 2 q 222 44 300 2 q 98 169 144 87 q 52 365 52 251 q 109 585 52 493 q 278 725 165 676 q 554 774 390 774 q 747 761 647 774 q 921 726 846 749 l 921 101 q 868 -138 921 -45 q 706 -275 815 -231 q 425 -319 597 -319 m 496 225 q 571 235 534 225 q 638 265 608 245 l 638 553 q 530 565 589 565 q 382 520 433 565 q 332 387 332 475 q 375 264 332 303 q 496 225 418 225 m 833 851 l 626 851 l 527 992 l 428 851 l 221 851 l 417 1122 l 637 1122 l 833 851 z "},"ģ":{"ha":1009,"x_min":52,"x_max":921,"o":"m 425 -319 q 108 -284 253 -319 l 108 -69 q 264 -100 187 -90 q 403 -110 342 -110 q 540 -93 489 -110 q 615 -42 592 -76 q 638 45 638 -8 l 638 83 l 625 83 q 394 2 537 2 q 222 44 300 2 q 98 169 144 87 q 52 365 52 251 q 109 585 52 493 q 278 725 165 676 q 554 774 390 774 q 747 761 647 774 q 921 726 846 749 l 921 101 q 868 -138 921 -45 q 706 -275 815 -231 q 425 -319 597 -319 m 496 225 q 571 235 534 225 q 638 265 608 245 l 638 553 q 530 565 589 565 q 382 520 433 565 q 332 387 332 475 q 375 264 332 303 q 496 225 418 225 m 565 1028 q 654 1002 626 1024 q 681 943 681 980 q 528 856 681 856 q 373 971 373 856 q 390 1055 373 1011 q 435 1130 407 1099 l 606 1130 q 565 1028 572 1069 z "},"ġ":{"ha":1009,"x_min":52,"x_max":921,"o":"m 425 -319 q 108 -284 253 -319 l 108 -69 q 264 -100 187 -90 q 403 -110 342 -110 q 540 -93 489 -110 q 615 -42 592 -76 q 638 45 638 -8 l 638 83 l 625 83 q 394 2 537 2 q 222 44 300 2 q 98 169 144 87 q 52 365 52 251 q 109 585 52 493 q 278 725 165 676 q 554 774 390 774 q 747 761 647 774 q 921 726 846 749 l 921 101 q 868 -138 921 -45 q 706 -275 815 -231 q 425 -319 597 -319 m 496 225 q 571 235 534 225 q 638 265 608 245 l 638 553 q 530 565 589 565 q 382 520 433 565 q 332 387 332 475 q 375 264 332 303 q 496 225 418 225 m 527 853 q 358 985 358 853 q 527 1118 358 1118 q 697 985 697 1118 q 527 853 697 853 z "},"ḡ":{"ha":1009,"x_min":52,"x_max":921,"o":"m 425 -319 q 108 -284 253 -319 l 108 -69 q 264 -100 187 -90 q 403 -110 342 -110 q 540 -93 489 -110 q 615 -42 592 -76 q 638 45 638 -8 l 638 83 l 625 83 q 394 2 537 2 q 222 44 300 2 q 98 169 144 87 q 52 365 52 251 q 109 585 52 493 q 278 725 165 676 q 554 774 390 774 q 747 761 647 774 q 921 726 846 749 l 921 101 q 868 -138 921 -45 q 706 -275 815 -231 q 425 -319 597 -319 m 496 225 q 571 235 534 225 q 638 265 608 245 l 638 553 q 530 565 589 565 q 382 520 433 565 q 332 387 332 475 q 375 264 332 303 q 496 225 418 225 m 248 908 l 248 1063 l 806 1063 l 806 908 l 248 908 z "},"h":{"ha":994,"x_min":88,"x_max":912,"o":"m 88 1122 l 372 1122 l 372 693 l 384 693 q 489 753 429 733 q 613 774 548 774 q 768 738 701 774 q 874 626 835 702 q 912 432 912 549 l 912 0 l 628 0 l 628 417 q 601 511 628 483 q 517 539 574 539 q 437 524 476 539 q 372 483 398 509 l 372 0 l 88 0 l 88 1122 z "},"ħ":{"ha":994,"x_min":2,"x_max":912,"o":"m 613 774 q 768 738 701 774 q 874 626 835 702 q 912 432 912 549 l 912 0 l 628 0 l 628 417 q 601 511 628 483 q 517 539 574 539 q 437 524 476 539 q 372 483 398 509 l 372 0 l 88 0 l 88 858 l 2 858 l 2 1019 l 88 1019 l 88 1122 l 372 1122 l 372 1019 l 665 1019 l 665 858 l 372 858 l 372 693 l 384 693 q 489 753 429 733 q 613 774 548 774 z "},"ḫ":{"ha":994,"x_min":88,"x_max":912,"o":"m 88 1122 l 372 1122 l 372 693 l 384 693 q 489 753 429 733 q 613 774 548 774 q 768 738 701 774 q 874 626 835 702 q 912 432 912 549 l 912 0 l 628 0 l 628 417 q 601 511 628 483 q 517 539 574 539 q 437 524 476 539 q 372 483 398 509 l 372 0 l 88 0 l 88 1122 m 501 -326 q 339 -299 406 -326 q 235 -220 271 -272 q 197 -98 199 -169 l 364 -98 q 501 -191 370 -191 q 638 -98 631 -191 l 805 -98 q 766 -220 802 -169 q 663 -299 731 -272 q 501 -326 595 -326 z "},"ĥ":{"ha":994,"x_min":88,"x_max":912,"o":"m 88 1122 l 372 1122 l 372 693 l 384 693 q 489 753 429 733 q 613 774 548 774 q 768 738 701 774 q 874 626 835 702 q 912 432 912 549 l 912 0 l 628 0 l 628 417 q 601 511 628 483 q 517 539 574 539 q 437 524 476 539 q 372 483 398 509 l 372 0 l 88 0 l 88 1122 m 844 1171 l 619 1171 l 501 1286 l 383 1171 l 157 1171 l 383 1386 l 619 1386 l 844 1171 z "},"ḥ":{"ha":994,"x_min":88,"x_max":912,"o":"m 88 1122 l 372 1122 l 372 693 l 384 693 q 489 753 429 733 q 613 774 548 774 q 768 738 701 774 q 874 626 835 702 q 912 432 912 549 l 912 0 l 628 0 l 628 417 q 601 511 628 483 q 517 539 574 539 q 437 524 476 539 q 372 483 398 509 l 372 0 l 88 0 l 88 1122 m 501 -328 q 391 -295 428 -328 q 355 -204 355 -262 q 391 -113 355 -146 q 501 -80 428 -80 q 610 -113 574 -80 q 647 -204 647 -146 q 610 -295 647 -262 q 501 -328 574 -328 z "},"i":{"ha":460,"x_min":60,"x_max":399,"o":"m 88 0 l 88 762 l 372 762 l 372 0 l 88 0 m 230 853 q 60 985 60 853 q 230 1118 60 1118 q 399 985 399 1118 q 230 853 399 853 z "},"ı":{"ha":460,"x_min":88,"x_max":372,"o":"m 88 0 l 88 762 l 372 762 l 372 0 l 88 0 z "},"í":{"ha":460,"x_min":88,"x_max":586,"o":"m 88 0 l 88 762 l 372 762 l 372 0 l 88 0 m 95 851 l 275 1122 l 586 1122 l 365 851 l 95 851 z "},"ĭ":{"ha":460,"x_min":-74,"x_max":534,"o":"m 88 0 l 88 762 l 372 762 l 372 0 l 88 0 m 230 855 q 11 922 89 855 q -74 1108 -67 989 l 93 1108 q 230 991 106 991 q 328 1021 295 991 q 367 1108 360 1051 l 534 1108 q 449 922 527 989 q 230 855 371 855 z "},"î":{"ha":460,"x_min":-76,"x_max":536,"o":"m 88 0 l 88 762 l 372 762 l 372 0 l 88 0 m 536 851 l 329 851 l 230 992 l 131 851 l -76 851 l 120 1122 l 340 1122 l 536 851 z "},"ȉ":{"ha":460,"x_min":-158,"x_max":487,"o":"m 88 0 l 88 762 l 372 762 l 372 0 l 88 0 m -27 851 l -158 1122 l 57 1122 l 173 851 l -27 851 m 287 851 l 156 1122 l 372 1122 l 487 851 l 287 851 z "},"ï":{"ha":460,"x_min":-110,"x_max":569,"o":"m 88 0 l 88 762 l 372 762 l 372 0 l 88 0 m 36 855 q -74 889 -37 855 q -110 985 -110 923 q -74 1082 -110 1048 q 36 1115 -37 1115 q 145 1082 110 1115 q 181 985 181 1048 q 145 889 181 923 q 36 855 109 855 m 424 855 q 315 889 351 855 q 278 985 278 923 q 314 1082 278 1048 q 424 1115 350 1115 q 533 1082 497 1115 q 569 985 569 1048 q 533 889 569 923 q 424 855 497 855 z "},"ḯ":{"ha":460,"x_min":-110,"x_max":569,"o":"m 88 0 l 88 762 l 372 762 l 372 0 l 88 0 m 36 855 q -74 889 -37 855 q -110 985 -110 923 q -74 1082 -110 1048 q 36 1115 -37 1115 q 145 1082 110 1115 q 181 985 181 1048 q 145 889 181 923 q 36 855 109 855 m 424 855 q 315 889 351 855 q 278 985 278 923 q 314 1082 278 1048 q 424 1115 350 1115 q 533 1082 497 1115 q 569 985 569 1048 q 533 889 569 923 q 424 855 497 855 m 99 1165 l 242 1381 l 542 1381 l 356 1165 l 99 1165 z "},"ị":{"ha":460,"x_min":60,"x_max":399,"o":"m 88 0 l 88 762 l 372 762 l 372 0 l 88 0 m 230 853 q 60 985 60 853 q 230 1118 60 1118 q 399 985 399 1118 q 230 853 399 853 m 230 -328 q 120 -295 157 -328 q 84 -204 84 -262 q 120 -113 84 -146 q 230 -80 157 -80 q 339 -113 303 -80 q 376 -204 376 -146 q 339 -295 376 -262 q 230 -328 303 -328 z "},"ì":{"ha":460,"x_min":-126,"x_max":372,"o":"m 88 0 l 88 762 l 372 762 l 372 0 l 88 0 m 95 851 l -126 1122 l 185 1122 l 365 851 l 95 851 z "},"ỉ":{"ha":460,"x_min":79,"x_max":417,"o":"m 88 0 l 88 762 l 372 762 l 372 0 l 88 0 m 163 851 q 175 900 164 880 q 202 934 187 921 q 239 961 217 947 q 268 983 259 974 q 278 1004 278 992 q 262 1026 278 1019 q 206 1032 247 1032 q 79 1015 144 1032 l 79 1113 q 149 1126 107 1122 q 226 1131 190 1131 q 371 1104 325 1131 q 417 1021 417 1077 q 409 978 417 996 q 387 949 400 960 q 353 923 374 938 q 314 889 327 904 q 297 851 300 874 l 163 851 z "},"ȋ":{"ha":460,"x_min":-74,"x_max":534,"o":"m 88 0 l 88 762 l 372 762 l 372 0 l 88 0 m -74 871 q 10 1057 -67 990 q 230 1124 88 1124 q 449 1057 371 1124 q 534 871 527 990 l 367 871 q 230 988 354 988 q 93 871 106 988 l -74 871 z "},"ī":{"ha":460,"x_min":-49,"x_max":509,"o":"m 88 0 l 88 762 l 372 762 l 372 0 l 88 0 m -49 908 l -49 1063 l 509 1063 l 509 908 l -49 908 z "},"į":{"ha":460,"x_min":60,"x_max":399,"o":"m 230 853 q 60 985 60 853 q 230 1118 60 1118 q 399 985 399 1118 q 230 853 399 853 m 217 -142 q 241 -191 217 -173 q 308 -210 264 -210 q 395 -191 351 -210 l 395 -292 q 334 -308 364 -303 q 265 -314 303 -314 q 112 -273 165 -314 q 60 -162 60 -233 q 84 -73 60 -113 q 165 0 109 -32 l 88 0 l 88 762 l 372 762 l 372 0 q 252 -65 287 -31 q 217 -142 217 -99 z "},"ĩ":{"ha":460,"x_min":-49,"x_max":509,"o":"m 88 0 l 88 762 l 372 762 l 372 0 l 88 0 m 351 875 q 289 884 318 875 q 218 910 259 893 q 154 935 179 927 q 102 943 129 943 q 23 929 58 943 q -49 881 -12 915 l -49 1044 q 21 1088 -17 1074 q 109 1101 59 1101 q 171 1092 142 1101 q 242 1066 201 1083 q 306 1041 281 1049 q 358 1033 331 1033 q 436 1048 401 1033 q 509 1095 472 1062 l 509 932 q 439 889 477 902 q 351 875 401 875 z "},"j":{"ha":460,"x_min":-19,"x_max":394,"o":"m -19 -211 q 64 -64 40 -140 q 88 124 88 13 l 88 762 l 372 762 l 372 133 q 322 -110 372 -1 q 157 -329 273 -220 l -19 -211 m 224 854 q 55 987 55 854 q 224 1119 55 1119 q 394 987 394 1119 q 224 854 394 854 z "},"ȷ":{"ha":460,"x_min":-19,"x_max":372,"o":"m -19 -211 q 64 -64 40 -140 q 88 124 88 13 l 88 762 l 372 762 l 372 133 q 322 -110 372 -1 q 157 -329 273 -220 l -19 -211 z "},"ĵ":{"ha":460,"x_min":-82,"x_max":531,"o":"m -19 -211 q 64 -64 40 -140 q 88 124 88 13 l 88 762 l 372 762 l 372 133 q 322 -110 372 -1 q 157 -329 273 -220 l -19 -211 m 531 853 l 324 853 l 224 994 l 125 853 l -82 853 l 115 1124 l 334 1124 l 531 853 z "},"k":{"ha":974,"x_min":88,"x_max":998,"o":"m 689 0 l 482 278 l 372 278 l 372 0 l 88 0 l 88 1122 l 372 1122 l 372 506 l 481 506 l 669 762 l 972 762 l 713 399 l 998 0 l 689 0 z "},"ķ":{"ha":974,"x_min":88,"x_max":998,"o":"m 689 0 l 482 278 l 372 278 l 372 0 l 88 0 l 88 1122 l 372 1122 l 372 506 l 481 506 l 669 762 l 972 762 l 713 399 l 998 0 l 689 0 m 502 -80 q 657 -194 657 -80 q 640 -279 657 -235 q 595 -354 623 -323 l 424 -354 q 451 -298 442 -322 q 465 -252 461 -274 q 376 -226 403 -247 q 349 -167 349 -204 q 502 -80 349 -80 z "},"ĸ":{"ha":974,"x_min":88,"x_max":998,"o":"m 689 0 l 482 278 l 372 278 l 372 0 l 88 0 l 88 762 l 372 762 l 372 506 l 481 506 l 669 762 l 972 762 l 713 399 l 998 0 l 689 0 z "},"l":{"ha":460,"x_min":88,"x_max":372,"o":"m 88 0 l 88 1122 l 372 1122 l 372 0 l 88 0 z "},"ĺ":{"ha":460,"x_min":88,"x_max":542,"o":"m 88 0 l 88 1122 l 372 1122 l 372 0 l 88 0 m 99 1171 l 242 1386 l 542 1386 l 356 1171 l 99 1171 z "},"ľ":{"ha":460,"x_min":88,"x_max":626,"o":"m 88 0 l 88 1122 l 372 1122 l 372 0 l 88 0 m 422 819 q 440 968 435 898 q 445 1122 445 1039 l 626 1122 q 611 959 626 1038 q 569 819 596 881 l 422 819 z "},"ļ":{"ha":460,"x_min":75,"x_max":383,"o":"m 88 0 l 88 1122 l 372 1122 l 372 0 l 88 0 m 228 -80 q 383 -194 383 -80 q 366 -279 383 -235 q 322 -354 349 -323 l 150 -354 q 178 -298 168 -322 q 192 -252 188 -274 q 102 -226 130 -247 q 75 -167 75 -204 q 228 -80 75 -80 z "},"ŀ":{"ha":727,"x_min":88,"x_max":760,"o":"m 88 0 l 88 1122 l 372 1122 l 372 0 l 88 0 m 591 419 q 422 551 422 419 q 591 684 422 684 q 760 551 760 684 q 591 419 760 419 z "},"ḷ":{"ha":460,"x_min":83,"x_max":375,"o":"m 88 0 l 88 1122 l 372 1122 l 372 0 l 88 0 m 229 -328 q 120 -295 156 -328 q 83 -204 83 -262 q 120 -113 83 -146 q 229 -80 156 -80 q 339 -113 302 -80 q 375 -204 375 -146 q 339 -295 375 -262 q 229 -328 302 -328 z "},"ǉ":{"ha":921,"x_min":88,"x_max":854,"o":"m 88 0 l 88 1122 l 372 1122 l 372 0 l 88 0 m 441 -211 q 524 -64 500 -140 q 549 124 549 13 l 549 762 l 832 762 l 832 133 q 783 -110 832 -1 q 617 -329 733 -220 l 441 -211 m 685 854 q 515 987 515 854 q 685 1119 515 1119 q 854 987 854 1119 q 685 854 854 854 z "},"ḻ":{"ha":460,"x_min":-47,"x_max":505,"o":"m 88 0 l 88 1122 l 372 1122 l 372 0 l 88 0 m -47 -279 l -47 -126 l 505 -126 l 505 -279 l -47 -279 z "},"ł":{"ha":508,"x_min":-23,"x_max":532,"o":"m 532 542 l 395 473 l 395 0 l 112 0 l 112 331 l 51 301 l -23 450 l 112 517 l 112 1122 l 395 1122 l 395 660 l 458 691 l 532 542 z "},"m":{"ha":1446,"x_min":88,"x_max":1364,"o":"m 1063 774 q 1283 690 1203 774 q 1364 432 1364 606 l 1364 0 l 1082 0 l 1082 417 q 1056 511 1082 483 q 982 539 1031 539 q 867 497 910 539 q 870 435 870 472 l 870 0 l 592 0 l 592 417 q 569 511 592 483 q 498 539 546 539 q 426 524 459 539 q 372 483 394 510 l 372 0 l 88 0 l 88 762 l 319 762 l 337 692 l 350 692 q 453 753 393 731 q 585 774 513 774 q 711 750 655 774 q 804 677 767 726 q 927 751 861 728 q 1063 774 993 774 z "},"ṃ":{"ha":1446,"x_min":88,"x_max":1364,"o":"m 1063 774 q 1283 690 1203 774 q 1364 432 1364 606 l 1364 0 l 1082 0 l 1082 417 q 1056 511 1082 483 q 982 539 1031 539 q 867 497 910 539 q 870 435 870 472 l 870 0 l 592 0 l 592 417 q 569 511 592 483 q 498 539 546 539 q 426 524 459 539 q 372 483 394 510 l 372 0 l 88 0 l 88 762 l 319 762 l 337 692 l 350 692 q 453 753 393 731 q 585 774 513 774 q 711 750 655 774 q 804 677 767 726 q 927 751 861 728 q 1063 774 993 774 m 732 -328 q 623 -295 659 -328 q 586 -204 586 -262 q 623 -113 586 -146 q 732 -80 659 -80 q 841 -113 805 -80 q 878 -204 878 -146 q 841 -295 878 -262 q 732 -328 805 -328 z "},"n":{"ha":994,"x_min":88,"x_max":912,"o":"m 88 762 l 319 762 l 337 692 l 350 692 q 461 753 397 731 q 599 774 526 774 q 828 690 744 774 q 912 431 912 606 l 912 0 l 628 0 l 628 416 q 601 511 628 483 q 517 539 574 539 q 437 524 476 539 q 372 483 398 510 l 372 0 l 88 0 l 88 762 z "},"ń":{"ha":994,"x_min":88,"x_max":912,"o":"m 88 762 l 319 762 l 337 692 l 350 692 q 461 753 397 731 q 599 774 526 774 q 828 690 744 774 q 912 431 912 606 l 912 0 l 628 0 l 628 416 q 601 511 628 483 q 517 539 574 539 q 437 524 476 539 q 372 483 398 510 l 372 0 l 88 0 l 88 762 m 366 851 l 546 1122 l 857 1122 l 635 851 l 366 851 z "},"ŉ":{"ha":994,"x_min":9,"x_max":912,"o":"m 88 762 l 319 762 l 337 692 l 350 692 q 461 753 397 731 q 599 774 526 774 q 828 690 744 774 q 912 431 912 606 l 912 0 l 628 0 l 628 416 q 601 511 628 483 q 517 539 574 539 q 437 524 476 539 q 372 483 398 510 l 372 0 l 88 0 l 88 762 m 163 1130 q 280 1101 242 1130 q 317 1015 317 1072 q 300 931 317 975 q 256 856 283 888 l 84 856 q 126 958 117 916 q 36 985 64 963 q 9 1043 9 1006 q 163 1130 9 1130 z "},"ň":{"ha":994,"x_min":88,"x_max":912,"o":"m 88 762 l 319 762 l 337 692 l 350 692 q 461 753 397 731 q 599 774 526 774 q 828 690 744 774 q 912 431 912 606 l 912 0 l 628 0 l 628 416 q 601 511 628 483 q 517 539 574 539 q 437 524 476 539 q 372 483 398 510 l 372 0 l 88 0 l 88 762 m 601 1122 l 808 1122 l 610 851 l 391 851 l 194 1122 l 401 1122 l 501 981 l 601 1122 z "},"ņ":{"ha":994,"x_min":88,"x_max":912,"o":"m 88 762 l 319 762 l 337 692 l 350 692 q 461 753 397 731 q 599 774 526 774 q 828 690 744 774 q 912 431 912 606 l 912 0 l 628 0 l 628 416 q 601 511 628 483 q 517 539 574 539 q 437 524 476 539 q 372 483 398 510 l 372 0 l 88 0 l 88 762 m 500 -80 q 655 -194 655 -80 q 638 -279 655 -235 q 593 -354 621 -323 l 422 -354 q 449 -298 440 -322 q 463 -252 459 -274 q 374 -226 401 -247 q 347 -167 347 -204 q 500 -80 347 -80 z "},"ṅ":{"ha":994,"x_min":88,"x_max":912,"o":"m 88 762 l 319 762 l 337 692 l 350 692 q 461 753 397 731 q 599 774 526 774 q 828 690 744 774 q 912 431 912 606 l 912 0 l 628 0 l 628 416 q 601 511 628 483 q 517 539 574 539 q 437 524 476 539 q 372 483 398 510 l 372 0 l 88 0 l 88 762 m 501 853 q 331 985 331 853 q 501 1118 331 1118 q 670 985 670 1118 q 501 853 670 853 z "},"ṇ":{"ha":994,"x_min":88,"x_max":912,"o":"m 88 762 l 319 762 l 337 692 l 350 692 q 461 753 397 731 q 599 774 526 774 q 828 690 744 774 q 912 431 912 606 l 912 0 l 628 0 l 628 416 q 601 511 628 483 q 517 539 574 539 q 437 524 476 539 q 372 483 398 510 l 372 0 l 88 0 l 88 762 m 501 -328 q 391 -295 428 -328 q 355 -204 355 -262 q 391 -113 355 -146 q 501 -80 428 -80 q 610 -113 574 -80 q 647 -204 647 -146 q 610 -295 647 -262 q 501 -328 574 -328 z "},"ŋ":{"ha":994,"x_min":88,"x_max":912,"o":"m 521 -211 q 604 -64 580 -140 q 628 124 628 13 l 628 417 q 601 511 628 483 q 517 539 574 539 q 437 524 476 539 q 372 483 398 509 l 372 0 l 88 0 l 88 762 l 319 762 l 337 692 l 350 692 q 461 753 397 731 q 600 774 526 774 q 828 690 744 774 q 912 432 912 606 l 912 130 q 862 -112 910 -3 q 697 -329 813 -220 l 521 -211 z "},"ǌ":{"ha":1454,"x_min":88,"x_max":1388,"o":"m 88 762 l 319 762 l 337 692 l 350 692 q 461 753 397 731 q 599 774 526 774 q 828 690 744 774 q 912 431 912 606 l 912 0 l 628 0 l 628 416 q 601 511 628 483 q 517 539 574 539 q 437 524 476 539 q 372 483 398 510 l 372 0 l 88 0 l 88 762 m 974 -211 q 1058 -64 1033 -140 q 1082 124 1082 13 l 1082 762 l 1365 762 l 1365 133 q 1316 -110 1365 -1 q 1151 -329 1267 -220 l 974 -211 m 1218 854 q 1049 987 1049 854 q 1218 1119 1049 1119 q 1388 987 1388 1119 q 1218 854 1388 854 z "},"ṉ":{"ha":994,"x_min":88,"x_max":912,"o":"m 88 762 l 319 762 l 337 692 l 350 692 q 461 753 397 731 q 599 774 526 774 q 828 690 744 774 q 912 431 912 606 l 912 0 l 628 0 l 628 416 q 601 511 628 483 q 517 539 574 539 q 437 524 476 539 q 372 483 398 510 l 372 0 l 88 0 l 88 762 m 225 -279 l 225 -126 l 776 -126 l 776 -279 l 225 -279 z "},"ñ":{"ha":994,"x_min":88,"x_max":912,"o":"m 88 762 l 319 762 l 337 692 l 350 692 q 461 753 397 731 q 599 774 526 774 q 828 690 744 774 q 912 431 912 606 l 912 0 l 628 0 l 628 416 q 601 511 628 483 q 517 539 574 539 q 437 524 476 539 q 372 483 398 510 l 372 0 l 88 0 l 88 762 m 622 875 q 559 884 589 875 q 489 910 530 893 q 425 935 450 927 q 373 943 400 943 q 294 929 329 943 q 222 881 259 915 l 222 1044 q 292 1088 253 1074 q 380 1101 330 1101 q 442 1092 413 1101 q 513 1066 472 1083 q 576 1041 551 1049 q 628 1033 601 1033 q 707 1048 672 1033 q 780 1095 742 1062 l 780 932 q 710 889 748 902 q 622 875 672 875 z "},"o":{"ha":991,"x_min":52,"x_max":939,"o":"m 496 -15 q 262 32 362 -15 q 107 168 162 79 q 52 381 52 258 q 105 594 52 506 q 257 728 157 682 q 496 774 356 774 q 735 728 635 774 q 887 594 835 682 q 939 381 939 506 q 884 168 939 258 q 729 32 829 79 q 496 -15 629 -15 m 496 199 q 618 243 576 199 q 659 381 659 288 q 618 517 659 474 q 496 560 576 560 q 373 517 415 560 q 332 381 332 474 q 374 243 332 288 q 496 199 415 199 z "},"ó":{"ha":991,"x_min":52,"x_max":939,"o":"m 496 -15 q 262 32 362 -15 q 107 168 162 79 q 52 381 52 258 q 105 594 52 506 q 257 728 157 682 q 496 774 356 774 q 735 728 635 774 q 887 594 835 682 q 939 381 939 506 q 884 168 939 258 q 729 32 829 79 q 496 -15 629 -15 m 496 199 q 618 243 576 199 q 659 381 659 288 q 618 517 659 474 q 496 560 576 560 q 373 517 415 560 q 332 381 332 474 q 374 243 332 288 q 496 199 415 199 m 361 851 l 541 1122 l 852 1122 l 631 851 l 361 851 z "},"ŏ":{"ha":991,"x_min":52,"x_max":939,"o":"m 496 -15 q 262 32 362 -15 q 107 168 162 79 q 52 381 52 258 q 105 594 52 506 q 257 728 157 682 q 496 774 356 774 q 735 728 635 774 q 887 594 835 682 q 939 381 939 506 q 884 168 939 258 q 729 32 829 79 q 496 -15 629 -15 m 496 199 q 618 243 576 199 q 659 381 659 288 q 618 517 659 474 q 496 560 576 560 q 373 517 415 560 q 332 381 332 474 q 374 243 332 288 q 496 199 415 199 m 496 855 q 277 922 355 855 q 192 1108 199 989 l 359 1108 q 496 991 372 991 q 594 1021 561 991 q 633 1108 626 1051 l 800 1108 q 715 922 793 989 q 496 855 637 855 z "},"ô":{"ha":991,"x_min":52,"x_max":939,"o":"m 496 -15 q 262 32 362 -15 q 107 168 162 79 q 52 381 52 258 q 105 594 52 506 q 257 728 157 682 q 496 774 356 774 q 735 728 635 774 q 887 594 835 682 q 939 381 939 506 q 884 168 939 258 q 729 32 829 79 q 496 -15 629 -15 m 496 199 q 618 243 576 199 q 659 381 659 288 q 618 517 659 474 q 496 560 576 560 q 373 517 415 560 q 332 381 332 474 q 374 243 332 288 q 496 199 415 199 m 802 851 l 595 851 l 496 992 l 397 851 l 190 851 l 386 1122 l 606 1122 l 802 851 z "},"ố":{"ha":991,"x_min":52,"x_max":1050,"o":"m 496 -15 q 262 32 362 -15 q 107 168 162 79 q 52 381 52 258 q 105 594 52 506 q 257 728 157 682 q 496 774 356 774 q 735 728 635 774 q 887 594 835 682 q 939 381 939 506 q 884 168 939 258 q 729 32 829 79 q 496 -15 629 -15 m 496 199 q 618 243 576 199 q 659 381 659 288 q 618 517 659 474 q 496 560 576 560 q 373 517 415 560 q 332 381 332 474 q 374 243 332 288 q 496 199 415 199 m 810 1297 l 1050 1297 l 865 1110 l 667 1110 l 810 1297 m 386 1122 l 606 1122 l 802 851 l 595 851 l 496 992 l 397 851 l 190 851 l 386 1122 z "},"ộ":{"ha":991,"x_min":52,"x_max":939,"o":"m 496 -15 q 262 32 362 -15 q 107 168 162 79 q 52 381 52 258 q 105 594 52 506 q 257 728 157 682 q 496 774 356 774 q 735 728 635 774 q 887 594 835 682 q 939 381 939 506 q 884 168 939 258 q 729 32 829 79 q 496 -15 629 -15 m 496 199 q 618 243 576 199 q 659 381 659 288 q 618 517 659 474 q 496 560 576 560 q 373 517 415 560 q 332 381 332 474 q 374 243 332 288 q 496 199 415 199 m 496 -328 q 386 -295 423 -328 q 350 -204 350 -262 q 386 -113 350 -146 q 496 -80 423 -80 q 605 -113 569 -80 q 642 -204 642 -146 q 605 -295 642 -262 q 496 -328 569 -328 m 802 851 l 595 851 l 496 992 l 397 851 l 190 851 l 386 1122 l 606 1122 l 802 851 z "},"ồ":{"ha":991,"x_min":52,"x_max":939,"o":"m 496 -15 q 262 32 362 -15 q 107 168 162 79 q 52 381 52 258 q 105 594 52 506 q 257 728 157 682 q 496 774 356 774 q 735 728 635 774 q 887 594 835 682 q 939 381 939 506 q 884 168 939 258 q 729 32 829 79 q 496 -15 629 -15 m 496 199 q 618 243 576 199 q 659 381 659 288 q 618 517 659 474 q 496 560 576 560 q 373 517 415 560 q 332 381 332 474 q 374 243 332 288 q 496 199 415 199 m 891 1110 l 693 1110 l 508 1297 l 748 1297 l 891 1110 m 386 1122 l 606 1122 l 802 851 l 595 851 l 496 992 l 397 851 l 190 851 l 386 1122 z "},"ổ":{"ha":991,"x_min":52,"x_max":939,"o":"m 496 -15 q 262 32 362 -15 q 107 168 162 79 q 52 381 52 258 q 105 594 52 506 q 257 728 157 682 q 496 774 356 774 q 735 728 635 774 q 887 594 835 682 q 939 381 939 506 q 884 168 939 258 q 729 32 829 79 q 496 -15 629 -15 m 496 199 q 618 243 576 199 q 659 381 659 288 q 618 517 659 474 q 496 560 576 560 q 373 517 415 560 q 332 381 332 474 q 374 243 332 288 q 496 199 415 199 m 726 1313 q 860 1292 818 1313 q 903 1227 903 1272 q 888 1191 903 1204 q 843 1163 873 1178 q 803 1138 817 1149 q 786 1110 789 1127 l 667 1110 q 689 1157 669 1140 q 742 1188 709 1173 q 767 1199 759 1194 q 774 1210 774 1204 q 758 1227 774 1222 q 705 1233 741 1233 q 579 1219 640 1233 l 579 1297 q 648 1308 606 1304 q 726 1313 690 1313 m 386 1122 l 606 1122 l 802 851 l 595 851 l 496 992 l 397 851 l 190 851 l 386 1122 z "},"ỗ":{"ha":991,"x_min":52,"x_max":939,"o":"m 496 -15 q 262 32 362 -15 q 107 168 162 79 q 52 381 52 258 q 105 594 52 506 q 257 728 157 682 q 496 774 356 774 q 735 728 635 774 q 887 594 835 682 q 939 381 939 506 q 884 168 939 258 q 729 32 829 79 q 496 -15 629 -15 m 496 199 q 618 243 576 199 q 659 381 659 288 q 618 517 659 474 q 496 560 576 560 q 373 517 415 560 q 332 381 332 474 q 374 243 332 288 q 496 199 415 199 m 628 1116 q 561 1122 592 1116 q 484 1139 531 1127 q 415 1155 444 1149 q 356 1160 387 1160 q 274 1151 310 1160 q 200 1121 239 1142 l 200 1246 q 272 1281 233 1269 q 363 1292 310 1292 q 432 1286 400 1292 q 508 1268 464 1280 q 578 1251 550 1257 q 636 1246 606 1246 q 717 1255 682 1246 q 792 1285 753 1265 l 792 1160 q 721 1126 760 1137 q 628 1116 682 1116 m 838 853 l 613 853 l 496 974 l 379 853 l 154 853 l 378 1076 l 614 1076 l 838 853 z "},"ȍ":{"ha":991,"x_min":52,"x_max":939,"o":"m 496 -15 q 262 32 362 -15 q 107 168 162 79 q 52 381 52 258 q 105 594 52 506 q 257 728 157 682 q 496 774 356 774 q 735 728 635 774 q 887 594 835 682 q 939 381 939 506 q 884 168 939 258 q 729 32 829 79 q 496 -15 629 -15 m 496 199 q 618 243 576 199 q 659 381 659 288 q 618 517 659 474 q 496 560 576 560 q 373 517 415 560 q 332 381 332 474 q 374 243 332 288 q 496 199 415 199 m 239 851 l 108 1122 l 323 1122 l 439 851 l 239 851 m 553 851 l 422 1122 l 638 1122 l 753 851 l 553 851 z "},"ö":{"ha":991,"x_min":52,"x_max":939,"o":"m 496 -15 q 262 32 362 -15 q 107 168 162 79 q 52 381 52 258 q 105 594 52 506 q 257 728 157 682 q 496 774 356 774 q 735 728 635 774 q 887 594 835 682 q 939 381 939 506 q 884 168 939 258 q 729 32 829 79 q 496 -15 629 -15 m 496 199 q 618 243 576 199 q 659 381 659 288 q 618 517 659 474 q 496 560 576 560 q 373 517 415 560 q 332 381 332 474 q 374 243 332 288 q 496 199 415 199 m 302 855 q 192 889 228 855 q 156 985 156 923 q 192 1082 156 1048 q 302 1115 228 1115 q 411 1082 376 1115 q 447 985 447 1048 q 411 889 447 923 q 302 855 375 855 m 690 855 q 581 889 617 855 q 544 985 544 923 q 580 1082 544 1048 q 690 1115 616 1115 q 799 1082 763 1115 q 835 985 835 1048 q 799 889 835 923 q 690 855 763 855 z "},"ȫ":{"ha":991,"x_min":52,"x_max":939,"o":"m 496 -15 q 262 32 362 -15 q 107 168 162 79 q 52 381 52 258 q 105 594 52 506 q 257 728 157 682 q 496 774 356 774 q 735 728 635 774 q 887 594 835 682 q 939 381 939 506 q 884 168 939 258 q 729 32 829 79 q 496 -15 629 -15 m 496 199 q 618 243 576 199 q 659 381 659 288 q 618 517 659 474 q 496 560 576 560 q 373 517 415 560 q 332 381 332 474 q 374 243 332 288 q 496 199 415 199 m 302 855 q 192 889 228 855 q 156 985 156 923 q 192 1082 156 1048 q 302 1115 228 1115 q 411 1082 376 1115 q 447 985 447 1048 q 411 889 447 923 q 302 855 375 855 m 690 855 q 581 889 617 855 q 544 985 544 923 q 580 1082 544 1048 q 690 1115 616 1115 q 799 1082 763 1115 q 835 985 835 1048 q 799 889 835 923 q 690 855 763 855 m 217 1192 l 217 1347 l 775 1347 l 775 1192 l 217 1192 z "},"ȱ":{"ha":991,"x_min":52,"x_max":939,"o":"m 496 -15 q 262 32 362 -15 q 107 168 162 79 q 52 381 52 258 q 105 594 52 506 q 257 728 157 682 q 496 774 356 774 q 735 728 635 774 q 887 594 835 682 q 939 381 939 506 q 884 168 939 258 q 729 32 829 79 q 496 -15 629 -15 m 496 199 q 618 243 576 199 q 659 381 659 288 q 618 517 659 474 q 496 560 576 560 q 373 517 415 560 q 332 381 332 474 q 374 243 332 288 q 496 199 415 199 m 496 853 q 326 985 326 853 q 496 1118 326 1118 q 665 985 665 1118 q 496 853 665 853 m 217 1185 l 217 1340 l 775 1340 l 775 1185 l 217 1185 z "},"ọ":{"ha":991,"x_min":52,"x_max":939,"o":"m 496 -15 q 262 32 362 -15 q 107 168 162 79 q 52 381 52 258 q 105 594 52 506 q 257 728 157 682 q 496 774 356 774 q 735 728 635 774 q 887 594 835 682 q 939 381 939 506 q 884 168 939 258 q 729 32 829 79 q 496 -15 629 -15 m 496 199 q 618 243 576 199 q 659 381 659 288 q 618 517 659 474 q 496 560 576 560 q 373 517 415 560 q 332 381 332 474 q 374 243 332 288 q 496 199 415 199 m 496 -328 q 386 -295 423 -328 q 350 -204 350 -262 q 386 -113 350 -146 q 496 -80 423 -80 q 605 -113 569 -80 q 642 -204 642 -146 q 605 -295 642 -262 q 496 -328 569 -328 z "},"ò":{"ha":991,"x_min":52,"x_max":939,"o":"m 496 -15 q 262 32 362 -15 q 107 168 162 79 q 52 381 52 258 q 105 594 52 506 q 257 728 157 682 q 496 774 356 774 q 735 728 635 774 q 887 594 835 682 q 939 381 939 506 q 884 168 939 258 q 729 32 829 79 q 496 -15 629 -15 m 496 199 q 618 243 576 199 q 659 381 659 288 q 618 517 659 474 q 496 560 576 560 q 373 517 415 560 q 332 381 332 474 q 374 243 332 288 q 496 199 415 199 m 361 851 l 140 1122 l 451 1122 l 631 851 l 361 851 z "},"ỏ":{"ha":991,"x_min":52,"x_max":939,"o":"m 496 -15 q 262 32 362 -15 q 107 168 162 79 q 52 381 52 258 q 105 594 52 506 q 257 728 157 682 q 496 774 356 774 q 735 728 635 774 q 887 594 835 682 q 939 381 939 506 q 884 168 939 258 q 729 32 829 79 q 496 -15 629 -15 m 496 199 q 618 243 576 199 q 659 381 659 288 q 618 517 659 474 q 496 560 576 560 q 373 517 415 560 q 332 381 332 474 q 374 243 332 288 q 496 199 415 199 m 428 851 q 441 900 430 880 q 468 934 453 921 q 505 961 483 947 q 534 983 525 974 q 544 1004 544 992 q 528 1026 544 1019 q 472 1032 513 1032 q 345 1015 410 1032 l 345 1113 q 415 1126 373 1122 q 492 1131 456 1131 q 637 1104 591 1131 q 683 1021 683 1077 q 675 978 683 996 q 653 949 666 960 q 619 923 640 938 q 580 889 593 904 q 563 851 566 874 l 428 851 z "},"ơ":{"ha":991,"x_min":52,"x_max":981,"o":"m 981 865 q 944 729 981 782 q 840 654 908 676 q 914 536 889 605 q 939 381 939 467 q 884 168 939 258 q 729 32 829 79 q 496 -15 629 -15 q 262 32 362 -15 q 107 168 162 79 q 52 381 52 258 q 105 594 52 506 q 260 728 158 682 q 508 774 363 774 q 612 769 547 774 q 669 766 648 766 q 774 791 740 766 q 809 872 809 815 q 799 969 809 914 l 969 969 q 979 916 976 940 q 981 865 981 892 m 496 199 q 618 243 576 199 q 659 381 659 288 q 618 517 659 474 q 496 560 576 560 q 373 517 415 560 q 332 381 332 474 q 374 243 332 288 q 496 199 415 199 z "},"ớ":{"ha":991,"x_min":52,"x_max":981,"o":"m 981 865 q 944 729 981 782 q 840 654 908 676 q 914 536 889 605 q 939 381 939 467 q 884 168 939 258 q 729 32 829 79 q 496 -15 629 -15 q 262 32 362 -15 q 107 168 162 79 q 52 381 52 258 q 105 594 52 506 q 260 728 158 682 q 508 774 363 774 q 612 769 547 774 q 669 766 648 766 q 774 791 740 766 q 809 872 809 815 q 799 969 809 914 l 969 969 q 979 916 976 940 q 981 865 981 892 m 496 199 q 618 243 576 199 q 659 381 659 288 q 618 517 659 474 q 496 560 576 560 q 373 517 415 560 q 332 381 332 474 q 374 243 332 288 q 496 199 415 199 m 360 851 l 540 1122 l 851 1122 l 630 851 l 360 851 z "},"ợ":{"ha":991,"x_min":52,"x_max":981,"o":"m 981 865 q 944 729 981 782 q 840 654 908 676 q 914 536 889 605 q 939 381 939 467 q 884 168 939 258 q 729 32 829 79 q 496 -15 629 -15 q 262 32 362 -15 q 107 168 162 79 q 52 381 52 258 q 105 594 52 506 q 260 728 158 682 q 508 774 363 774 q 612 769 547 774 q 669 766 648 766 q 774 791 740 766 q 809 872 809 815 q 799 969 809 914 l 969 969 q 979 916 976 940 q 981 865 981 892 m 496 199 q 618 243 576 199 q 659 381 659 288 q 618 517 659 474 q 496 560 576 560 q 373 517 415 560 q 332 381 332 474 q 374 243 332 288 q 496 199 415 199 m 495 -328 q 386 -295 422 -328 q 349 -204 349 -262 q 386 -113 349 -146 q 495 -80 422 -80 q 605 -113 568 -80 q 641 -204 641 -146 q 605 -295 641 -262 q 495 -328 568 -328 z "},"ờ":{"ha":991,"x_min":52,"x_max":981,"o":"m 981 865 q 944 729 981 782 q 840 654 908 676 q 914 536 889 605 q 939 381 939 467 q 884 168 939 258 q 729 32 829 79 q 496 -15 629 -15 q 262 32 362 -15 q 107 168 162 79 q 52 381 52 258 q 105 594 52 506 q 260 728 158 682 q 508 774 363 774 q 612 769 547 774 q 669 766 648 766 q 774 791 740 766 q 809 872 809 815 q 799 969 809 914 l 969 969 q 979 916 976 940 q 981 865 981 892 m 496 199 q 618 243 576 199 q 659 381 659 288 q 618 517 659 474 q 496 560 576 560 q 373 517 415 560 q 332 381 332 474 q 374 243 332 288 q 496 199 415 199 m 360 851 l 139 1122 l 450 1122 l 630 851 l 360 851 z "},"ở":{"ha":991,"x_min":52,"x_max":981,"o":"m 981 865 q 944 729 981 782 q 840 654 908 676 q 914 536 889 605 q 939 381 939 467 q 884 168 939 258 q 729 32 829 79 q 496 -15 629 -15 q 262 32 362 -15 q 107 168 162 79 q 52 381 52 258 q 105 594 52 506 q 260 728 158 682 q 508 774 363 774 q 612 769 547 774 q 669 766 648 766 q 774 791 740 766 q 809 872 809 815 q 799 969 809 914 l 969 969 q 979 916 976 940 q 981 865 981 892 m 496 199 q 618 243 576 199 q 659 381 659 288 q 618 517 659 474 q 496 560 576 560 q 373 517 415 560 q 332 381 332 474 q 374 243 332 288 q 496 199 415 199 m 428 851 q 441 900 429 880 q 467 934 452 921 q 504 961 482 947 q 534 983 524 974 q 543 1004 543 992 q 527 1026 543 1019 q 472 1032 512 1032 q 344 1015 409 1032 l 344 1113 q 414 1126 372 1122 q 492 1131 456 1131 q 636 1104 590 1131 q 683 1021 683 1077 q 674 978 683 996 q 652 949 665 960 q 619 923 640 938 q 579 889 592 904 q 563 851 565 874 l 428 851 z "},"ỡ":{"ha":991,"x_min":52,"x_max":981,"o":"m 611 875 q 551 884 580 875 q 483 911 522 894 q 422 935 445 928 q 373 943 399 943 q 298 929 331 943 q 228 881 265 915 l 228 1044 q 296 1088 260 1074 q 379 1101 332 1101 q 438 1093 410 1101 q 506 1066 466 1084 q 567 1041 542 1049 q 617 1033 592 1033 q 693 1048 659 1033 q 762 1095 726 1062 l 762 932 q 694 889 731 902 q 611 875 658 875 m 981 865 q 944 729 981 782 q 840 654 908 676 q 914 536 889 605 q 939 381 939 467 q 884 168 939 258 q 729 32 829 79 q 496 -15 629 -15 q 262 32 362 -15 q 107 168 162 79 q 52 381 52 258 q 105 594 52 506 q 260 728 158 682 q 508 774 363 774 q 612 769 547 774 q 669 766 648 766 q 774 791 740 766 q 809 872 809 815 q 799 969 809 914 l 969 969 q 979 916 976 940 q 981 865 981 892 m 496 199 q 618 243 576 199 q 659 381 659 288 q 618 517 659 474 q 496 560 576 560 q 373 517 415 560 q 332 381 332 474 q 374 243 332 288 q 496 199 415 199 z "},"ő":{"ha":991,"x_min":52,"x_max":939,"o":"m 496 -15 q 262 32 362 -15 q 107 168 162 79 q 52 381 52 258 q 105 594 52 506 q 257 728 157 682 q 496 774 356 774 q 735 728 635 774 q 887 594 835 682 q 939 381 939 506 q 884 168 939 258 q 729 32 829 79 q 496 -15 629 -15 m 496 199 q 618 243 576 199 q 659 381 659 288 q 618 517 659 474 q 496 560 576 560 q 373 517 415 560 q 332 381 332 474 q 374 243 332 288 q 496 199 415 199 m 239 851 l 355 1122 l 569 1122 l 439 851 l 239 851 m 553 851 l 669 1122 l 883 1122 l 753 851 l 553 851 z "},"ȏ":{"ha":991,"x_min":52,"x_max":939,"o":"m 496 -15 q 262 32 362 -15 q 107 168 162 79 q 52 381 52 258 q 105 594 52 506 q 257 728 157 682 q 496 774 356 774 q 735 728 635 774 q 887 594 835 682 q 939 381 939 506 q 884 168 939 258 q 729 32 829 79 q 496 -15 629 -15 m 496 199 q 618 243 576 199 q 659 381 659 288 q 618 517 659 474 q 496 560 576 560 q 373 517 415 560 q 332 381 332 474 q 374 243 332 288 q 496 199 415 199 m 192 871 q 276 1057 199 990 q 496 1124 354 1124 q 715 1057 637 1124 q 800 871 793 990 l 633 871 q 496 988 620 988 q 359 871 372 988 l 192 871 z "},"ō":{"ha":991,"x_min":52,"x_max":939,"o":"m 496 -15 q 262 32 362 -15 q 107 168 162 79 q 52 381 52 258 q 105 594 52 506 q 257 728 157 682 q 496 774 356 774 q 735 728 635 774 q 887 594 835 682 q 939 381 939 506 q 884 168 939 258 q 729 32 829 79 q 496 -15 629 -15 m 496 199 q 618 243 576 199 q 659 381 659 288 q 618 517 659 474 q 496 560 576 560 q 373 517 415 560 q 332 381 332 474 q 374 243 332 288 q 496 199 415 199 m 217 908 l 217 1063 l 775 1063 l 775 908 l 217 908 z "},"ṓ":{"ha":991,"x_min":52,"x_max":939,"o":"m 496 -15 q 262 32 362 -15 q 107 168 162 79 q 52 381 52 258 q 105 594 52 506 q 257 728 157 682 q 496 774 356 774 q 735 728 635 774 q 887 594 835 682 q 939 381 939 506 q 884 168 939 258 q 729 32 829 79 q 496 -15 629 -15 m 496 199 q 618 243 576 199 q 659 381 659 288 q 618 517 659 474 q 496 560 576 560 q 373 517 415 560 q 332 381 332 474 q 374 243 332 288 q 496 199 415 199 m 217 908 l 217 1063 l 775 1063 l 775 908 l 217 908 m 365 1165 l 508 1381 l 808 1381 l 622 1165 l 365 1165 z "},"ṑ":{"ha":991,"x_min":52,"x_max":939,"o":"m 496 -15 q 262 32 362 -15 q 107 168 162 79 q 52 381 52 258 q 105 594 52 506 q 257 728 157 682 q 496 774 356 774 q 735 728 635 774 q 887 594 835 682 q 939 381 939 506 q 884 168 939 258 q 729 32 829 79 q 496 -15 629 -15 m 496 199 q 618 243 576 199 q 659 381 659 288 q 618 517 659 474 q 496 560 576 560 q 373 517 415 560 q 332 381 332 474 q 374 243 332 288 q 496 199 415 199 m 217 908 l 217 1063 l 775 1063 l 775 908 l 217 908 m 367 1165 l 182 1381 l 481 1381 l 624 1165 l 367 1165 z "},"ǫ":{"ha":991,"x_min":52,"x_max":939,"o":"m 496 774 q 735 728 635 774 q 887 594 835 682 q 939 381 939 506 q 869 146 939 242 q 676 10 799 50 q 529 -59 569 -24 q 489 -138 489 -95 q 512 -191 489 -172 q 579 -210 535 -210 q 665 -192 622 -210 l 667 -292 q 605 -308 635 -303 q 537 -314 575 -314 q 384 -273 437 -314 q 331 -162 331 -233 q 353 -78 331 -115 q 420 -10 374 -40 q 224 52 307 2 q 97 185 142 101 q 52 381 52 269 q 105 594 52 506 q 257 728 157 682 q 496 774 356 774 m 496 199 q 618 243 576 199 q 659 381 659 288 q 618 517 659 474 q 496 560 576 560 q 373 517 415 560 q 332 381 332 474 q 374 243 332 288 q 496 199 415 199 z "},"ø":{"ha":991,"x_min":52,"x_max":939,"o":"m 815 678 q 907 553 876 628 q 939 381 939 478 q 884 168 939 258 q 729 32 829 79 q 496 -15 629 -15 q 292 19 383 -15 l 233 -56 l 133 26 l 179 84 q 85 211 118 135 q 52 381 52 286 q 105 594 52 506 q 257 728 157 682 q 496 774 356 774 q 701 742 611 774 l 761 817 l 860 735 l 815 678 m 496 563 q 372 519 413 563 q 330 381 330 476 q 347 281 330 321 l 563 553 q 496 563 535 563 m 496 197 q 619 241 578 197 q 661 381 661 286 q 645 478 661 439 l 429 206 q 496 197 457 197 z "},"ǿ":{"ha":991,"x_min":52,"x_max":939,"o":"m 815 678 q 907 553 876 628 q 939 381 939 478 q 884 168 939 258 q 729 32 829 79 q 496 -15 629 -15 q 292 19 383 -15 l 233 -56 l 133 26 l 179 84 q 85 211 118 135 q 52 381 52 286 q 105 594 52 506 q 257 728 157 682 q 496 774 356 774 q 701 742 611 774 l 761 817 l 860 735 l 815 678 m 496 563 q 372 519 413 563 q 330 381 330 476 q 347 281 330 321 l 563 553 q 496 563 535 563 m 496 197 q 619 241 578 197 q 661 381 661 286 q 645 478 661 439 l 429 206 q 496 197 457 197 m 357 851 l 537 1122 l 848 1122 l 626 851 l 357 851 z "},"õ":{"ha":991,"x_min":52,"x_max":939,"o":"m 496 -15 q 262 32 362 -15 q 107 168 162 79 q 52 381 52 258 q 105 594 52 506 q 257 728 157 682 q 496 774 356 774 q 735 728 635 774 q 887 594 835 682 q 939 381 939 506 q 884 168 939 258 q 729 32 829 79 q 496 -15 629 -15 m 496 199 q 618 243 576 199 q 659 381 659 288 q 618 517 659 474 q 496 560 576 560 q 373 517 415 560 q 332 381 332 474 q 374 243 332 288 q 496 199 415 199 m 617 875 q 555 884 584 875 q 484 910 525 893 q 420 935 445 927 q 368 943 395 943 q 289 929 324 943 q 217 881 254 915 l 217 1044 q 287 1088 249 1074 q 375 1101 325 1101 q 437 1092 408 1101 q 508 1066 467 1083 q 572 1041 547 1049 q 624 1033 597 1033 q 702 1048 667 1033 q 775 1095 738 1062 l 775 932 q 705 889 743 902 q 617 875 667 875 z "},"ṍ":{"ha":991,"x_min":52,"x_max":939,"o":"m 496 -15 q 262 32 362 -15 q 107 168 162 79 q 52 381 52 258 q 105 594 52 506 q 257 728 157 682 q 496 774 356 774 q 735 728 635 774 q 887 594 835 682 q 939 381 939 506 q 884 168 939 258 q 729 32 829 79 q 496 -15 629 -15 m 496 199 q 618 243 576 199 q 659 381 659 288 q 618 517 659 474 q 496 560 576 560 q 373 517 415 560 q 332 381 332 474 q 374 243 332 288 q 496 199 415 199 m 617 875 q 555 884 584 875 q 484 910 525 893 q 420 935 445 927 q 368 943 395 943 q 289 929 324 943 q 217 881 254 915 l 217 1044 q 287 1088 249 1074 q 375 1101 325 1101 q 437 1092 408 1101 q 508 1066 467 1083 q 572 1041 547 1049 q 624 1033 597 1033 q 702 1048 667 1033 q 775 1095 738 1062 l 775 932 q 705 889 743 902 q 617 875 667 875 m 365 1165 l 508 1381 l 808 1381 l 622 1165 l 365 1165 z "},"ṏ":{"ha":991,"x_min":52,"x_max":939,"o":"m 496 -15 q 262 32 362 -15 q 107 168 162 79 q 52 381 52 258 q 105 594 52 506 q 257 728 157 682 q 496 774 356 774 q 735 728 635 774 q 887 594 835 682 q 939 381 939 506 q 884 168 939 258 q 729 32 829 79 q 496 -15 629 -15 m 496 199 q 618 243 576 199 q 659 381 659 288 q 618 517 659 474 q 496 560 576 560 q 373 517 415 560 q 332 381 332 474 q 374 243 332 288 q 496 199 415 199 m 617 875 q 555 884 584 875 q 484 910 525 893 q 420 935 445 927 q 368 943 395 943 q 289 929 324 943 q 217 881 254 915 l 217 1044 q 287 1088 249 1074 q 375 1101 325 1101 q 437 1092 408 1101 q 508 1066 467 1083 q 572 1041 547 1049 q 624 1033 597 1033 q 702 1048 667 1033 q 775 1095 738 1062 l 775 932 q 705 889 743 902 q 617 875 667 875 m 302 1138 q 192 1172 228 1138 q 156 1269 156 1206 q 192 1365 156 1331 q 302 1399 228 1399 q 411 1365 376 1399 q 447 1269 447 1331 q 411 1172 447 1206 q 302 1138 375 1138 m 690 1138 q 581 1172 617 1138 q 544 1269 544 1206 q 580 1365 544 1331 q 690 1399 616 1399 q 799 1365 763 1399 q 835 1269 835 1331 q 799 1172 835 1206 q 690 1138 763 1138 z "},"ȭ":{"ha":991,"x_min":52,"x_max":939,"o":"m 496 -15 q 262 32 362 -15 q 107 168 162 79 q 52 381 52 258 q 105 594 52 506 q 257 728 157 682 q 496 774 356 774 q 735 728 635 774 q 887 594 835 682 q 939 381 939 506 q 884 168 939 258 q 729 32 829 79 q 496 -15 629 -15 m 496 199 q 618 243 576 199 q 659 381 659 288 q 618 517 659 474 q 496 560 576 560 q 373 517 415 560 q 332 381 332 474 q 374 243 332 288 q 496 199 415 199 m 617 875 q 555 884 584 875 q 484 910 525 893 q 420 935 445 927 q 368 943 395 943 q 289 929 324 943 q 217 881 254 915 l 217 1044 q 287 1088 249 1074 q 375 1101 325 1101 q 437 1092 408 1101 q 508 1066 467 1083 q 572 1041 547 1049 q 624 1033 597 1033 q 702 1048 667 1033 q 775 1095 738 1062 l 775 932 q 705 889 743 902 q 617 875 667 875 m 217 1192 l 217 1347 l 775 1347 l 775 1192 l 217 1192 z "},"œ":{"ha":1503,"x_min":52,"x_max":1459,"o":"m 1459 306 l 939 306 q 968 235 944 260 q 1046 197 992 209 q 1194 185 1099 185 q 1299 190 1242 185 q 1408 205 1356 195 l 1408 8 q 1149 -15 1288 -15 q 931 12 1021 -15 q 784 92 840 39 q 657 13 732 40 q 483 -15 581 -15 q 258 32 356 -15 q 106 168 160 79 q 52 381 52 258 q 104 593 52 505 q 252 728 156 682 q 483 774 349 774 q 798 661 694 774 q 923 745 849 715 q 1085 774 996 774 q 1288 726 1204 774 q 1416 587 1372 678 q 1459 369 1459 496 l 1459 306 m 1068 606 q 972 569 1004 606 q 938 455 940 533 l 1198 455 q 1163 569 1195 532 q 1068 606 1131 606 m 495 199 q 617 243 576 199 q 658 381 658 288 q 617 517 658 474 q 495 560 576 560 q 373 517 415 560 q 332 381 332 474 q 373 243 332 288 q 495 199 415 199 z "},"p":{"ha":1009,"x_min":88,"x_max":957,"o":"m 88 762 l 324 762 l 340 685 l 352 685 q 457 751 397 727 q 591 774 517 774 q 777 734 695 774 q 908 610 860 694 q 957 397 957 526 q 902 175 957 268 q 743 34 847 83 q 499 -15 640 -15 q 372 -8 445 -15 l 372 -306 l 88 -306 l 88 762 m 478 196 q 628 241 579 196 q 677 378 677 287 q 513 551 677 551 q 436 540 473 551 q 372 505 399 528 l 372 206 q 478 196 422 196 z "},"þ":{"ha":1009,"x_min":88,"x_max":957,"o":"m 88 1122 l 372 1122 l 372 693 l 384 693 q 614 774 473 774 q 788 732 710 774 q 911 606 865 690 q 957 397 957 521 q 902 175 957 268 q 743 34 847 83 q 499 -15 640 -15 q 372 -8 445 -15 l 372 -306 l 88 -306 l 88 1122 m 478 196 q 628 241 579 196 q 677 378 677 287 q 514 551 677 551 q 436 540 474 551 q 372 505 399 528 l 372 206 q 478 196 422 196 z "},"q":{"ha":1009,"x_min":52,"x_max":921,"o":"m 638 66 l 625 66 q 394 -15 537 -15 q 221 27 299 -15 q 98 153 144 69 q 52 358 52 237 q 180 668 52 561 q 554 774 307 774 q 747 761 647 774 q 921 726 846 749 l 921 -306 l 638 -306 l 638 66 m 496 208 q 571 218 534 208 q 638 248 608 228 l 638 553 q 528 565 589 565 q 382 519 432 565 q 332 378 332 472 q 496 208 332 208 z "},"r":{"ha":648,"x_min":88,"x_max":639,"o":"m 88 762 l 319 762 l 340 674 l 353 674 q 443 748 388 723 q 568 774 499 774 q 639 767 604 774 l 639 519 q 551 526 605 526 q 450 510 500 526 q 372 466 400 494 l 372 0 l 88 0 l 88 762 z "},"ŕ":{"ha":648,"x_min":88,"x_max":721,"o":"m 88 762 l 319 762 l 340 674 l 353 674 q 443 748 388 723 q 568 774 499 774 q 639 767 604 774 l 639 519 q 551 526 605 526 q 450 510 500 526 q 372 466 400 494 l 372 0 l 88 0 l 88 762 m 230 851 l 410 1122 l 721 1122 l 499 851 l 230 851 z "},"ř":{"ha":648,"x_min":58,"x_max":672,"o":"m 88 762 l 319 762 l 340 674 l 353 674 q 443 748 388 723 q 568 774 499 774 q 639 767 604 774 l 639 519 q 551 526 605 526 q 450 510 500 526 q 372 466 400 494 l 372 0 l 88 0 l 88 762 m 465 1122 l 672 1122 l 474 851 l 255 851 l 58 1122 l 265 1122 l 365 981 l 465 1122 z "},"ŗ":{"ha":648,"x_min":76,"x_max":639,"o":"m 88 762 l 319 762 l 340 674 l 353 674 q 443 748 388 723 q 568 774 499 774 q 639 767 604 774 l 639 519 q 551 526 605 526 q 450 510 500 526 q 372 466 400 494 l 372 0 l 88 0 l 88 762 m 229 -80 q 384 -194 384 -80 q 367 -279 384 -235 q 322 -354 350 -323 l 151 -354 q 178 -298 169 -322 q 192 -252 188 -274 q 103 -226 131 -247 q 76 -167 76 -204 q 229 -80 76 -80 z "},"ȑ":{"ha":648,"x_min":-23,"x_max":639,"o":"m 88 762 l 319 762 l 340 674 l 353 674 q 443 748 388 723 q 568 774 499 774 q 639 767 604 774 l 639 519 q 551 526 605 526 q 450 510 500 526 q 372 466 400 494 l 372 0 l 88 0 l 88 762 m 108 851 l -23 1122 l 192 1122 l 308 851 l 108 851 m 422 851 l 291 1122 l 506 1122 l 622 851 l 422 851 z "},"ṛ":{"ha":648,"x_min":84,"x_max":639,"o":"m 88 762 l 319 762 l 340 674 l 353 674 q 443 748 388 723 q 568 774 499 774 q 639 767 604 774 l 639 519 q 551 526 605 526 q 450 510 500 526 q 372 466 400 494 l 372 0 l 88 0 l 88 762 m 230 -328 q 120 -295 157 -328 q 84 -204 84 -262 q 120 -113 84 -146 q 230 -80 157 -80 q 339 -113 303 -80 q 376 -204 376 -146 q 339 -295 376 -262 q 230 -328 303 -328 z "},"ȓ":{"ha":648,"x_min":60,"x_max":669,"o":"m 88 762 l 319 762 l 340 674 l 353 674 q 443 748 388 723 q 568 774 499 774 q 639 767 604 774 l 639 519 q 551 526 605 526 q 450 510 500 526 q 372 466 400 494 l 372 0 l 88 0 l 88 762 m 60 871 q 145 1057 67 990 q 365 1124 223 1124 q 584 1057 506 1124 q 669 871 662 990 l 501 871 q 365 988 489 988 q 228 871 240 988 l 60 871 z "},"ṟ":{"ha":648,"x_min":-46,"x_max":639,"o":"m 88 762 l 319 762 l 340 674 l 353 674 q 443 748 388 723 q 568 774 499 774 q 639 767 604 774 l 639 519 q 551 526 605 526 q 450 510 500 526 q 372 466 400 494 l 372 0 l 88 0 l 88 762 m -46 -279 l -46 -126 l 506 -126 l 506 -279 l -46 -279 z "},"s":{"ha":817,"x_min":50,"x_max":776,"o":"m 374 -15 q 211 -5 290 -15 q 69 22 133 4 l 69 210 q 214 183 135 192 q 369 173 292 173 q 477 186 446 173 q 508 227 508 200 q 496 256 508 247 q 450 271 484 266 l 293 292 q 107 365 163 309 q 50 517 50 420 q 157 707 50 639 q 483 774 265 774 q 617 766 549 774 q 733 744 685 758 l 733 555 q 615 578 683 569 q 485 587 548 587 q 352 571 388 587 q 317 530 317 556 q 330 503 317 513 q 376 488 342 493 l 533 467 q 667 432 614 457 q 748 360 720 407 q 776 240 776 314 q 729 103 776 160 q 593 16 683 47 q 374 -15 503 -15 z "},"ś":{"ha":817,"x_min":50,"x_max":776,"o":"m 374 -15 q 211 -5 290 -15 q 69 22 133 4 l 69 210 q 214 183 135 192 q 369 173 292 173 q 477 186 446 173 q 508 227 508 200 q 496 256 508 247 q 450 271 484 266 l 293 292 q 107 365 163 309 q 50 517 50 420 q 157 707 50 639 q 483 774 265 774 q 617 766 549 774 q 733 744 685 758 l 733 555 q 615 578 683 569 q 485 587 548 587 q 352 571 388 587 q 317 530 317 556 q 330 503 317 513 q 376 488 342 493 l 533 467 q 667 432 614 457 q 748 360 720 407 q 776 240 776 314 q 729 103 776 160 q 593 16 683 47 q 374 -15 503 -15 m 283 851 l 463 1122 l 774 1122 l 552 851 l 283 851 z "},"ṥ":{"ha":817,"x_min":50,"x_max":776,"o":"m 374 -15 q 211 -5 290 -15 q 69 22 133 4 l 69 210 q 214 183 135 192 q 369 173 292 173 q 477 186 446 173 q 508 227 508 200 q 496 256 508 247 q 450 271 484 266 l 293 292 q 107 365 163 309 q 50 517 50 420 q 157 707 50 639 q 483 774 265 774 q 617 766 549 774 q 733 744 685 758 l 733 555 q 615 578 683 569 q 485 587 548 587 q 352 571 388 587 q 317 530 317 556 q 330 503 317 513 q 376 488 342 493 l 533 467 q 667 432 614 457 q 748 360 720 407 q 776 240 776 314 q 729 103 776 160 q 593 16 683 47 q 374 -15 503 -15 m 270 1094 q 169 1119 202 1094 q 137 1186 137 1144 q 169 1254 137 1229 q 270 1278 202 1278 q 372 1254 339 1278 q 404 1186 404 1229 q 372 1119 404 1144 q 270 1094 339 1094 m 283 851 l 463 1122 l 774 1122 l 552 851 l 283 851 z "},"š":{"ha":817,"x_min":50,"x_max":776,"o":"m 374 -15 q 211 -5 290 -15 q 69 22 133 4 l 69 210 q 214 183 135 192 q 369 173 292 173 q 477 186 446 173 q 508 227 508 200 q 496 256 508 247 q 450 271 484 266 l 293 292 q 107 365 163 309 q 50 517 50 420 q 157 707 50 639 q 483 774 265 774 q 617 766 549 774 q 733 744 685 758 l 733 555 q 615 578 683 569 q 485 587 548 587 q 352 571 388 587 q 317 530 317 556 q 330 503 317 513 q 376 488 342 493 l 533 467 q 667 432 614 457 q 748 360 720 407 q 776 240 776 314 q 729 103 776 160 q 593 16 683 47 q 374 -15 503 -15 m 517 1122 l 724 1122 l 527 851 l 308 851 l 110 1122 l 317 1122 l 417 981 l 517 1122 z "}}}
